<?xml version="1.0" encoding="UTF-8"?>
<svg version="1.1" xmlns="http://www.w3.org/2000/svg" width="1920" height="1080">
<path d="M0 0 C9.72847781 -0.00113073 19.45695302 -0.0042656 29.18542983 -0.00874095 C43.39281451 -0.01525343 57.60018502 -0.01618681 71.80757111 -0.01148868 C76.47714888 -0.01006726 81.14671817 -0.01061813 85.81629533 -0.01332736 C107.55229575 -0.02426261 129.28789573 0.04927095 151.02150768 0.39524603 C153.08734868 0.42671946 155.15325833 0.45405261 157.21921629 0.47657681 C186.15462374 0.80829735 215.01766491 3.20503686 237.01234978 24.12283063 C257.73239601 45.53354506 259.23893891 74.38354497 259.08765191 102.70418859 C259.07412488 105.29280333 259.06752531 107.88136952 259.06227654 110.47001386 C259.05386419 114.40288934 259.04311284 118.33574834 259.03066033 122.2686131 C258.99579976 133.77077734 258.98566518 145.27296265 258.98109978 156.77517438 C258.98055093 158.08783214 258.98000207 159.40048989 258.97943658 160.75292516 C258.97144402 188.50288056 259.0956249 216.25216497 259.23109978 244.00173688 C259.23657704 245.12425776 259.2420543 246.24677864 259.24769753 247.40331531 C259.36009883 270.35135264 259.48058256 293.2993476 259.6031906 316.24733239 C259.65045474 325.09495742 259.69704411 333.94258588 259.74331683 342.79021615 C259.77041852 347.95376663 259.79806968 353.11731284 259.82715386 358.28085256 C259.8354035 359.75408155 259.8354035 359.75408155 259.8438198 361.25707275 C259.85382809 363.03604159 259.86396642 364.81500971 259.874304 366.59397668 C259.89101674 369.56981657 259.90600133 372.54566093 259.92055291 375.52151227 C259.92441918 376.29688297 259.92828545 377.07225367 259.93226887 377.87112045 C259.99650242 391.03179556 260.0185961 404.19189074 260.00689287 417.35270107 C259.98693126 443.13348185 260.08730248 468.91320274 260.21075386 494.69363284 C260.24020784 500.90158536 260.26831787 507.10954399 260.29652947 513.31750226 C260.33277579 521.2791952 260.3691054 529.24088769 260.40596193 537.20257783 C260.49351268 556.12564001 260.57777382 575.04871474 260.65970737 593.97180206 C260.66907877 596.13615502 260.67845869 598.30050794 260.68784054 600.46486086 C260.73873693 612.20846603 260.78947736 623.95207187 260.84018168 635.69567788 C260.88552881 646.19711231 260.93102006 656.6985461 260.97670525 667.19997907 C260.97995646 667.94772423 260.98320766 668.69546938 260.98655738 669.46587349 C261.09251568 693.82511611 261.20458859 718.18432638 261.31950692 742.54352822 C261.43809693 767.68876904 261.5499908 792.83403135 261.65365197 817.97933834 C261.66827839 821.52623861 261.68298431 825.07313854 261.69774026 828.62003827 C261.7006414 829.31787361 261.70354255 830.01570896 261.70653161 830.73469083 C261.75335195 841.94800998 261.80727622 853.16128417 261.86392854 864.37455749 C261.92057973 875.61569384 261.96974136 886.85684408 262.01169212 898.0980466 C262.03462659 904.18331154 262.06089768 910.26851492 262.09600991 916.35372281 C262.12806263 921.92075644 262.15077852 927.48774654 262.16601197 933.05485088 C262.1731844 935.0697117 262.18380818 937.08456377 262.1982065 939.09938592 C262.21725999 941.83554154 262.22379313 944.57145455 262.2272107 947.30766797 C262.23567342 948.09114736 262.24413614 948.87462674 262.2528553 949.68184793 C262.24151285 954.81545126 261.37891627 959.17373206 260.01234978 964.12283063 C259.69021543 967.11292327 259.69021543 967.11292327 259.66859978 970.00173688 C259.64040154 971.07657331 259.6122033 972.15140973 259.58315057 973.25881696 C259.55978631 974.38956647 259.53642205 975.52031598 259.51234978 976.68533063 C257.9527671 1029.44881575 257.9527671 1029.44881575 243.01234978 1049.12283063 C242.51219353 1049.78798688 242.01203728 1050.45314313 241.49672478 1051.13845563 C229.02422466 1066.51716937 210.27776412 1074.64187712 191.01234978 1077.12283063 C185.35228033 1077.57744418 179.68211387 1077.87774965 174.01234978 1078.18533063 C173.19910241 1078.22985364 172.38585503 1078.27437665 171.5479638 1078.32024884 C160.0544242 1078.93702611 148.58509109 1079.30961871 137.07484978 1079.31033063 C135.85861932 1079.31105573 134.64238885 1079.31178082 133.38930291 1079.31252789 C127.67887754 1079.27737101 122.01676787 1079.08611879 116.32265252 1078.64700055 C87.8421284 1076.56015077 59.2485183 1076.96687149 30.71156853 1076.99245954 C24.30198781 1076.99815549 17.892449 1076.99486525 11.4828698 1076.98888707 C6.44968397 1076.98522502 1.41650762 1076.98644554 -3.61667854 1076.98901486 C-5.97629773 1076.98966865 -8.33591787 1076.98891194 -10.69553596 1076.98653531 C-23.02345386 1076.97683469 -35.31980132 1077.13776106 -47.63863307 1077.62382245 C-61.7203858 1078.14015502 -75.7790491 1078.25876833 -89.86879951 1078.23635602 C-92.4375309 1078.23607502 -95.00626238 1078.2362409 -97.57499373 1078.23680711 C-103.10047446 1078.23733313 -108.62594317 1078.23423301 -114.15142089 1078.22857785 C-122.37291427 1078.22018815 -130.59440241 1078.21774638 -138.8158996 1078.21645352 C-152.68170774 1078.21413052 -166.54751006 1078.20730373 -180.41331512 1078.19799542 C-199.44906621 1078.18528067 -218.48481543 1078.1793233 -237.52057008 1078.17506206 C-246.44102544 1078.17305653 -255.36148073 1078.17072848 -264.28193599 1078.16831708 C-265.62144641 1078.16795556 -265.62144641 1078.16795556 -266.98801766 1078.16758674 C-288.20998273 1078.16178463 -309.43194628 1078.15283406 -330.65390998 1078.14333844 C-332.0446514 1078.14271797 -332.0446514 1078.14271797 -333.46348861 1078.14208497 C-350.33478669 1078.13455267 -367.20608464 1078.12676834 -384.07738258 1078.11892657 C-396.14586043 1078.11331841 -408.21433831 1078.10777597 -420.28281623 1078.10232282 C-421.19772276 1078.10190823 -422.1126293 1078.10149364 -423.05526027 1078.10106649 C-444.09027074 1078.0915522 -465.12528103 1078.08300837 -486.16029292 1078.07734418 C-487.05393696 1078.07710319 -487.947581 1078.07686219 -488.86830517 1078.0766139 C-497.81278783 1078.07422312 -506.75727052 1078.07199568 -515.70175328 1078.07000765 C-533.82358721 1078.0659468 -551.94541536 1078.05989 -570.06724578 1078.04766583 C-589.4192127 1078.03473662 -608.77117671 1078.02584234 -628.12314826 1078.02517438 C-628.89050532 1078.02514204 -629.65786237 1078.0251097 -630.44847267 1078.02507638 C-678.77155437 1078.0240261 -727.08600547 1078.29943053 -775.4065783 1078.82702506 C-776.41858324 1078.83806751 -777.43058817 1078.84910996 -778.47325992 1078.86048703 C-780.4765189 1078.88236432 -782.47977721 1078.90430387 -784.4830348 1078.92630823 C-811.60229366 1079.22233279 -838.72006058 1079.27127421 -865.84082681 1079.25715613 C-869.8675155 1079.25558325 -873.89420047 1079.25574396 -877.9208892 1079.25664639 C-878.61286576 1079.25679963 -879.30484232 1079.25695286 -880.01778787 1079.25711074 C-881.4273167 1079.25743074 -882.83684553 1079.25775496 -884.24637435 1079.25808333 C-897.02973597 1079.26084194 -909.81309006 1079.2578013 -922.59645043 1079.25228296 C-933.46350758 1079.24773825 -944.33055415 1079.248671 -955.19761115 1079.25320172 C-968.09811331 1079.25857835 -980.99860928 1079.26065331 -993.8991124 1079.25758946 C-995.27517627 1079.25727112 -996.65124013 1079.25695675 -998.02730399 1079.25664639 C-998.70303455 1079.25649212 -999.3787651 1079.25633784 -1000.07497234 1079.25617889 C-1004.74821454 1079.25532921 -1009.42145252 1079.25679282 -1014.09469444 1079.25912595 C-1020.35213477 1079.26203887 -1026.60955505 1079.25996705 -1032.86699325 1079.25423169 C-1035.13393271 1079.25292699 -1037.40087391 1079.25325836 -1039.66781265 1079.25549436 C-1051.127593 1079.26574845 -1062.56748889 1079.14045476 -1074.01948005 1078.69286847 C-1075.00132321 1078.65622748 -1075.98316638 1078.61958648 -1076.99476236 1078.58183515 C-1100.95353034 1077.53741733 -1121.76130369 1069.009551 -1138.13608772 1051.45095563 C-1156.01761953 1031.23296628 -1156.19117872 1000.81687037 -1156.0712879 975.24079734 C-1156.05919649 972.63989482 -1156.05362545 970.03903771 -1156.0493322 967.43811107 C-1156.0423129 963.52612262 -1156.03273004 959.61415206 -1156.02133518 955.70217395 C-1155.98938931 944.23552544 -1155.98362695 932.76883857 -1155.9780677 921.30215192 C-1155.97736947 920.02852802 -1155.97667125 918.75490413 -1155.97595187 917.44268557 C-1155.95996983 881.38417119 -1156.12507666 845.32625371 -1156.2826131 809.26815864 C-1156.2989398 805.52288113 -1156.3151015 801.77760292 -1156.33126138 798.03232469 C-1156.41174615 779.3823749 -1156.49377051 760.73243218 -1156.57706853 742.08249475 C-1156.69412021 715.87455429 -1156.80650592 689.666596 -1156.91675949 663.45862611 C-1156.93953044 658.04721428 -1156.9623454 652.63580264 -1156.985156 647.22439098 C-1156.9943369 645.04612953 -1157.00351758 642.86786808 -1157.01269805 640.68960662 C-1157.01725382 639.60866159 -1157.02180959 638.52771657 -1157.02650341 637.41401563 C-1157.0403507 634.12806477 -1157.05419332 630.84211388 -1157.06803531 627.556163 C-1157.17114723 603.08212636 -1157.27488593 578.60809242 -1157.37925178 554.1340611 C-1157.38399782 553.02066843 -1157.38874387 551.90727576 -1157.39363374 550.76014392 C-1157.54863347 514.40780802 -1157.70920944 478.05549887 -1157.8720887 441.70319751 C-1158.04049844 404.10798709 -1158.20214324 366.51275299 -1158.3556885 328.91747881 C-1158.37733814 323.61802191 -1158.39907131 318.31856535 -1158.42085868 313.01910901 C-1158.42514298 311.97661616 -1158.42942728 310.93412331 -1158.4338414 309.86003977 C-1158.50285845 293.11757813 -1158.57910834 276.37515694 -1158.65818631 259.63274012 C-1158.73722059 242.87105667 -1158.80896571 226.10935497 -1158.87316234 209.347608 C-1158.91149097 199.3999932 -1158.95553837 189.45244167 -1159.00773106 179.50488975 C-1159.04201202 172.86498871 -1159.0689049 166.2250844 -1159.08977249 159.58512772 C-1159.10187272 155.8026589 -1159.11720011 152.02027939 -1159.14155211 148.23786792 C-1159.16770872 144.16379287 -1159.17806591 140.08982899 -1159.18689376 136.0156796 C-1159.19696082 134.84378192 -1159.20702789 133.67188423 -1159.21740001 132.4644745 C-1159.21633981 126.50210351 -1158.80559278 121.00801432 -1157.44308414 115.19502474 C-1156.80645785 112.2984174 -1156.73129886 109.49235319 -1156.71421272 106.53298688 C-1156.69648811 105.34970807 -1156.6787635 104.16642926 -1156.66050178 102.94729352 C-1156.64471076 101.70584577 -1156.62891975 100.46439801 -1156.61265022 99.18533063 C-1156.03977704 75.26492269 -1154.97099588 49.1591749 -1138.98765022 30.12283063 C-1138.38179084 29.34423688 -1137.77593147 28.56564313 -1137.15171272 27.76345563 C-1123.9363338 11.59273881 -1103.95421463 4.79242281 -1083.79183036 2.56116986 C-1078.63743962 2.05730376 -1073.48166587 1.79398399 -1068.30826789 1.57424664 C-1066.80136355 1.51012885 -1066.80136355 1.51012885 -1065.26401669 1.44471574 C-1054.87651219 1.03379967 -1044.50180877 0.99668778 -1034.1077674 1.02517438 C-1031.9764554 1.02708669 -1029.84514292 1.02852058 -1027.71383029 1.02953076 C-1023.06359621 1.03265559 -1018.41338049 1.03891152 -1013.76315337 1.04752851 C-1006.63892698 1.0605157 -999.51470323 1.06689097 -992.39046752 1.07155257 C-988.89176263 1.07384439 -985.39305791 1.07636356 -981.89435321 1.07892346 C-980.82825867 1.0797023 -980.82825867 1.0797023 -979.74062686 1.08049688 C-972.23345452 1.08615054 -964.7262849 1.09415259 -957.21911467 1.10206908 C-922.94777351 1.13797622 -888.67642164 1.14931362 -854.40506336 1.15370083 C-851.48343992 1.15408271 -848.56181648 1.15451634 -845.64019305 1.15495229 C-766.07485946 1.16607902 -686.50985364 1.04727521 -606.94468147 0.90408063 C-605.40242567 0.90130804 -603.86016987 0.89853545 -602.31791407 0.89576286 C-564.57439954 0.82786687 -526.83089001 0.7573401 -489.08738187 0.68599279 C-428.29388243 0.57108425 -367.50037472 0.46063097 -306.70686117 0.3534505 C-304.40605827 0.3493939 -302.10525537 0.34533436 -299.80445248 0.3412748 C-212.87415858 0.18796116 -125.94385872 0.04181743 0 0 Z " fill="#F9ECE5" transform="translate(1407.9876502156258,-0.12283062934875488)"/>
<path d="M0 0 C9.72847781 -0.00113073 19.45695302 -0.0042656 29.18542983 -0.00874095 C43.39281451 -0.01525343 57.60018502 -0.01618681 71.80757111 -0.01148868 C76.47714888 -0.01006726 81.14671817 -0.01061813 85.81629533 -0.01332736 C107.55229575 -0.02426261 129.28789573 0.04927095 151.02150768 0.39524603 C153.08734868 0.42671946 155.15325833 0.45405261 157.21921629 0.47657681 C186.15462374 0.80829735 215.01766491 3.20503686 237.01234978 24.12283063 C257.73239601 45.53354506 259.23893891 74.38354497 259.08765191 102.70418859 C259.07412488 105.29280333 259.06752531 107.88136952 259.06227654 110.47001386 C259.05386419 114.40288934 259.04311284 118.33574834 259.03066033 122.2686131 C258.99579976 133.77077734 258.98566518 145.27296265 258.98109978 156.77517438 C258.98055093 158.08783214 258.98000207 159.40048989 258.97943658 160.75292516 C258.97144402 188.50288056 259.0956249 216.25216497 259.23109978 244.00173688 C259.23657704 245.12425776 259.2420543 246.24677864 259.24769753 247.40331531 C259.36009883 270.35135264 259.48058256 293.2993476 259.6031906 316.24733239 C259.65045474 325.09495742 259.69704411 333.94258588 259.74331683 342.79021615 C259.77041852 347.95376663 259.79806968 353.11731284 259.82715386 358.28085256 C259.8354035 359.75408155 259.8354035 359.75408155 259.8438198 361.25707275 C259.85382809 363.03604159 259.86396642 364.81500971 259.874304 366.59397668 C259.89101674 369.56981657 259.90600133 372.54566093 259.92055291 375.52151227 C259.92441918 376.29688297 259.92828545 377.07225367 259.93226887 377.87112045 C259.99650242 391.03179556 260.0185961 404.19189074 260.00689287 417.35270107 C259.98693126 443.13348185 260.08730248 468.91320274 260.21075386 494.69363284 C260.24020784 500.90158536 260.26831787 507.10954399 260.29652947 513.31750226 C260.33277579 521.2791952 260.3691054 529.24088769 260.40596193 537.20257783 C260.49351268 556.12564001 260.57777382 575.04871474 260.65970737 593.97180206 C260.66907877 596.13615502 260.67845869 598.30050794 260.68784054 600.46486086 C260.73873693 612.20846603 260.78947736 623.95207187 260.84018168 635.69567788 C260.88552881 646.19711231 260.93102006 656.6985461 260.97670525 667.19997907 C260.97995646 667.94772423 260.98320766 668.69546938 260.98655738 669.46587349 C261.09251568 693.82511611 261.20458859 718.18432638 261.31950692 742.54352822 C261.43809693 767.68876904 261.5499908 792.83403135 261.65365197 817.97933834 C261.66827839 821.52623861 261.68298431 825.07313854 261.69774026 828.62003827 C261.7006414 829.31787361 261.70354255 830.01570896 261.70653161 830.73469083 C261.75335195 841.94800998 261.80727622 853.16128417 261.86392854 864.37455749 C261.92057973 875.61569384 261.96974136 886.85684408 262.01169212 898.0980466 C262.03462659 904.18331154 262.06089768 910.26851492 262.09600991 916.35372281 C262.12806263 921.92075644 262.15077852 927.48774654 262.16601197 933.05485088 C262.1731844 935.0697117 262.18380818 937.08456377 262.1982065 939.09938592 C262.21725999 941.83554154 262.22379313 944.57145455 262.2272107 947.30766797 C262.23567342 948.09114736 262.24413614 948.87462674 262.2528553 949.68184793 C262.24151285 954.81545126 261.37891627 959.17373206 260.01234978 964.12283063 C259.69021543 967.11292327 259.69021543 967.11292327 259.66859978 970.00173688 C259.64040154 971.07657331 259.6122033 972.15140973 259.58315057 973.25881696 C259.55978631 974.38956647 259.53642205 975.52031598 259.51234978 976.68533063 C257.9527671 1029.44881575 257.9527671 1029.44881575 243.01234978 1049.12283063 C242.51219353 1049.78798688 242.01203728 1050.45314313 241.49672478 1051.13845563 C229.02422466 1066.51716937 210.27776412 1074.64187712 191.01234978 1077.12283063 C185.35228033 1077.57744418 179.68211387 1077.87774965 174.01234978 1078.18533063 C173.19910241 1078.22985364 172.38585503 1078.27437665 171.5479638 1078.32024884 C160.0544242 1078.93702611 148.58509109 1079.30961871 137.07484978 1079.31033063 C135.85861932 1079.31105573 134.64238885 1079.31178082 133.38930291 1079.31252789 C127.67887754 1079.27737101 122.01676787 1079.08611879 116.32265252 1078.64700055 C87.8421284 1076.56015077 59.2485183 1076.96687149 30.71156853 1076.99245954 C24.30198781 1076.99815549 17.892449 1076.99486525 11.4828698 1076.98888707 C6.44968397 1076.98522502 1.41650762 1076.98644554 -3.61667854 1076.98901486 C-5.97629773 1076.98966865 -8.33591787 1076.98891194 -10.69553596 1076.98653531 C-23.02345386 1076.97683469 -35.31980132 1077.13776106 -47.63863307 1077.62382245 C-61.7203858 1078.14015502 -75.7790491 1078.25876833 -89.86879951 1078.23635602 C-92.4375309 1078.23607502 -95.00626238 1078.2362409 -97.57499373 1078.23680711 C-103.10047446 1078.23733313 -108.62594317 1078.23423301 -114.15142089 1078.22857785 C-122.37291427 1078.22018815 -130.59440241 1078.21774638 -138.8158996 1078.21645352 C-152.68170774 1078.21413052 -166.54751006 1078.20730373 -180.41331512 1078.19799542 C-199.44906621 1078.18528067 -218.48481543 1078.1793233 -237.52057008 1078.17506206 C-246.44102544 1078.17305653 -255.36148073 1078.17072848 -264.28193599 1078.16831708 C-265.62144641 1078.16795556 -265.62144641 1078.16795556 -266.98801766 1078.16758674 C-288.20998273 1078.16178463 -309.43194628 1078.15283406 -330.65390998 1078.14333844 C-332.0446514 1078.14271797 -332.0446514 1078.14271797 -333.46348861 1078.14208497 C-350.33478669 1078.13455267 -367.20608464 1078.12676834 -384.07738258 1078.11892657 C-396.14586043 1078.11331841 -408.21433831 1078.10777597 -420.28281623 1078.10232282 C-421.19772276 1078.10190823 -422.1126293 1078.10149364 -423.05526027 1078.10106649 C-444.09027074 1078.0915522 -465.12528103 1078.08300837 -486.16029292 1078.07734418 C-487.05393696 1078.07710319 -487.947581 1078.07686219 -488.86830517 1078.0766139 C-497.81278783 1078.07422312 -506.75727052 1078.07199568 -515.70175328 1078.07000765 C-533.82358721 1078.0659468 -551.94541536 1078.05989 -570.06724578 1078.04766583 C-589.4192127 1078.03473662 -608.77117671 1078.02584234 -628.12314826 1078.02517438 C-628.89050532 1078.02514204 -629.65786237 1078.0251097 -630.44847267 1078.02507638 C-678.77155437 1078.0240261 -727.08600547 1078.29943053 -775.4065783 1078.82702506 C-776.41858324 1078.83806751 -777.43058817 1078.84910996 -778.47325992 1078.86048703 C-780.4765189 1078.88236432 -782.47977721 1078.90430387 -784.4830348 1078.92630823 C-811.60229366 1079.22233279 -838.72006058 1079.27127421 -865.84082681 1079.25715613 C-869.8675155 1079.25558325 -873.89420047 1079.25574396 -877.9208892 1079.25664639 C-878.61286576 1079.25679963 -879.30484232 1079.25695286 -880.01778787 1079.25711074 C-881.4273167 1079.25743074 -882.83684553 1079.25775496 -884.24637435 1079.25808333 C-897.02973597 1079.26084194 -909.81309006 1079.2578013 -922.59645043 1079.25228296 C-933.46350758 1079.24773825 -944.33055415 1079.248671 -955.19761115 1079.25320172 C-968.09811331 1079.25857835 -980.99860928 1079.26065331 -993.8991124 1079.25758946 C-995.27517627 1079.25727112 -996.65124013 1079.25695675 -998.02730399 1079.25664639 C-998.70303455 1079.25649212 -999.3787651 1079.25633784 -1000.07497234 1079.25617889 C-1004.74821454 1079.25532921 -1009.42145252 1079.25679282 -1014.09469444 1079.25912595 C-1020.35213477 1079.26203887 -1026.60955505 1079.25996705 -1032.86699325 1079.25423169 C-1035.13393271 1079.25292699 -1037.40087391 1079.25325836 -1039.66781265 1079.25549436 C-1051.127593 1079.26574845 -1062.56748889 1079.14045476 -1074.01948005 1078.69286847 C-1075.00132321 1078.65622748 -1075.98316638 1078.61958648 -1076.99476236 1078.58183515 C-1100.95353034 1077.53741733 -1121.76130369 1069.009551 -1138.13608772 1051.45095563 C-1156.01761953 1031.23296628 -1156.19117872 1000.81687037 -1156.0712879 975.24079734 C-1156.05919649 972.63989482 -1156.05362545 970.03903771 -1156.0493322 967.43811107 C-1156.0423129 963.52612262 -1156.03273004 959.61415206 -1156.02133518 955.70217395 C-1155.98938931 944.23552544 -1155.98362695 932.76883857 -1155.9780677 921.30215192 C-1155.97736947 920.02852802 -1155.97667125 918.75490413 -1155.97595187 917.44268557 C-1155.95996983 881.38417119 -1156.12507666 845.32625371 -1156.2826131 809.26815864 C-1156.2989398 805.52288113 -1156.3151015 801.77760292 -1156.33126138 798.03232469 C-1156.41174615 779.3823749 -1156.49377051 760.73243218 -1156.57706853 742.08249475 C-1156.69412021 715.87455429 -1156.80650592 689.666596 -1156.91675949 663.45862611 C-1156.93953044 658.04721428 -1156.9623454 652.63580264 -1156.985156 647.22439098 C-1156.9943369 645.04612953 -1157.00351758 642.86786808 -1157.01269805 640.68960662 C-1157.01725382 639.60866159 -1157.02180959 638.52771657 -1157.02650341 637.41401563 C-1157.0403507 634.12806477 -1157.05419332 630.84211388 -1157.06803531 627.556163 C-1157.17114723 603.08212636 -1157.27488593 578.60809242 -1157.37925178 554.1340611 C-1157.38399782 553.02066843 -1157.38874387 551.90727576 -1157.39363374 550.76014392 C-1157.54863347 514.40780802 -1157.70920944 478.05549887 -1157.8720887 441.70319751 C-1158.04049844 404.10798709 -1158.20214324 366.51275299 -1158.3556885 328.91747881 C-1158.37733814 323.61802191 -1158.39907131 318.31856535 -1158.42085868 313.01910901 C-1158.42514298 311.97661616 -1158.42942728 310.93412331 -1158.4338414 309.86003977 C-1158.50285845 293.11757813 -1158.57910834 276.37515694 -1158.65818631 259.63274012 C-1158.73722059 242.87105667 -1158.80896571 226.10935497 -1158.87316234 209.347608 C-1158.91149097 199.3999932 -1158.95553837 189.45244167 -1159.00773106 179.50488975 C-1159.04201202 172.86498871 -1159.0689049 166.2250844 -1159.08977249 159.58512772 C-1159.10187272 155.8026589 -1159.11720011 152.02027939 -1159.14155211 148.23786792 C-1159.16770872 144.16379287 -1159.17806591 140.08982899 -1159.18689376 136.0156796 C-1159.19696082 134.84378192 -1159.20702789 133.67188423 -1159.21740001 132.4644745 C-1159.21633981 126.50210351 -1158.80559278 121.00801432 -1157.44308414 115.19502474 C-1156.80645785 112.2984174 -1156.73129886 109.49235319 -1156.71421272 106.53298688 C-1156.69648811 105.34970807 -1156.6787635 104.16642926 -1156.66050178 102.94729352 C-1156.64471076 101.70584577 -1156.62891975 100.46439801 -1156.61265022 99.18533063 C-1156.03977704 75.26492269 -1154.97099588 49.1591749 -1138.98765022 30.12283063 C-1138.38179084 29.34423688 -1137.77593147 28.56564313 -1137.15171272 27.76345563 C-1123.9363338 11.59273881 -1103.95421463 4.79242281 -1083.79183036 2.56116986 C-1078.63743962 2.05730376 -1073.48166587 1.79398399 -1068.30826789 1.57424664 C-1066.80136355 1.51012885 -1066.80136355 1.51012885 -1065.26401669 1.44471574 C-1054.87651219 1.03379967 -1044.50180877 0.99668778 -1034.1077674 1.02517438 C-1031.9764554 1.02708669 -1029.84514292 1.02852058 -1027.71383029 1.02953076 C-1023.06359621 1.03265559 -1018.41338049 1.03891152 -1013.76315337 1.04752851 C-1006.63892698 1.0605157 -999.51470323 1.06689097 -992.39046752 1.07155257 C-988.89176263 1.07384439 -985.39305791 1.07636356 -981.89435321 1.07892346 C-980.82825867 1.0797023 -980.82825867 1.0797023 -979.74062686 1.08049688 C-972.23345452 1.08615054 -964.7262849 1.09415259 -957.21911467 1.10206908 C-922.94777351 1.13797622 -888.67642164 1.14931362 -854.40506336 1.15370083 C-851.48343992 1.15408271 -848.56181648 1.15451634 -845.64019305 1.15495229 C-766.07485946 1.16607902 -686.50985364 1.04727521 -606.94468147 0.90408063 C-605.40242567 0.90130804 -603.86016987 0.89853545 -602.31791407 0.89576286 C-564.57439954 0.82786687 -526.83089001 0.7573401 -489.08738187 0.68599279 C-428.29388243 0.57108425 -367.50037472 0.46063097 -306.70686117 0.3534505 C-304.40605827 0.3493939 -302.10525537 0.34533436 -299.80445248 0.3412748 C-212.87415858 0.18796116 -125.94385872 0.04181743 0 0 Z M-1099.89780647 49.29470563 C-1102.89898763 54.328945 -1104.65482537 60.12588156 -1105.61265022 65.87283063 C-1107.50936467 70.35597388 -1110.5029426 71.84607095 -1114.51108772 74.43923688 C-1119.77198088 78.01564848 -1123.34404885 82.93552007 -1124.98765022 89.12283063 C-1125.46462455 94.07202362 -1125.47029908 99.01992517 -1125.48824531 103.98789716 C-1125.50432679 105.49963401 -1125.52165326 107.01135805 -1125.54012483 108.52306759 C-1125.58645138 112.63163359 -1125.61422453 116.74013871 -1125.63840367 120.84888707 C-1125.66130455 124.34331755 -1125.69500159 127.83761 -1125.72883467 131.33194918 C-1125.83560818 142.36309415 -1125.90941168 153.394325 -1125.97219706 164.42579824 C-1125.98721664 167.04715952 -1126.00290703 169.6685159 -1126.01881486 172.28987193 C-1126.1566546 195.17046772 -1126.23201952 218.05108841 -1126.28473419 240.93202181 C-1126.30633721 250.25095017 -1126.33258858 259.56986426 -1126.35889547 268.88878033 C-1126.40581866 285.55492441 -1126.44923626 302.22107554 -1126.49033576 318.88723493 C-1126.52979149 334.88431164 -1126.57131377 350.88138104 -1126.61533576 366.87844586 C-1126.61806003 367.86859233 -1126.62078431 368.8587388 -1126.62359113 369.8788897 C-1126.63456367 373.86489595 -1126.64554306 377.85090218 -1126.65653327 381.83690838 C-1126.70441426 399.2197242 -1126.7507189 416.60254428 -1126.79670969 433.98536518 C-1126.80400452 436.73993611 -1126.8113267 439.49450696 -1126.81865269 442.2490778 C-1126.99169154 507.41607248 -1126.99522301 572.58044552 -1126.8113775 637.74741855 C-1126.80399775 640.36632413 -1126.79665457 642.9852298 -1126.78932291 645.60413551 C-1126.74310722 662.1092788 -1126.69642349 678.6144207 -1126.64831096 695.11955857 C-1126.63731361 698.8946564 -1126.62632084 702.66975425 -1126.61533576 706.44485211 C-1126.61260746 707.38229709 -1126.60987915 708.31974206 -1126.60706817 709.28559446 C-1126.56869986 722.49399839 -1126.53234192 735.70240644 -1126.49769686 748.91082065 C-1126.37977632 793.8535601 -1126.24208407 838.79613136 -1126.04511184 883.7386018 C-1126.01367357 890.92555749 -1125.98322391 898.11251141 -1125.9572776 905.29948926 C-1125.90787286 918.91931749 -1125.84434554 932.53878215 -1125.74166137 946.15832067 C-1125.71406232 949.89874921 -1125.69512027 953.63904671 -1125.68467361 957.37956166 C-1125.67270786 961.55874602 -1125.64270191 965.73737272 -1125.59719044 969.91632318 C-1125.58426179 971.37589584 -1125.57768662 972.83554404 -1125.578641 974.29517365 C-1125.58011777 984.53703836 -1124.40887755 993.68911662 -1118.86265022 1002.49783063 C-1116.15601028 1004.96911057 -1114.10417559 1006.04918314 -1110.86265022 1007.62283063 C-1107.39757241 1009.56204943 -1106.21513388 1010.45287873 -1104.92124397 1014.26345563 C-1104.50249969 1016.69691292 -1104.10846844 1019.13473565 -1103.73765022 1021.57595563 C-1102.07597091 1029.434314 -1096.67561534 1035.40101934 -1090.17124397 1039.87673688 C-1082.14099426 1044.45929441 -1074.66559692 1046.27481523 -1065.50360239 1046.25048113 C-1064.63345974 1046.25213191 -1063.7633171 1046.25378269 -1062.8668065 1046.25548349 C-1059.92495273 1046.25982804 -1056.98314854 1046.25700104 -1054.04129344 1046.25425839 C-1051.91219107 1046.2559071 -1049.783089 1046.25799295 -1047.65398744 1046.2604785 C-1041.76101162 1046.26606691 -1035.86805026 1046.26536877 -1029.97507263 1046.26370091 C-1023.57984323 1046.26297226 -1017.18461798 1046.26798697 -1010.78939033 1046.27227592 C-999.56668336 1046.27898634 -988.34398032 1046.28195418 -977.12127143 1046.28241086 C-965.07552345 1046.28291284 -953.02977884 1046.28555561 -940.98403198 1046.29081845 C-940.22401728 1046.29114859 -939.46400259 1046.29147872 -938.68095715 1046.29181886 C-935.58566328 1046.29316882 -932.49036941 1046.29453148 -929.39507555 1046.29591096 C-892.72522674 1046.31222459 -856.05537856 1046.31860104 -819.38552674 1046.32335883 C-801.1288285 1046.325741 -782.87213062 1046.32944427 -764.61543266 1046.33339593 C-706.06797148 1046.34606155 -647.52051031 1046.35684521 -588.97304778 1046.36023639 C-586.17401515 1046.36039863 -583.37498251 1046.36056419 -580.57594988 1046.36073077 C-574.96234173 1046.36106457 -569.34873358 1046.36139505 -563.73512542 1046.36172533 C-557.16279925 1046.36211223 -550.59047308 1046.36250184 -544.01814691 1046.36289639 C-542.13708561 1046.36300881 -540.25602432 1046.36312023 -538.37496303 1046.36323065 C-477.9608237 1046.36678014 -417.54669626 1046.38185814 -357.13256146 1046.40516839 C-313.72862877 1046.42190862 -270.32469832 1046.43738453 -226.92076236 1046.44190335 C-226.0282416 1046.44199684 -225.13572083 1046.44209032 -224.21615398 1046.44218664 C-204.62349982 1046.44420565 -185.03084569 1046.44536173 -165.43819143 1046.44571523 C-158.42755334 1046.4458514 -151.41691524 1046.4460604 -144.40627715 1046.44630848 C-142.66217206 1046.44637004 -140.91806697 1046.44642836 -139.17396187 1046.44648343 C-111.37557267 1046.44740347 -83.57719588 1046.45737444 -55.77881076 1046.47194092 C-27.77960642 1046.48655391 0.2195827 1046.49160063 28.21879019 1046.48352137 C32.08790077 1046.48240599 35.95701136 1046.48139533 39.82612199 1046.48044705 C40.58457517 1046.48025709 41.34302836 1046.48006712 42.12446497 1046.47987139 C54.134008 1046.47713771 66.14352288 1046.48447983 78.15305979 1046.49602042 C89.96226454 1046.50715891 101.77142631 1046.50734396 113.58063179 1046.49665024 C119.89777717 1046.49123969 126.21482462 1046.49060759 132.53196203 1046.50315896 C138.27921092 1046.51448299 144.02628204 1046.51198971 149.77352472 1046.49849188 C151.8394019 1046.49605691 153.90529271 1046.49864531 155.97115489 1046.50688836 C172.14175837 1046.5671676 187.60496342 1046.37844261 199.88734978 1034.27517438 C204.89243759 1028.18147997 206.89029967 1020.72520204 209.19984978 1013.31033063 C211.4426272 1009.36613587 213.921567 1008.10259897 217.72328728 1005.78689313 C223.29948416 1001.73320735 226.15029113 995.60130941 228.01234978 989.12283063 C228.33253805 985.77883865 228.33253805 985.77883865 228.32227105 982.17870831 C228.33142429 981.49633505 228.34057752 980.81396178 228.35000813 980.11091053 C228.3783198 977.80742721 228.39250752 975.50407838 228.40663689 973.20046735 C228.42393938 971.50964982 228.44199857 969.8188399 228.46073884 968.12803769 C228.51009327 963.40632945 228.54616559 958.68459727 228.5796575 953.96275306 C228.60244391 950.89379626 228.6288654 947.82489181 228.65649766 944.75597501 C229.2186088 882.26525267 229.34364872 819.77027532 229.52239428 757.27754447 C229.55919216 744.41802231 229.59857249 731.55851045 229.64003533 718.6990025 C229.64553476 716.99110248 229.65103355 715.28320245 229.65653169 713.57530242 C229.6606093 712.30869081 229.6606093 712.30869081 229.66476928 711.01649108 C229.66748449 710.17285824 229.67019969 709.3292254 229.67299718 708.46002793 C229.67570984 707.61722994 229.67842249 706.77443194 229.68121735 705.90609461 C229.96664737 617.09541094 230.16637245 528.28605193 229.63176868 356.0609425 C229.59027295 344.86763132 229.55173982 333.67431279 229.51503533 322.48098493 C229.26601552 240.37828051 229.26601552 240.37828051 228.57020992 158.27848148 C228.54048159 155.67238346 228.51170751 153.06627625 228.48305482 150.46016622 C228.38953961 142.11355047 228.2773425 133.76774394 228.12052834 125.422059 C228.04115521 121.12465599 227.9889864 116.8278517 227.95390213 112.52986783 C227.92577657 109.68226037 227.87722172 106.83524446 227.82369691 103.98801219 C227.7931367 102.04693657 227.7863731 100.10553062 227.78062123 98.16422296 C227.58309557 89.33495676 225.91120418 82.22550372 219.69594353 75.68533063 C218.9547326 75.16970563 218.21352166 74.65408063 217.44984978 74.12283063 C216.70606072 73.58658063 215.96227166 73.05033063 215.19594353 72.49783063 C213.07736306 71.06839209 213.07736306 71.06839209 210.79750603 70.25564313 C209.01234978 69.12283063 209.01234978 69.12283063 208.32484978 66.80251813 C208.22172478 65.87697125 208.11859978 64.95142438 208.01234978 63.99783063 C206.60053906 54.67501154 202.40933284 47.16345415 194.78969353 41.45876813 C182.28164511 33.41080036 169.51972051 33.69095073 155.1578061 33.73972058 C153.01542672 33.73598204 150.87304931 33.7309317 148.73067576 33.72469175 C142.83343493 33.71133746 136.93633582 33.71667177 131.03909123 33.72502524 C124.62710564 33.73082477 118.2151475 33.71928812 111.80316931 33.70996356 C100.56190549 33.6955076 89.32067751 33.69321843 78.07940644 33.69792295 C66.01885235 33.70292476 53.95832521 33.70143216 41.89777344 33.69204068 C41.13572809 33.6914522 40.37368273 33.69086372 39.58854508 33.69025741 C36.48479738 33.68784084 33.38104972 33.68538075 30.2773021 33.68286476 C-1.22527305 33.65736077 -32.72783109 33.65137749 -64.23041517 33.6532759 C-68.58299937 33.65353553 -72.93558357 33.6537742 -77.28816777 33.65399098 C-78.15269656 33.65403502 -79.01722535 33.65407906 -79.90795198 33.65412444 C-99.0672379 33.65498785 -118.22652114 33.65019646 -137.38580601 33.64430907 C-141.76055118 33.6429681 -146.13529636 33.64166822 -150.51004154 33.64036343 C-152.26580148 33.6398389 -154.02156142 33.63931431 -155.77732136 33.63878966 C-156.64761958 33.63852988 -157.51791781 33.63827009 -158.4145887 33.63800244 C-160.17495815 33.63747626 -161.9353276 33.63694859 -163.69569705 33.63641943 C-213.64645598 33.6214224 -263.59721277 33.61265357 -313.54797393 33.61737561 C-314.47293853 33.61746148 -315.39790313 33.61754734 -316.35089697 33.61763581 C-326.66526597 33.61859521 -336.97963496 33.61963342 -347.29400395 33.6206947 C-350.11706218 33.62098422 -352.94012041 33.6212737 -355.76317864 33.6215631 C-357.64676734 33.6217571 -359.53035603 33.6219526 -361.41394472 33.62214959 C-420.98475369 33.62836626 -480.55552204 33.61350268 -540.12632209 33.58083844 C-555.13736109 33.57261526 -570.14840012 33.56446532 -585.15943938 33.55673718 C-586.08371837 33.55626099 -587.00799736 33.55578479 -587.96028481 33.55529417 C-616.44443614 33.54070931 -644.9285841 33.53226285 -673.4127391 33.53017163 C-674.30693783 33.53010532 -675.20113656 33.530039 -676.12243222 33.52997067 C-695.7515676 33.52857666 -715.38070274 33.52868783 -735.00983812 33.53018076 C-742.03332264 33.53070288 -749.05680718 33.53112004 -756.08029172 33.53148893 C-757.82756214 33.53158215 -759.57483255 33.53168129 -761.32210297 33.53178638 C-789.16774236 33.53341172 -817.01335149 33.5205847 -844.85898303 33.5006286 C-872.9012419 33.48064959 -900.94345565 33.47691674 -928.98571699 33.49525434 C-932.86056849 33.49778816 -936.73542008 33.50015061 -940.61027175 33.50241208 C-941.36984589 33.50286246 -942.12942003 33.50331284 -942.91201156 33.50377687 C-954.93926175 33.51045532 -966.96643696 33.50036682 -978.99367444 33.4833007 C-990.82004538 33.4668717 -1002.6462937 33.46871222 -1014.47266003 33.48869906 C-1020.79891855 33.49887788 -1027.12490746 33.50110406 -1033.45114945 33.48137838 C-1039.20663908 33.46359376 -1044.96163161 33.46883099 -1050.71709624 33.49240677 C-1052.78589862 33.49685566 -1054.85474035 33.49293631 -1056.92350452 33.47959842 C-1073.38587677 33.3806526 -1088.97971359 35.32542855 -1099.89780647 49.29470563 Z " fill="#F9ECE5" transform="translate(1407.9876502156258,-0.12283062934875488)"/>
<path d="M0 0 C0.8711963 -0.00165078 1.7423926 -0.00330156 2.63998879 -0.00500236 C5.59146213 -0.009354 8.54288623 -0.00651772 11.49436092 -0.00377727 C13.62801933 -0.00542564 15.76167743 -0.00751133 17.89533502 -0.00999737 C23.80560921 -0.01559008 29.71586898 -0.01488687 35.62614498 -0.01321978 C42.03835818 -0.01249155 48.45056721 -0.01750485 54.86277866 -0.0217948 C66.11679596 -0.02868592 77.37081001 -0.03147317 88.62482929 -0.03192973 C100.70485931 -0.03243161 112.78488598 -0.03507337 124.86491489 -0.04033732 C126.00794007 -0.04083252 126.00794007 -0.04083252 127.17405666 -0.04133773 C130.27747331 -0.04268768 133.38088995 -0.04405035 136.48430659 -0.04542983 C173.25566997 -0.06174594 210.02703271 -0.06812021 246.79839909 -0.0728777 C265.10450305 -0.07525959 283.41060665 -0.0789628 301.71671033 -0.0829148 C360.41802374 -0.09558056 419.11933713 -0.10636427 477.82065189 -0.10975526 C480.62720339 -0.1099175 483.43375488 -0.11008306 486.24030638 -0.11024964 C491.86902555 -0.11058345 497.49774472 -0.11091393 503.12646389 -0.1112442 C509.71652894 -0.11163111 516.30659398 -0.11202071 522.89665903 -0.11241527 C524.78279977 -0.11252769 526.6689405 -0.1126391 528.55508123 -0.11274952 C589.13531308 -0.11629919 649.71553307 -0.13137783 710.2957604 -0.15468726 C753.81742491 -0.17142629 797.33908719 -0.1869029 840.86075497 -0.19142222 C842.2030191 -0.19156245 842.2030191 -0.19156245 843.57239968 -0.19170551 C863.2155164 -0.19372447 882.85863308 -0.19488059 902.5017499 -0.1952341 C909.53034294 -0.19537028 916.55893598 -0.19557927 923.58752901 -0.19582735 C925.33611453 -0.19588891 927.08470005 -0.19594723 928.83328556 -0.1960023 C956.70899625 -0.19692254 984.58469456 -0.20689584 1012.46040118 -0.22145979 C1040.53539738 -0.23606917 1068.6103784 -0.24112174 1096.68537774 -0.23304025 C1100.56395284 -0.23192485 1104.44252795 -0.23091419 1108.3211031 -0.22996593 C1109.46157858 -0.22968097 1109.46157858 -0.22968097 1110.62509397 -0.22939027 C1122.66986588 -0.22665533 1134.71460974 -0.23400272 1146.75937555 -0.24553929 C1158.59982887 -0.25667084 1170.44023932 -0.25686949 1182.28069336 -0.24616911 C1188.6159803 -0.24075416 1194.95116957 -0.24014042 1201.2864486 -0.25267783 C1207.04782986 -0.26398474 1212.80903361 -0.26152757 1218.57040861 -0.24801075 C1220.64364688 -0.2455716 1222.71689869 -0.24817884 1224.79012207 -0.25640723 C1240.06836081 -0.3130669 1253.65815857 0.25483168 1265.65767574 10.94405675 C1271.06980201 16.64406207 1274.68285931 23.41888555 1274.74361324 31.3776505 C1275.2025892 35.16199858 1275.2025892 35.16199858 1277.68501949 36.6745255 C1279.45765946 37.65727076 1281.24205719 38.61905455 1283.03658199 39.56124425 C1288.50752998 42.88023085 1291.56135917 48.19323278 1293.61861324 54.1276505 C1293.92909241 56.96206689 1293.92909241 56.96206689 1294.01413631 60.11466527 C1294.05013156 61.30759033 1294.0861268 62.50051539 1294.12321281 63.7295897 C1294.15206849 65.0266651 1294.18092417 66.32374049 1294.21065426 67.6601212 C1294.2474518 69.0494007 1294.28476717 70.43866656 1294.32256317 71.82791924 C1294.43834978 76.26084459 1294.53167528 80.69407507 1294.61861324 85.1276505 C1294.63251142 85.83116753 1294.6464096 86.53468456 1294.66072893 87.25952029 C1294.86560417 97.84106708 1295.00090405 108.42325536 1295.1172564 119.00610304 C1295.14672748 121.67797192 1295.17723515 124.3498277 1295.20782948 127.02168393 C1295.82508573 181.58856409 1295.94971497 236.15994017 1296.12865667 290.72964953 C1296.16536937 301.91725792 1296.20476441 313.10485392 1296.24629879 324.29244542 C1296.56244726 409.57775241 1296.75467371 494.86139749 1296.27926064 674.4648478 C1296.27654543 675.30848064 1296.27383022 676.15211348 1296.27103274 677.02131095 C1296.26695513 678.28792257 1296.26695513 678.28792257 1296.26279515 679.58012229 C1296.26007449 680.42524722 1296.25735382 681.27037214 1296.25455072 682.14110691 C1296.2490482 683.84996654 1296.24354201 685.55882616 1296.23803214 687.26768576 C1296.19662159 700.13018027 1296.1580996 712.99268109 1296.12129879 725.85518956 C1296.00497591 766.36293969 1295.86508227 806.87047521 1295.67607486 847.37795639 C1295.63188788 856.89846886 1295.5946152 866.41898663 1295.5602026 875.93954015 C1295.52172862 886.4212315 1295.46902999 896.90272281 1295.39489573 907.38422549 C1295.35899707 912.47266942 1295.32874002 917.56094652 1295.31563663 922.6495049 C1295.30363127 927.21125161 1295.27348442 931.77249005 1295.22815347 936.33402419 C1295.21514699 937.95204702 1295.20865565 939.57013924 1295.20960402 941.18821406 C1295.21106002 952.49227805 1294.162035 961.97755479 1286.32564449 970.64718175 C1284.49445614 972.23532908 1282.73727773 973.08841394 1280.55611324 974.1276505 C1275.70174793 976.89104631 1274.87716871 981.3699259 1273.40035152 986.39718175 C1270.32838325 996.78444915 1265.08411997 1002.87379458 1255.61861324 1008.1276505 C1247.89739034 1011.49871411 1240.22343814 1012.27751121 1231.88501775 1012.25645167 C1230.57578318 1012.25911418 1230.57578318 1012.25911418 1229.24009943 1012.26183048 C1226.30117326 1012.26657971 1223.36229598 1012.26419522 1220.4233675 1012.26187158 C1218.29163145 1012.26382426 1216.15989576 1012.26621301 1214.02816063 1012.26899955 C1208.13720413 1012.27541305 1202.24626124 1012.27556009 1196.35530191 1012.27472214 C1189.95879842 1012.27489137 1183.56229984 1012.28079449 1177.16579878 1012.285963 C1165.94398766 1012.29439175 1154.72217925 1012.29871476 1143.50036526 1012.30068898 C1131.45707047 1012.30281703 1119.41377932 1012.30707586 1107.37048626 1012.3139317 C1106.6103137 1012.31436232 1105.85014115 1012.31479293 1105.06693306 1012.31523659 C1101.97094597 1012.31699493 1098.87495889 1012.31876458 1095.77897182 1012.32054961 C1058.24043743 1012.34215091 1020.70190232 1012.35302828 983.16336313 1012.36202585 C970.99183668 1012.36495953 958.82031041 1012.36832938 946.64878416 1012.37199306 C945.79019761 1012.37225136 944.93161105 1012.37250965 944.04700673 1012.37277576 C940.57350957 1012.37382198 937.10001242 1012.37487041 933.62651527 1012.37592159 C874.21345141 1012.39388585 814.80038728 1012.40926549 755.38732109 1012.41668062 C750.72038058 1012.41726459 746.05344007 1012.41786186 741.38649956 1012.41845823 C740.46072268 1012.41857635 739.5349458 1012.41869447 738.58111508 1012.41881617 C729.20162359 1012.42001357 719.8221321 1012.42122233 710.44264061 1012.42244871 C708.56201867 1012.42269394 706.68139673 1012.4229378 704.8007748 1012.42318027 C644.39323762 1012.43097115 583.98571986 1012.45335736 523.57819117 1012.4858567 C480.17522118 1012.5091997 436.77225506 1012.53075274 393.36927891 1012.53786302 C392.47683885 1012.53801004 391.58439879 1012.53815706 390.66491509 1012.53830853 C371.07440685 1012.54149323 351.48389864 1012.54354421 331.89339018 1012.54453608 C324.01114463 1012.54495083 316.12889909 1012.54550572 308.24665356 1012.54609799 C307.38398684 1012.54615866 306.52132012 1012.54621933 305.63251198 1012.54628184 C277.83598577 1012.54829842 250.03948247 1012.56254113 222.24296425 1012.583043 C194.24827337 1012.60361783 166.25360898 1012.6115212 138.25891129 1012.60196523 C134.39098976 1012.60064676 130.5230682 1012.59946872 126.6551466 1012.59837461 C125.89692395 1012.59815476 125.13870129 1012.59793491 124.3575022 1012.5977084 C112.34883832 1012.59459337 100.3402251 1012.60492331 88.33157297 1012.62085015 C76.52497463 1012.63623045 64.71845204 1012.63702358 52.9118511 1012.62330192 C46.59542422 1012.61637536 40.27917187 1012.61583772 33.96276025 1012.63286201 C28.21733706 1012.64822159 22.47222933 1012.64519159 16.72681568 1012.62745173 C14.66049894 1012.62430008 12.59415833 1012.62786246 10.5278689 1012.63894347 C-3.84041392 1012.71098199 -16.95605338 1011.97405105 -28.38138676 1002.1276505 C-34.55401983 995.85875804 -38.2725635 988.78645999 -38.44388676 979.8776505 C-39.86375245 975.71271113 -43.068316 974.8043938 -46.80326176 972.744838 C-53.05394777 968.82395313 -55.81153897 963.00841263 -57.77146435 956.10538983 C-58.9714892 950.24667542 -58.85476006 944.32498145 -58.87333012 938.36764073 C-58.88879753 936.83126017 -58.90544853 935.29489118 -58.92314434 933.75853467 C-58.96864609 929.43761393 -58.99466473 925.11675357 -59.01735902 920.7956605 C-59.03976401 916.96797575 -59.07302646 913.14041051 -59.10585612 909.31280321 C-59.23062914 894.61837996 -59.30484965 879.92375794 -59.37179601 865.22897494 C-59.38159333 863.0823905 -59.39152275 860.9358067 -59.40147209 858.78922296 C-59.62728429 809.89546694 -59.77054936 761.00149077 -59.89879835 712.10739672 C-59.93355666 698.88814913 -59.97059954 685.66890926 -60.0090723 672.44967198 C-60.01179658 671.51345712 -60.01452085 670.57724226 -60.01732767 669.61265726 C-60.02830178 665.84300155 -60.03928126 662.07334586 -60.05026982 658.3036902 C-60.09815438 641.85925015 -60.14440984 625.41480545 -60.19044623 608.97036013 C-60.19773391 606.37138333 -60.20505714 603.77240664 -60.21238923 601.17342997 C-60.39615626 535.95422729 -60.37856945 470.7376268 -60.20511404 405.51842615 C-60.19774162 402.74503648 -60.19039718 399.97164673 -60.18305945 397.19825697 C-60.13687291 379.7520365 -60.09015019 362.30581752 -60.0420475 344.85960221 C-60.03104872 340.86749007 -60.02005613 336.87537792 -60.0090723 332.88326573 C-60.006344 331.89183258 -60.0036157 330.90039944 -60.00080471 329.87892286 C-59.95689697 313.89141314 -59.91616009 297.90389699 -59.87673414 281.91637566 C-59.83565646 265.28285329 -59.79146387 248.64934122 -59.74450821 232.01583439 C-59.718468 222.76520927 -59.69363157 213.51458504 -59.67231274 204.26394773 C-59.62868401 185.60293891 -59.56876188 166.94219634 -59.46203393 148.28142959 C-59.41253968 139.57564013 -59.37261669 130.86996606 -59.34990406 122.16406178 C-59.32811301 113.93994032 -59.28767563 105.71613176 -59.22619746 97.49220842 C-59.19437561 93.16848339 -59.17053 88.84509823 -59.16796124 84.52124846 C-59.16529657 80.5182711 -59.13926496 76.51611551 -59.09552272 72.51338266 C-59.08358623 71.05461948 -59.07995875 69.59575903 -59.08559243 68.1369579 C-59.1176149 58.1472841 -57.96416716 50.46554813 -51.31888676 42.72530675 C-50.67951176 42.21870519 -50.04013676 41.71210362 -49.38138676 41.1901505 C-48.74201176 40.66550206 -48.10263676 40.14085362 -47.44388676 39.60030675 C-45.38138676 38.1276505 -45.38138676 38.1276505 -42.79154301 36.9245255 C-39.38291007 34.38324324 -38.81078798 31.26485104 -37.81888676 27.3151505 C-35.42227674 18.12673399 -31.29763806 11.59636517 -23.38138676 6.1276505 C-15.53650975 2.25989745 -8.73736466 -0.02307196 0 0 Z M-27.38138676 17.1276505 C-30.97438121 22.16350099 -31.94609714 27.03359592 -32.38138676 33.1276505 C-31.47259769 33.21401769 -30.56380863 33.30038487 -29.62748051 33.38936925 C-14.68131572 35.06027383 1.44160743 38.54577506 11.68111324 50.4401505 C14.80361711 54.81756136 16.14383264 58.73889949 15.61861324 64.1276505 C13.80405826 69.2310864 10.2711548 70.84219149 5.61861324 73.1276505 C-0.82315372 75.54331311 -6.82147334 74.01819631 -12.89701176 71.385463 C-25.52795787 64.99055003 -31.66328362 54.50239042 -37.38138676 42.1276505 C-43.24921903 42.94290678 -45.79831122 45.60381942 -49.38138676 50.1276505 C-53.32117409 57.28526408 -53.96452521 64.01842214 -53.92517757 72.05815625 C-53.93530207 73.22115061 -53.94542657 74.38414497 -53.95585787 75.58238158 C-53.9797151 78.78234386 -53.9860047 81.98176109 -53.98451857 85.18179346 C-53.9872056 88.63476939 -54.01269737 92.08758954 -54.03524041 95.54048252 C-54.07576091 102.30154457 -54.09507315 109.06250957 -54.10732235 115.82367543 C-54.1226962 123.81875628 -54.16035202 131.8136925 -54.19823778 139.80869273 C-54.28399035 158.16184764 -54.33066712 176.51501741 -54.36673046 194.86832816 C-54.37750006 200.33044613 -54.38968279 205.79255902 -54.4030056 211.25467134 C-54.49879316 250.61982443 -54.52534053 289.98480654 -54.51669002 329.35006531 C-54.5143017 340.42110594 -54.51411652 351.49214512 -54.51520252 362.56318593 C-54.51527891 363.37126674 -54.51535529 364.17934755 -54.51543399 365.01191566 C-54.51574571 368.29827346 -54.51606415 371.58463126 -54.51639376 374.87098905 C-54.51940249 405.23917484 -54.51676165 435.6073576 -54.51129686 465.97554292 C-54.50655795 492.51062206 -54.50698111 519.0456964 -54.51175785 545.5807755 C-54.51720159 575.9169034 -54.51918757 606.25302866 -54.51614559 636.58915699 C-54.51582523 639.86759917 -54.51551236 643.14604135 -54.51520252 646.42448354 C-54.51512344 647.23077761 -54.51504437 648.03707169 -54.51496289 648.86779892 C-54.51393221 659.88544104 -54.51476993 670.90308139 -54.51719154 681.92072327 C-54.5261767 723.65650464 -54.4950094 765.39200917 -54.38138676 807.1276505 C-54.37925459 807.92274314 -54.37712243 808.71783577 -54.37492566 809.53702213 C-54.31833905 830.60554333 -54.24588979 851.67391199 -54.13486286 872.74222297 C-54.12622356 874.38423117 -54.11759302 876.02623941 -54.10897136 877.6682477 C-54.10472488 878.47588314 -54.10047839 879.28351859 -54.09610323 880.11562783 C-54.06721239 885.74667658 -54.04576386 891.37772297 -54.02764058 897.00881577 C-54.00563036 903.8081923 -53.97323222 910.60742092 -53.92727818 917.40667953 C-53.90409023 920.8746454 -53.8855384 924.34246698 -53.87971434 927.81050923 C-53.87075943 931.58433338 -53.84351167 935.3576012 -53.81165218 939.13129163 C-53.81329591 940.2236341 -53.81493964 941.31597658 -53.81663317 942.44142034 C-53.71722338 950.64853987 -52.74130583 958.38396393 -46.88138676 964.5651505 C-45.99966801 965.52227941 -45.99966801 965.52227941 -45.10013676 966.49874425 C-43.27360454 968.32209414 -43.27360454 968.32209414 -40.38138676 970.1276505 C-38.26592086 970.16523364 -38.26592086 970.16523364 -36.38138676 969.1276505 C-35.26902188 967.11894014 -35.26902188 967.11894014 -34.56888676 964.6276505 C-32.77644259 959.63031617 -30.28550946 956.0680608 -26.86966801 952.03780675 C-25.18508302 950.09477346 -25.18508302 950.09477346 -24.38138676 947.1276505 C-22.56107426 946.0964005 -22.56107426 946.0964005 -20.38138676 945.1276505 C-19.08173879 944.3068202 -17.79011653 943.47315927 -16.50638676 942.6276505 C-10.71634859 939.00620597 -5.2845666 937.15537165 1.61861324 938.1276505 C6.79425774 939.49950808 10.59817472 941.01002736 14.24361324 945.0026505 C16.05650335 949.12285529 16.4053691 951.7231279 14.99361324 956.03780675 C10.92109074 965.47369595 3.02669794 969.90334916 -6.08060551 973.84249425 C-14.43981988 977.09714695 -22.43623382 978.62589144 -31.38138676 979.1276505 C-30.98259163 987.74162527 -29.02619313 993.94737517 -22.63138676 999.9401505 C-15.27969554 1006.44238159 -7.12807433 1006.5593754 2.18903255 1006.49514318 C3.44939392 1006.49841325 4.70975529 1006.50168333 6.00830942 1006.50505251 C9.50255785 1006.51368762 12.99653932 1006.5036446 16.4907645 1006.49051194 C20.28705296 1006.4795468 24.08331842 1006.48600333 27.87961483 1006.4902308 C35.38564633 1006.49584753 42.89157633 1006.48538126 50.39759057 1006.46989332 C59.32358801 1006.45219595 68.2495655 1006.45144005 77.17557759 1006.45122153 C94.54256306 1006.45020597 111.90949765 1006.43184819 129.27646256 1006.40640879 C144.50729262 1006.38420524 159.73811121 1006.36931764 174.96895504 1006.36083531 C177.01486981 1006.35967443 179.06078458 1006.35851267 181.10669935 1006.35735005 C184.18371557 1006.3556066 187.26073179 1006.35386335 190.33774801 1006.35213089 C268.62049059 1006.30734026 346.90286071 1006.16732786 425.18501949 1005.85811925 C426.32183433 1005.8536378 426.32183433 1005.8536378 427.48161513 1005.84906581 C452.74422837 1005.74940418 478.00682071 1005.64449166 503.26940113 1005.53684411 C573.37111481 1005.23816484 643.46857061 1005.05517495 760.69738748 1005.53701218 C784.53569311 1005.64705513 808.37402072 1005.75248695 832.21236324 1005.854213 C832.90550073 1005.85717596 833.59863822 1005.86013892 834.31277987 1005.86319166 C908.39775701 1006.17949977 982.48306105 1006.34350798 1056.56867599 1006.40567803 C1060.50138826 1006.40901374 1064.43410049 1006.41237998 1068.36681271 1006.41576695 C1069.33707356 1006.41659197 1070.30733441 1006.41741699 1071.30699711 1006.418267 C1085.90441562 1006.43097628 1100.50178316 1006.45529823 1115.09917355 1006.48626256 C1131.67256609 1006.52141841 1148.24590702 1006.54276954 1164.8193382 1006.54537702 C1174.17851757 1006.54725436 1183.53753171 1006.56020413 1192.8966691 1006.58854477 C1199.19432614 1006.60647408 1205.49188173 1006.6097152 1211.7895581 1006.60112532 C1215.38871984 1006.59662383 1218.98757077 1006.59844435 1222.58668935 1006.61793816 C1226.4721093 1006.6388195 1230.3570989 1006.62858803 1234.24256039 1006.61539769 C1235.919627 1006.63185135 1235.919627 1006.63185135 1237.63057375 1006.64863741 C1246.30839328 1006.57740765 1253.71488886 1004.86458147 1260.43111324 999.1276505 C1264.54038019 994.62795438 1267.03544582 988.97382604 1268.61861324 983.1276505 C1268.25131291 980.31634212 1268.25131291 980.31634212 1266.61861324 978.1276505 C1264.53707389 977.99229028 1262.45300119 977.89549585 1260.36861324 977.8151505 C1249.02304775 977.0533933 1239.61818024 974.12731372 1230.61861324 967.1276505 C1230.03208981 966.70354894 1229.44556637 966.27944737 1228.84126949 965.84249425 C1224.43966271 962.4955512 1222.06580949 959.21827345 1221.26705074 953.697963 C1221.01714232 949.26537671 1221.08265841 946.89098011 1223.68111324 943.1901505 C1229.32478598 939.22757177 1234.66734541 936.99198556 1241.61861324 938.1276505 C1252.46005458 941.40529556 1261.89436415 947.83483444 1267.59566402 957.84273839 C1268.54936 959.69566863 1269.46695579 961.56137499 1270.36861324 963.4401505 C1270.68443356 964.08532628 1271.00025387 964.73050206 1271.32564449 965.39522862 C1272.09553032 966.96999509 1272.85786215 968.5484509 1273.61861324 970.1276505 C1279.4193671 969.36019681 1281.99240617 966.49884566 1285.61861324 962.1276505 C1289.36713607 955.88011245 1289.78271061 950.05781892 1289.93501949 942.901088 C1289.95364229 942.08967225 1289.97226509 941.2782565 1289.99145222 940.4422524 C1290.51900115 916.45834754 1290.66115518 892.48857236 1290.61936283 868.50026631 C1290.55232188 828.35717152 1290.67892615 788.21518827 1290.84385135 748.07254165 C1290.90660161 732.77679274 1290.9660121 717.48103015 1291.02535152 702.18526769 C1291.03017253 700.94267423 1291.03017253 700.94267423 1291.03509094 699.67497787 C1291.39017321 608.03376684 1291.71603542 516.39207473 1291.26931222 310.84951337 C1291.24932763 304.6848904 1291.22996426 298.52026572 1291.21094799 292.3556397 C1291.07365728 247.92567087 1290.89974965 203.49606736 1290.65127896 159.06657352 C1290.62597383 154.51812136 1290.60218824 149.96966304 1290.57910824 145.42119908 C1290.50933365 131.73649054 1290.42580527 118.05204654 1290.31341839 104.36761785 C1290.28160257 100.4483126 1290.25609206 96.52905371 1290.23664379 92.60966802 C1290.21438206 88.19467329 1290.17838637 83.78001973 1290.13081503 79.36522698 C1290.11616917 77.79948723 1290.10632642 76.23369298 1290.10197115 74.66789079 C1290.16074539 60.36999754 1290.16074539 60.36999754 1284.24361324 47.6901505 C1280.86228359 44.38932869 1278.44576664 42.1276505 1273.61861324 42.1276505 C1273.01726559 43.46956456 1273.01726559 43.46956456 1272.40376949 44.838588 C1266.72433641 57.09161215 1259.88408085 65.85722147 1247.61861324 72.1276505 C1246.59767574 72.69032628 1246.59767574 72.69032628 1245.55611324 73.26436925 C1240.12805054 75.68292138 1233.99034003 74.07613281 1228.66939449 72.10030675 C1225.50682212 70.60034385 1223.6728588 68.95223814 1221.61861324 66.1276505 C1220.38285423 61.95696385 1220.43181519 59.71917767 1221.74361324 55.5651505 C1227.25763391 45.45611261 1236.82932464 39.86173586 1247.55611324 36.1901505 C1254.07043121 34.48791666 1260.92102416 34.38662394 1267.61861324 34.1276505 C1269.55622064 28.75519363 1266.81426926 24.0731377 1264.61861324 19.1276505 C1261.46823432 12.93075131 1256.93316551 9.86132071 1250.61861324 7.1276505 C1247.11534826 6.01380387 1243.84613445 6.00339851 1240.1827634 6.00460267 C1239.53437854 6.00344882 1238.88599368 6.00229496 1238.21796079 6.00110614 C1236.03174737 5.99844758 1233.84560684 6.00295791 1231.65939713 6.00739598 C1230.07449918 6.00695993 1228.48960131 6.00608426 1226.90470383 6.00480735 C1222.52160311 6.00256061 1218.13852662 6.00659268 1213.75542899 6.01158567 C1208.99451022 6.01590948 1204.23359281 6.01443501 1199.47267264 6.01367402 C1191.11453095 6.01313973 1182.75639701 6.01632507 1174.39825726 6.02190328 C1161.96044474 6.03018023 1149.52263574 6.03272364 1137.08482077 6.03402761 C1116.11922868 6.03636856 1095.15364036 6.04323736 1074.18805027 6.0524857 C1045.3730235 6.06513283 1016.55799797 6.07114321 987.74296888 6.07541907 C974.2741294 6.07742622 960.80528998 6.07975214 947.33645058 6.08216405 C946.66215255 6.08228433 945.98785453 6.08240461 945.29312323 6.08252854 C913.15208616 6.08827801 881.01105007 6.09704175 848.8700139 6.1065145 C846.7373385 6.10714288 844.6046631 6.10776969 842.4719877 6.10839616 C816.18419541 6.11612254 789.89640321 6.12412182 763.60861103 6.13220434 C746.7878176 6.13737581 729.96702416 6.14249636 713.14623069 6.1475315 C711.05400621 6.14815814 708.96178172 6.14878631 706.86955724 6.14941464 C675.10170129 6.15894412 643.33384544 6.16749 611.56598854 6.17313695 C610.88986829 6.1732576 610.21374803 6.17337826 609.51713929 6.17350257 C595.97059382 6.17591548 582.42404833 6.17818963 568.87750279 6.18017772 C540.79442208 6.18430281 512.71134473 6.19027673 484.62826633 6.20281529 C455.282357 6.21578829 425.9364495 6.22476151 396.59053707 6.22530675 C395.424193 6.22533133 394.25784894 6.2253559 393.05616111 6.22538123 C310.19940139 6.2258894 227.34739678 5.90148052 144.49267561 5.33578146 C109.84741453 5.0996225 75.20201832 4.97359304 40.55611324 4.8776505 C39.21866583 4.87392469 37.88121842 4.87019812 36.54377101 4.86647081 C24.30431953 4.83245437 12.06486592 4.79974941 -0.17459965 4.77120519 C-1.0391444 4.76714805 -1.90368916 4.76309091 -2.79443224 4.75891083 C-13.34154867 4.76482897 -20.3532392 9.48998219 -27.38138676 17.1276505 Z " fill="#121010" transform="translate(341.381386756897,33.87234950065613)"/>
<path d="M0 0 C3.60206587 0.01920322 7.2041606 0.02624749 10.8062644 0.03492796 C17.8361549 0.05373143 24.86595752 0.08342641 31.89579149 0.11696867 C40.11399983 0.1557558 48.3322351 0.18343798 56.55048822 0.21075573 C71.23657034 0.2599428 85.92259607 0.31897711 100.60861731 0.38368285 C114.79642233 0.44618412 128.9842318 0.50182809 143.17209387 0.54969847 C144.48182896 0.55411903 144.48182896 0.55411903 145.81802334 0.55862889 C146.68980094 0.56157022 147.56157855 0.56451155 148.45977366 0.56754202 C164.69536865 0.62235602 180.93093614 0.68318482 197.16649792 0.7470485 C202.86773167 0.76936037 208.56897 0.79002668 214.2702117 0.8101908 C221.24198115 0.83498554 228.21372678 0.86336379 235.18546458 0.89588932 C238.72898705 0.91236566 242.27249989 0.92756803 245.81604338 0.93874991 C262.27302926 0.99418572 278.68305283 1.33874344 295.12465715 2.05177307 C300.6132582 2.27999736 306.10382627 2.41137354 311.59567785 2.53529418 C312.75579382 2.56309462 313.91590979 2.59089507 315.11118078 2.61953795 C317.56886294 2.67819577 320.02656533 2.73601199 322.48428679 2.79299986 C326.40460475 2.88394446 330.32486163 2.97730539 334.24510717 3.07130492 C342.56967553 3.27051221 350.89431814 3.46651768 359.21896887 3.6622473 C368.21516883 3.87383085 377.21135018 4.08612344 386.20745474 4.30173028 C390.68361387 4.40889047 395.15983129 4.5133371 399.63606787 4.61720335 C406.68499344 4.78307937 413.73325645 4.96863599 420.78146887 5.1622473 C422.00246912 5.19410124 423.22346937 5.22595519 424.48146963 5.2587744 C428.13658283 5.35718134 431.79112533 5.46796353 435.44577551 5.58216918 C436.53952458 5.61030951 437.63327366 5.63844985 438.76016665 5.66744292 C444.52394162 5.86172757 449.94442523 6.409193 455.56911898 7.70470488 C459.3173163 8.47988031 463.09061535 8.62487055 466.90646887 8.7872473 C467.67217199 8.82591918 468.43787512 8.86459105 469.22678137 8.9044348 C471.07802452 8.99699696 472.92971155 9.08061531 474.78146887 9.1622473 C474.78146887 9.4922473 474.78146887 9.8222473 474.78146887 10.1622473 C462.56430492 10.18580842 450.3471467 10.20337847 438.12996435 10.21405947 C432.45210462 10.21919545 426.77426083 10.22611526 421.09641027 10.23768675 C394.77127443 10.28988231 368.48013621 10.12486349 342.16584826 9.34625781 C259.86922789 6.91746849 177.44539242 7.06791105 95.11872125 7.04013389 C90.45710888 7.03852063 85.79550019 7.03561133 81.13388944 7.03142422 C40.67140933 6.99540387 0.23612218 7.31563408 -40.21853113 8.1622473 C-39.91366785 8.77036253 -39.60880457 9.37847777 -39.29470301 10.00502074 C-32.69516085 23.23404853 -28.54851461 35.91092186 -32.05837488 50.7013098 C-36.41328124 62.98889071 -43.96577481 73.14112698 -55.50759363 79.4044348 C-63.85780059 83.33563189 -71.75801688 84.55150395 -80.90603113 84.5372473 C-81.87266687 84.53708617 -82.83930262 84.53692503 -83.83523035 84.53675902 C-93.18242177 84.38819232 -100.8540849 82.38982116 -109.21853113 78.1622473 C-109.21760934 79.40350119 -109.21668755 80.64475508 -109.21573782 81.92362273 C-109.19394277 111.5826928 -109.17752277 141.24176102 -109.1674658 170.90083715 C-109.16621553 174.57456242 -109.16492117 178.24828768 -109.16359949 181.92201293 C-109.16333718 182.65319297 -109.16307487 183.38437302 -109.16280461 184.13771003 C-109.15848772 195.87976824 -109.1506228 207.6218214 -109.14137834 219.36387664 C-109.13192978 231.46876232 -109.12645221 243.57364541 -109.12444264 255.67853463 C-109.12320971 262.453847 -109.12018934 269.22914737 -109.11280107 276.00445616 C-109.06235346 324.61328653 -109.06235346 324.61328653 -109.48860514 346.09857714 C-109.51998256 347.72205696 -109.54746836 349.34561871 -109.57026136 350.96924174 C-109.74376528 362.58128756 -111.17671876 373.73355017 -113.21853113 385.1622473 C-116.23633079 382.14444764 -115.6907073 378.64465866 -115.83767176 374.58070433 C-115.87530886 373.68694153 -115.91294596 372.79317873 -115.95172358 371.87233222 C-116.37562254 360.73936307 -116.34428461 349.60603847 -116.31228113 338.4669348 C-116.30942696 336.53019424 -116.30658362 334.59345364 -116.30412674 332.65671253 C-116.29021727 322.15851128 -116.25525654 311.66038957 -116.21853113 301.1622473 C-116.2150139 300.150281 -116.21149668 299.13831469 -116.20787287 298.09568274 C-116.08480921 262.88941731 -115.93150171 227.68328419 -115.77314997 192.47716272 C-115.73007541 182.89546833 -115.68769891 173.31377102 -115.64577723 163.73207152 C-115.64279023 163.04940341 -115.63980323 162.3667353 -115.63672572 161.66338028 C-115.62173234 158.23588698 -115.60675015 154.80839364 -115.59177351 151.38090026 C-115.46909304 123.30800817 -115.34446889 95.23512496 -115.21853113 67.1622473 C-113.23853113 66.6672473 -113.23853113 66.6672473 -111.21853113 66.1622473 C-110.95942957 66.76939574 -110.70032801 67.37654418 -110.43337488 68.00209105 C-107.59942871 73.04123006 -101.57214799 75.26481319 -96.28103113 76.9747473 C-82.89263502 80.22887136 -67.80929226 79.15043159 -55.78103113 72.2872473 C-47.43173373 66.84089541 -40.69224872 58.97768636 -38.21853113 49.1622473 C-36.82706348 35.24612286 -37.27037663 22.34068921 -46.28103113 11.0372473 C-48.36434191 8.71732782 -50.37893739 7.44464448 -53.21853113 6.1622473 C-53.21853113 5.5022473 -53.21853113 4.8422473 -53.21853113 4.1622473 C-36.91359838 -1.98856247 -17.0965799 -0.10217867 0 0 Z " fill="#0E0C0C" transform="translate(417.2185311317444,47.83775269985199)"/>
<path d="M0 0 C3.26739113 0.0495091 6.53475704 0.09011462 9.80230522 0.12745285 C44.84171086 0.5459775 44.84171086 0.5459775 51.11499023 3.68261719 C50.01854638 6.37388848 48.9118531 7.88026413 46.80249023 9.93261719 C38.22596561 18.70859588 36.6800101 28.17513068 36.67675781 40.04272461 C36.83058087 47.43504062 38.36630246 53.25032841 42.11499023 59.68261719 C42.63899414 60.68808594 42.63899414 60.68808594 43.17358398 61.71386719 C48.20748197 70.12213635 58.44978718 74.52091825 67.52124023 77.02636719 C81.2446081 79.53237349 94.07563477 77.78013022 106.33764648 71.06152344 C108.38172396 69.47567871 109.14314708 68.05431733 110.11499023 65.68261719 C111.10499023 65.68261719 112.09499023 65.68261719 113.11499023 65.68261719 C113.85867243 105.50899112 114.26954327 145.31879515 114.24931574 185.1531899 C114.24777103 189.17531856 114.24789028 193.1974434 114.248806 197.21957207 C114.24903585 198.24076719 114.24903585 198.24076719 114.24927034 199.28259252 C114.24959022 200.66759448 114.24991443 202.05259644 114.25024293 203.4375984 C114.25303914 216.16967393 114.24989904 228.90174204 114.24444257 241.63381635 C114.23992072 252.52467998 114.24080522 263.41553302 114.24536133 274.30639648 C114.25071179 287.10130325 114.2528254 299.89620378 114.24974906 312.69111151 C114.24943061 314.05179465 114.24911624 315.41247779 114.248806 316.77316093 C114.24865172 317.44199589 114.24849745 318.11083086 114.2483385 318.79993354 C114.2474791 323.48664545 114.24897263 328.17335211 114.25128555 332.86006355 C114.25416673 339.12754807 114.25218413 345.39501233 114.2463913 351.66249466 C114.24506827 353.95792164 114.24545007 356.25335032 114.24765396 358.54877663 C114.25038144 361.67654827 114.24696558 364.80425462 114.24197388 367.93202209 C114.2442046 368.84041763 114.24643532 369.74881316 114.24873364 370.68473583 C114.23493262 375.1327136 114.01625418 379.30401463 113.11499023 383.68261719 C97.08619993 359.63943173 107.96531531 293.18091489 107.98066473 265.11827135 C107.98324704 258.89447014 107.98083571 252.67067019 107.97927856 246.4468689 C107.97747769 236.0410739 107.97981198 225.63528609 107.98461914 215.22949219 C107.98949082 204.56119242 107.98949982 193.89290806 107.98461914 183.22460938 C107.97925998 171.50546089 107.97727719 159.78631911 107.9802314 148.06716955 C107.98178392 141.89703746 107.98201531 135.72691333 107.97869492 129.55678177 C107.97580215 123.78287524 107.97781768 118.00899061 107.98358917 112.23508644 C107.98490737 110.12357812 107.98453868 108.01206795 107.98232651 105.90056038 C107.97957904 103.011614 107.98303935 100.12273716 107.98800659 97.23379517 C107.98577587 96.40696311 107.98354515 95.58013105 107.98124683 94.72824347 C108.0002617 88.99717478 108.45630145 83.37457257 109.11499023 77.68261719 C108.22038086 78.02035156 107.32577148 78.35808594 106.40405273 78.70605469 C88.51926166 85.30321643 72.85047898 87.27983707 54.98999023 79.05761719 C43.45219033 72.92627326 35.33157916 64.08343645 31.23999023 51.62011719 C27.88380607 37.43169789 29.66892098 23.96501362 37.20629883 11.49487305 C37.74999115 10.59385361 38.29368347 9.69283417 38.85385132 8.76451111 C39.47811508 7.73397362 39.47811508 7.73397362 40.11499023 6.68261719 C-99.01814012 6.43191949 -99.01814012 6.43191949 -238.14876556 7.08833694 C-241.73501233 7.1198972 -245.32126981 7.14987472 -248.90753174 7.17965698 C-254.42173323 7.22631489 -259.93585629 7.27833367 -265.4499588 7.335495 C-267.37792154 7.35530248 -269.30589488 7.37411515 -271.23387909 7.39170837 C-281.65268263 7.48992565 -292.03794762 7.78821749 -302.44396782 8.31912804 C-309.69441499 8.6871386 -316.93828012 8.89345176 -324.19750977 8.99902344 C-325.49264999 9.01984985 -326.78779022 9.04067627 -328.12217712 9.06213379 C-331.6423835 9.11754381 -335.16264639 9.16730042 -338.68296432 9.21504593 C-340.91065711 9.24546743 -343.13832672 9.27729378 -345.36599731 9.30929565 C-388.20275098 9.91534163 -431.04518744 9.77704453 -473.88500977 9.68261719 C-473.88500977 9.02261719 -473.88500977 8.36261719 -473.88500977 7.68261719 C-472.4035144 7.60744873 -472.4035144 7.60744873 -470.89208984 7.53076172 C-467.01298994 7.33377514 -463.13393203 7.1359703 -459.25488281 6.93798828 C-457.61622128 6.85445174 -455.97755025 6.77110128 -454.33886719 6.68798828 C-452.75043658 6.60739769 -451.1620226 6.52647901 -449.57362366 6.44526672 C-447.81816476 6.35567703 -446.06265812 6.2670197 -444.30711365 6.17912292 C-439.2495148 5.92209511 -434.19411006 5.64412875 -429.1396656 5.33062458 C-402.62963771 3.69070931 -376.13058212 3.11602594 -349.57659912 2.67645264 C-340.59548214 2.52672139 -331.61455631 2.36619392 -322.63365746 2.2039814 C-319.56687096 2.1497777 -316.50004245 2.09934576 -313.43318176 2.04954529 C-304.66009359 1.89983623 -295.8980193 1.69949238 -287.13202286 1.30918884 C-268.34816458 0.48292506 -249.56227223 0.45885555 -230.76367879 0.37929416 C-225.69606975 0.35695952 -220.62848629 0.32977385 -215.56089783 0.30323792 C-207.03247271 0.25924956 -198.5040374 0.21845866 -189.97558594 0.17993164 C-181.33494648 0.14088764 -172.69432427 0.09938944 -164.05371094 0.05493164 C-162.99561484 0.04948766 -161.93751874 0.04404369 -160.84735912 0.03843474 C-158.71824193 0.02747375 -156.58912474 0.01651214 -154.46000755 0.00554991 C-37.7123984 -0.59286291 -37.7123984 -0.59286291 0 0 Z " fill="#0F0E0D" transform="translate(1502.885009765625,48.3173828125)"/>
<path d="M0 0 C4.2991221 4.2991221 3.29202548 13.1274226 3.52758789 18.94580078 C3.56892632 19.9429265 3.61026476 20.94005222 3.65285587 21.96739388 C4.16450693 35.16688473 4.35608807 48.37340344 4.52869725 61.580832 C4.55922907 63.91577406 4.59081835 66.2507005 4.6224041 68.58562851 C5.20845347 112.67219493 5.11636495 156.76231084 5.07202756 200.85179687 C5.06055516 212.46860579 5.05527906 224.08541555 5.05032361 235.70222878 C5.04005694 259.46815882 5.02263877 283.23407874 5 307 C6.23404823 306.48095848 6.23404823 306.48095848 7.49302673 305.95143127 C8.57290359 305.4989653 9.65278046 305.04649933 10.76538086 304.58032227 C11.83557968 304.13116959 12.9057785 303.68201691 14.00840759 303.21925354 C26.9449442 297.94683808 40.38607586 298.6872222 53.3359375 303.45703125 C65.46283445 308.56377357 74.53271868 316.40494977 80.03515625 328.484375 C84.84245915 341.01839552 84.29549715 354.2490218 79.58203125 366.68359375 C78.30941335 369.35137794 76.97548387 371.72047363 75.40112305 374.20727539 C74.72644234 375.27613731 74.72644234 375.27613731 74.03813171 376.36659241 C73.69554825 376.90561691 73.35296478 377.44464142 73 378 C207.48648648 378.25940869 207.48648648 378.25940869 341.97026443 377.59428024 C345.33448754 377.56287815 348.69872098 377.53285578 352.06295776 377.50296021 C371.64807972 377.32500778 391.21821452 377.06732961 410.79229736 376.36782837 C425.7491211 375.84199769 440.70969017 375.65000679 455.67396164 375.46757126 C458.16376649 375.43702438 460.65355364 375.40525476 463.14334106 375.37332153 C504.09455294 374.85450095 545.0463406 374.89775554 586 375 C586 375.33 586 375.66 586 376 C570.20149104 377.45560616 554.40290398 378.66904898 538.5625 379.5625 C536.8624028 379.65963287 536.8624028 379.65963287 535.12796021 379.75872803 C510.11074134 381.15367863 485.09359142 381.49232622 460.04321289 381.70922852 C458.53459653 381.72315477 457.02598039 381.73710594 455.5173645 381.75108337 C452.73121358 381.77674511 449.94513309 381.79608697 447.15890503 381.81080627 C439.95799179 381.86994482 432.84142662 382.1923372 425.66316223 382.75158691 C418.60932279 383.22993483 411.54350264 383.36180162 404.4765625 383.52734375 C403.64060169 383.54776167 402.80464088 383.56817959 401.94334793 383.58921623 C380.42309503 384.11176721 358.90037952 384.36709922 337.375 384.5625 C336.28510143 384.57254562 335.19520287 384.58259125 334.07227707 384.59294128 C285.30103069 385.037608 236.52779532 385.17131181 187.75476265 385.23519701 C180.63871131 385.24520389 173.52270421 385.26284083 166.40667725 385.28372192 C157.60821749 385.30931364 148.80982168 385.32336202 140.01132351 385.32383865 C135.46525187 385.32432084 130.91931942 385.32932761 126.37328148 385.34760094 C109.42626974 385.41207032 92.58896219 385.28160617 75.70678711 383.66699219 C73.80803628 383.49234373 73.80803628 383.49234373 71.87092686 383.31416702 C70.72471835 383.18992733 69.57850985 383.06568764 68.39756775 382.93768311 C67.39746642 382.82979839 66.39736509 382.72191368 65.36695766 382.61075974 C63 382 63 382 61 379 C61.51949219 378.6596875 62.03898437 378.319375 62.57421875 377.96875 C71.25390934 371.93628482 74.42677574 365.60815736 76.4921875 355.29296875 C78.30458864 343.54024446 76.35367226 332.78908057 69.9375 322.625 C64.02778732 314.84240193 55.3761655 310.29981418 46 308 C44.9171875 307.72736328 44.9171875 307.72736328 43.8125 307.44921875 C30.83206747 305.37595522 18.00903952 306.18452201 6.875 313.5625 C3.7966472 315.7448668 3.7966472 315.7448668 3 319 C2.01 319 1.02 319 0 319 C-0.78127262 291.47956015 -1.18736058 263.97344847 -1.30332303 236.44256949 C-1.32590854 231.27516055 -1.35296736 226.10777445 -1.37937927 220.94038391 C-1.42314952 212.25689796 -1.46397199 203.57340248 -1.50268555 194.88989258 C-1.54178668 186.12230057 -1.58332117 177.35472519 -1.62768555 168.5871582 C-1.63312775 167.51105439 -1.63856996 166.43495058 -1.64417708 165.32623756 C-1.64960945 164.25233555 -1.65504182 163.17843355 -1.66063881 162.07198906 C-1.78949829 136.59235798 -1.90205126 111.11269141 -1.99082661 85.63288784 C-1.99684197 83.90639698 -2.00291486 82.17990631 -2.00905132 80.45341587 C-2.04287193 70.91914801 -2.07055246 61.38491558 -2.08384514 51.85059547 C-2.08774754 49.39895115 -2.09324318 46.94730866 -2.10058784 44.49567223 C-2.13147219 33.5257378 -2.0780993 22.57931422 -1.55688477 11.61987305 C-1.51800361 10.78689855 -1.47912245 9.95392405 -1.43906307 9.09570789 C-1.26293463 5.8626074 -1.02891985 3.08675955 0 0 Z " fill="#0E0C0C" transform="translate(303,647)"/>
<path d="M0 0 C1.61347099 2.85182787 2.24988735 4.88973875 2.24888897 8.15973663 C2.25578716 9.3993777 2.25578716 9.3993777 2.26282471 10.66406202 C2.25510937 12.01860511 2.25510937 12.01860511 2.24723816 13.4005127 C2.24965257 14.36458935 2.25206699 15.32866601 2.25455457 16.32195711 C2.26020502 19.56431566 2.25151634 22.80647832 2.24291992 26.04882812 C2.24399292 28.37255405 2.24593187 30.69627971 2.24867249 33.02000427 C2.25353831 39.36093401 2.24582995 45.70179378 2.23571944 52.04271507 C2.22779759 58.06032182 2.22855848 64.0779233 2.22899476 70.09553367 C2.22949654 82.09576494 2.22032602 94.09596974 2.20581055 106.09619141 C2.19192278 117.58415214 2.18467662 129.07208934 2.18530273 140.56005859 C2.19053026 263.09120162 2.19053026 263.09120162 1 319 C-2 318 -2 318 -4.1875 315.6875 C-12.61457272 307.63496384 -23.67876476 306.59606525 -34.89331055 306.6315918 C-46.79459893 306.97458858 -58.37762492 311.3638283 -66.875 319.87890625 C-73.34349362 327.88366711 -75.72364888 336.73241444 -75.5625 346.875 C-75.54932739 348.31746094 -75.54932739 348.31746094 -75.53588867 349.7890625 C-75.23787188 360.19767261 -72.31904909 368.49328299 -65 376 C-64.236875 376.78375 -63.47375 377.5675 -62.6875 378.375 C-61.8521875 379.179375 -61.8521875 379.179375 -61 380 C-61.33 380.66 -61.66 381.32 -62 382 C-64.66529842 382.48518538 -67.23694496 382.83402783 -69.92675781 383.09912109 C-70.73650684 383.18312353 -71.54625587 383.26712597 -72.38054276 383.35367393 C-80.97500753 384.18662324 -89.54331003 384.35205385 -98.171875 384.4140625 C-99.9033483 384.43293592 -101.63481398 384.45251858 -103.36627197 384.4727478 C-107.00017278 384.51337148 -110.63406231 384.54815928 -114.26806641 384.578125 C-118.71235652 384.61482702 -123.1564537 384.66154684 -127.6006012 384.71246147 C-180.51311795 385.3141191 -233.43487885 385.04787894 -286.34856796 384.71246147 C-294.19655361 384.6627545 -302.04452535 384.61597356 -309.89257812 384.578125 C-351.13232261 384.37745493 -392.32271715 383.66363743 -433.54230213 382.355196 C-444.94507071 381.99493829 -456.34847333 381.69805184 -467.75390625 381.4375 C-469.37502194 381.39988449 -470.99613607 381.36220169 -472.61724854 381.32444763 C-474.95177567 381.27015873 -477.28630442 381.215951 -479.62084198 381.16211224 C-526.97557307 380.06725543 -526.97557307 380.06725543 -549.48165894 379.17553711 C-551.38766634 379.10107317 -553.29386343 379.03129455 -555.20022583 378.96655273 C-557.72549119 378.87898482 -560.24919148 378.77294509 -562.7734375 378.66015625 C-563.4931221 378.63824722 -564.2128067 378.6163382 -564.95429993 378.59376526 C-566.91162109 378.49243164 -566.91162109 378.49243164 -570 378 C-570.99 376.515 -570.99 376.515 -572 375 C-492.92222622 374.8037673 -492.92222622 374.8037673 -460.8125 375.4375 C-459.28263458 375.4669722 -459.28263458 375.4669722 -457.72186279 375.49703979 C-448.65167367 375.67710305 -439.58368289 375.89508182 -430.51806641 376.23852539 C-411.71319833 376.9450355 -392.92706181 377.2058947 -374.11042523 377.30331039 C-370.74869947 377.32133515 -367.38699427 377.34230864 -364.02528542 377.36322176 C-354.92527367 377.41977566 -345.8252378 377.47025483 -336.72517413 377.51765215 C-330.05568531 377.55241225 -323.38620927 377.58908969 -316.71673584 377.62667847 C-235.14453532 378.0837346 -153.57318464 378.11233673 -72 378 C-72.41209717 377.25741943 -72.82419434 376.51483887 -73.2487793 375.74975586 C-74.05955933 374.27841187 -74.05955933 374.27841187 -74.88671875 372.77734375 C-75.42256592 371.80788818 -75.95841309 370.83843262 -76.51049805 369.83959961 C-82.41569117 358.58188757 -84.12973119 345.49161956 -80.7421875 333.1015625 C-76.26811248 320.43286585 -68.18103845 310.82650569 -56 305 C-55.18917969 304.5875 -54.37835937 304.175 -53.54296875 303.75 C-40.98496315 298.45467699 -22.9046558 298.76633615 -10.26953125 303.83203125 C-7.77564097 305.11546188 -5.3990418 306.54825558 -3 308 C-3.01879211 306.63161232 -3.01879211 306.63161232 -3.03796387 305.23558044 C-3.82064681 247.31371472 -4.13319708 189.39370241 -4.17937243 131.4670797 C-4.18468847 125.31038819 -4.19521479 119.15371989 -4.20800781 112.99703979 C-4.22367027 105.35958863 -4.23127903 97.7221738 -4.22964984 90.08470613 C-4.22892223 86.15051476 -4.23096515 82.21639099 -4.24188805 78.28221321 C-4.38967673 21.48355076 -4.38967673 21.48355076 -1 1 C-0.67 0.67 -0.34 0.34 0 0 Z " fill="#0C0B0B" transform="translate(1615,647)"/>
<path d="M0 0 C10.13385509 0.33779517 19.93822828 4.60977379 27 12 C35.45304774 23.43540008 38.11759084 32.75071675 37 47 C35.26959643 56.77678019 28.71348199 65.91120812 21 72 C10.27451804 78.521785 -0.29313745 80.39657139 -12.7421875 78.60546875 C-23.42721259 75.95981557 -32.34262083 68.27010772 -38 59 C-41.18903085 52.89718202 -42.50863351 47.86655242 -42 41 C-41.01 41 -40.02 41 -39 41 C-37.74609375 42.5390625 -37.74609375 42.5390625 -36.4375 44.625 C-32.33849753 50.4088055 -26.05961208 54.72148758 -19 56 C-9.99164855 56.96405165 -2.29565584 54.84586362 4.875 49.25 C9.98358259 44.50287372 12.62295302 38.2155088 13.23828125 31.3359375 C13.4543704 22.71511782 12.62892407 15.81662704 6.5078125 9.37890625 C4.06560745 7.1615501 1.58776531 5.04453213 -1 3 C-0.67 2.01 -0.34 1.02 0 0 Z " fill="#030303" transform="translate(1547,500)"/>
<path d="M0 0 C2.16502594 2.16502594 2.48737243 3.19227096 3.3125 6.0625 C6.77643029 16.58946865 10.98464641 21.8528336 21 27 C23.65396758 28.16891049 26.23386732 29.1127499 29 30 C26.46322549 32.53677451 24.1233531 33.16583005 20.75 34.375 C11.60401875 37.85630859 6.74045331 41.42802986 2 50 C0.83218022 52.64618339 -0.09859948 55.24572065 -1 58 C-1.66 58 -2.32 58 -3 58 C-3.24234375 57.27554688 -3.4846875 56.55109375 -3.734375 55.8046875 C-7.33523138 45.4176018 -12.01093585 37.40888178 -22.1875 32.4453125 C-25.10448372 31.22760939 -28.02775428 30.0749622 -31 29 C-31 28.34 -31 27.68 -31 27 C-29.98679687 26.61328125 -28.97359375 26.2265625 -27.9296875 25.828125 C-26.57797833 25.30246032 -25.226424 24.77639737 -23.875 24.25 C-23.20984375 23.99734375 -22.5446875 23.7446875 -21.859375 23.484375 C-18.54331949 22.18396108 -15.57204272 20.82306775 -12.6328125 18.796875 C-10 17 -10 17 -8 17 C-6.19511508 13.46032279 -4.53532658 9.85940561 -2.875 6.25 C-2.33617187 5.07953125 -1.79734375 3.9090625 -1.2421875 2.703125 C-0.83226562 1.81109375 -0.42234375 0.9190625 0 0 Z " fill="#040404" transform="translate(373,530)"/>
<path d="M0 0 C1.61648438 0.01353516 1.61648438 0.01353516 3.265625 0.02734375 C4.08546875 0.03894531 4.9053125 0.05054687 5.75 0.0625 C7.05310976 3.97182927 6.16923843 4.98430986 4.375 8.625 C-0.61895633 18.15157721 -7.13846183 25.90574913 -17.25 30.0625 C-22.28289039 31.54840097 -26.65348921 31.72520259 -31.5625 29.6875 C-34.25 28.0625 -34.25 28.0625 -36.25 26.0625 C-36.88500292 21.97025897 -37.12898689 19.51857252 -34.96484375 15.93359375 C-26.45882386 5.7224947 -13.23528437 -0.14386179 0 0 Z " fill="#F6EAE3" transform="translate(1602.25,72.9375)"/>
<path d="M0 0 C11.49779675 -0.95373429 23.59940869 2.21068405 33 9 C36.77947833 12.22709303 40.09649328 15.33363645 42 20 C41.92186171 23.75063803 41.46722017 25.45977667 39 28.3125 C34.31868492 30.94573973 29.99673973 31.52913571 24.69921875 30.59375 C14.16079982 27.53597041 6.88757277 19.97082014 1.640625 10.5625 C-1.42647826 4.1762028 -1.42647826 4.1762028 0 0 Z " fill="#F6E9E2" transform="translate(312,73)"/>
<path d="M0 0 C9.82019084 3.41164668 17.41199025 8.31662364 22.6015625 17.5546875 C24.56852122 21.78079807 25.62817571 25.61663072 26.3046875 30.24609375 C11.4407113 30.03620448 -1.19122376 27.41670569 -12.25390625 16.7421875 C-14.41066365 14.40213627 -15.7044504 12.22172601 -16.8203125 9.24609375 C-16.6353614 4.80726726 -14.80530733 3.35608858 -11.6953125 0.24609375 C-7.79836543 -1.70237979 -4.05911798 -1.13537648 0 0 Z " fill="#F6E9E2" transform="translate(1581.6953125,976.75390625)"/>
<path d="M0 0 C4.80393586 2.58673469 4.80393586 2.58673469 6.25 5.75 C6.44549767 10.05094877 4.92576197 12.51276768 2.3125 15.75 C-8.57950431 27.39932159 -21.68978754 29.21411514 -36.75 29.75 C-35.46246004 20.2989088 -30.85647234 12.11990899 -23.75 5.75 C-16.01848244 0.34852883 -9.48919824 -3.16306608 0 0 Z " fill="#F7EAE3" transform="translate(347.75,977.25)"/>
<path d="M0 0 C2.66143786 1.33071893 2.793204 2.58118861 3.875 5.3125 C6.95650243 12.42019902 11.14963679 14.87410611 18 18 C15.41971252 19.72019166 13.48035296 20.58226018 10.625 21.625 C5.3991184 23.87680264 3.51487739 27.08134423 1 32 C0.34 32.99 -0.32 33.98 -1 35 C-1.29132813 34.33613281 -1.58265625 33.67226563 -1.8828125 32.98828125 C-5.91115984 24.31086639 -10.04296082 20.40367489 -19 17 C-16.73404658 14.73404658 -15.1247968 14.23342322 -12.125 13.1875 C-5.28791756 10.52152973 -3.03700921 6.52956979 0 0 Z " fill="#080707" transform="translate(404,502)"/>
<path d="M0 0 C0.33 0 0.66 0 1 0 C0.65150463 5.22743051 -0.07180188 9.34088868 -2.0625 14.1875 C-6.26940313 26.13264832 -5.71299364 42.27362297 -1 54 C-3.85433301 53.68354134 -4.82288304 53.21002171 -6.703125 50.98046875 C-12.19831207 41.0586032 -13.34639704 29.62111116 -10.35107422 18.61572266 C-7.97348211 11.76421415 -4.84809184 5.4592829 0 0 Z " fill="#131111" transform="translate(1528,963)"/>
<path d="M0 0 C7.11938113 2.98554693 10.05498791 10.67905742 12.875 17.4375 C16.4755478 27.44934583 15.3948818 36.00236081 12 46 C10.84680178 48.41164866 9.77076883 49.95254854 8 52 C6.515 52.495 6.515 52.495 5 53 C5.13277344 52.43152344 5.26554687 51.86304688 5.40234375 51.27734375 C9.78341869 32.12213288 6.30607067 18.20431722 0 0 Z " fill="#100F0E" transform="translate(388,963)"/>
<path d="M0 0 C3.84409098 1.5101786 5.7543327 3.55664347 8 7 C11.52725957 18.80372222 11.81008151 31.90039341 6 43 C3.82639635 46.78245002 1.58958085 50.48605433 -1 54 C-1.33 54 -1.66 54 -2 54 C-1.56499805 47.47497075 -0.15089938 41.94882326 2.0625 35.796875 C5.700462 24.94362169 3.86641808 14.8270403 1 4 C0.66512189 2.66705381 0.33106399 1.33389862 0 0 Z " fill="#0D0C0B" transform="translate(392,63)"/>
<path d="M0 0 C-0.21076172 0.60005859 -0.42152344 1.20011719 -0.63867188 1.81835938 C-2.72112535 8.15391782 -3.54256383 13.84565445 -3.5 20.5 C-3.50008057 21.44327148 -3.50016113 22.38654297 -3.50024414 23.35839844 C-3.33388544 31.57831277 -1.56805061 38.87418223 1.00390625 46.640625 C2 50 2 50 1 52 C-6.68842897 43.45730114 -10.40223034 34.18851016 -10.3125 22.625 C-10.30758545 21.87766602 -10.3026709 21.13033203 -10.29760742 20.36035156 C-10.14326278 13.08794861 -9.19311766 7.62104306 -4.4375 1.9375 C-2 0 -2 0 0 0 Z " fill="#141212" transform="translate(1527,63)"/>
<path d="M0 0 C0.88276611 0.00418945 1.76553223 0.00837891 2.67504883 0.01269531 C15.53813785 0.23588504 15.53813785 0.23588504 20.1875 3.3125 C20.92578125 5.421875 20.92578125 5.421875 21.1875 7.3125 C20.54167969 7.2403125 19.89585938 7.168125 19.23046875 7.09375 C5.2595503 5.71768142 -7.6141838 4.6684813 -20.765625 10.1328125 C-24.84200946 11.71110494 -28.46898672 12.08783552 -32.8125 12.3125 C-24.91879437 2.7856139 -11.85183922 -0.07593754 0 0 Z " fill="#0F0D0D" transform="translate(1580.8125,934.6875)"/>
<path d="M0 0 C0.495 0.99 0.495 0.99 1 2 C-4.410913 1.66871961 -8.68598234 0.39242067 -13.75 -1.5625 C-25.82647289 -5.98196859 -39.4496627 -4.67337831 -52 -3 C-52 -4.32 -52 -5.64 -52 -7 C-35.24766935 -14.39073411 -14.38764125 -10.55696947 0 0 Z " fill="#0F0D0D" transform="translate(370,945)"/>
<path d="M0 0 C-5.26223342 6.45819557 -14.00093076 9.61544408 -22 11 C-25.31835135 11.2858172 -28.60825609 11.325178 -31.9375 11.3125 C-33.20110352 11.33666992 -33.20110352 11.33666992 -34.49023438 11.36132812 C-40.11950617 11.36566167 -46.07203716 10.98066234 -51 8 C-51.74584961 5.8918457 -51.74584961 5.8918457 -52 4 C-51.23558594 4.0721875 -50.47117187 4.144375 -49.68359375 4.21875 C-46.12434295 4.52713274 -42.56544944 4.77420034 -39 5 C-37.81019531 5.07992187 -36.62039063 5.15984375 -35.39453125 5.2421875 C-27.20441163 5.54064845 -20.61702334 4.42669379 -12.89746094 1.77880859 C-8.38677991 0.25092702 -4.76903351 -0.24838716 0 0 Z " fill="#0F0E0D" transform="translate(370,134)"/>
<path d="M0 0 C5.56419218 -0.55641922 9.14343549 0.34874807 14.3125 2.5 C22.24699515 5.416561 29.43237646 5.58176915 37.875 5.3125 C39.25646898 5.28732628 40.63798337 5.26452947 42.01953125 5.24414062 C45.34756023 5.1859583 48.67315122 5.10426479 52 5 C51 8 51 8 49.3828125 8.94921875 C36.89586935 13.03231954 21.86746443 12.7165385 10 7 C6.54890505 5.16703434 3.17555397 3.28330761 0 1 C0 0.67 0 0.34 0 0 Z " fill="#0E0C0C" transform="translate(1549,134)"/>
<path d="M0 0 C0.66 0 1.32 0 2 0 C6.43741772 10.63791659 8.28476324 21.71690109 4.25 32.8125 C3.07379953 35.59897493 2.48313881 36.71523023 -0.140625 38.26171875 C-0.75421875 38.50535156 -1.3678125 38.74898437 -2 39 C-3 36 -3 36 -2.06640625 32.6484375 C-0.44874552 26.71294012 -0.82597066 20.72869674 -0.9375 14.625 C-0.97181559 12.28391411 -1.00198297 9.94276252 -1.02734375 7.6015625 C-1.04531006 6.57369629 -1.06327637 5.54583008 -1.08178711 4.48681641 C-1 2 -1 2 0 0 Z " fill="#161514" transform="translate(409,974)"/>
<path d="M0 0 C0.66 0.33 1.32 0.66 2 1 C1.98952637 1.80630859 1.97905273 2.61261719 1.96826172 3.44335938 C1.92645304 7.12887401 1.90059487 10.81433854 1.875 14.5 C1.85824219 15.7684375 1.84148437 17.036875 1.82421875 18.34375 C1.78992962 24.92726319 1.98394515 30.71371872 4 37 C2.68 37 1.36 37 0 37 C-0.65357278 35.77493102 -1.29748233 34.54470484 -1.9375 33.3125 C-2.29714844 32.62800781 -2.65679688 31.94351563 -3.02734375 31.23828125 C-6.06703111 24.24333804 -6.19639619 15.22545381 -4.140625 7.96484375 C-1.62156921 1.62156921 -1.62156921 1.62156921 0 0 Z " fill="#151413" transform="translate(1509,975)"/>
<path d="M0 0 C0.66 0 1.32 0 2 0 C2.37125 1.0725 2.7425 2.145 3.125 3.25 C4.80532341 7.26816468 7.2831359 8.76988154 11 11 C11 11.66 11 12.32 11 13 C10.0925 13.37125 9.185 13.7425 8.25 14.125 C4.54294797 16.26368386 3.22876738 18.41805243 1 22 C0.34 22 -0.32 22 -1 22 C-1.515625 20.906875 -2.03125 19.81375 -2.5625 18.6875 C-4.9396196 14.44816035 -7.46997482 13.48096977 -12 12 C-12 11.34 -12 10.68 -12 10 C-11.18595703 9.74476563 -11.18595703 9.74476563 -10.35546875 9.484375 C-4.66557093 7.5913627 -4.66557093 7.5913627 -1 3 C-0.67 2.01 -0.34 1.02 0 0 Z " fill="#0D0C0C" transform="translate(362,492)"/>
<path d="M0 0 C0.99 0.33 1.98 0.66 3 1 C2.67854004 2.01006104 2.35708008 3.02012207 2.02587891 4.06079102 C0.97778005 7.74091729 0.68821061 11.19210211 0.5859375 15.02734375 C0.54726562 16.31318359 0.50859375 17.59902344 0.46875 18.92382812 C0.43730501 20.26171418 0.40605741 21.59960489 0.375 22.9375 C0.33675658 24.30275756 0.2977013 25.66799264 0.2578125 27.03320312 C0.16390063 30.3553354 0.07822213 33.67746741 0 37 C-5.52116936 31.78182164 -6.1127564 27.11904529 -6.375 19.75 C-6.27899096 12.82934859 -5.07767836 5.07767836 0 0 Z " fill="#131211" transform="translate(1510,67)"/>
<path d="M0 0 C2.48905315 0.97784231 3.77893069 1.66361985 5.265625 3.92578125 C9.27432568 13.64528964 9.07849691 23.00923205 5.94921875 32.9765625 C4.92533169 35.15916947 3.72961251 36.35099136 2 38 C2.01047363 37.3608667 2.02094727 36.7217334 2.03173828 36.06323242 C2.07388495 33.10469665 2.09950945 30.14622439 2.125 27.1875 C2.14175781 26.18267578 2.15851563 25.17785156 2.17578125 24.14257812 C2.21515418 18.02008787 1.71173931 12.36011987 0.43310547 6.3684082 C0 4 0 4 0 0 Z " fill="#0E0C0C" transform="translate(407,67)"/>
<path d="M0 0 C2.43562361 1.22660467 4.68877054 2.54292056 7 4 C7 4.33 7 4.66 7 5 C2.34354639 5.17909437 -1.85322316 4.91612396 -6.4375 4.0625 C-14.24208784 2.64985958 -22.09101296 2.35609183 -30 2 C-30 1.01 -30 0.02 -30 -1 C-21.03157314 -5.28776218 -8.92807392 -3.851642 0 0 Z " fill="#0E0C0C" transform="translate(355,927)"/>
<path d="M0 0 C7.77676134 -0.1482857 15.45144569 0.22974712 23.203125 0.78125 C26.81246851 0.98919572 30.38570758 1.03745381 34 1 C34.495 2.98 34.495 2.98 35 5 C23.84709202 7.9741088 13.51560065 8.3930782 3 3 C1.19140625 1.36328125 1.19140625 1.36328125 0 0 Z " fill="#191716" transform="translate(1559,149)"/>
<path d="M0 0 C-0.33 0.66 -0.66 1.32 -1 2 C-2.77890625 2.07347656 -2.77890625 2.07347656 -4.59375 2.1484375 C-15.14973851 2.62282702 -25.53876077 3.51378257 -36 5 C-36 4.01 -36 3.02 -36 2 C-23.73115463 -3.70643971 -12.69266319 -5.25213649 0 0 Z " fill="#0D0C0C" transform="translate(1595,927)"/>
<path d="M0 0 C-3.60322313 4.74970322 -8.38645836 5.88536871 -14 7 C-20.66117514 7.75256025 -26.9410472 7.00877383 -33 4 C-33.33 3.34 -33.66 2.68 -34 2 C-29.83373537 1.6615135 -25.66693347 1.33014248 -21.5 1 C-19.74042969 0.85691406 -19.74042969 0.85691406 -17.9453125 0.7109375 C-11.94254224 0.2388095 -6.02127983 -0.11923326 0 0 Z " fill="#161413" transform="translate(359,149)"/>
<path d="M0 0 C0 0.66 0 1.32 0 2 C-6.93 2 -13.86 2 -21 2 C-20.67 0.68 -20.34 -0.64 -20 -2 C-12.7011545 -4.0430177 -6.70757213 -3.42514321 0 0 Z " fill="#100E0E" transform="translate(353,917)"/>
<path d="M0 0 C3.29159316 -0.05790353 6.58305603 -0.09356261 9.875 -0.125 C10.81214844 -0.14175781 11.74929688 -0.15851563 12.71484375 -0.17578125 C13.61074219 -0.18222656 14.50664062 -0.18867188 15.4296875 -0.1953125 C16.25710449 -0.20578613 17.08452148 -0.21625977 17.93701172 -0.22705078 C20 0 20 0 22 2 C15.1456944 4.66556329 9.23953002 6.41317667 2 4 C1.34 3.67 0.68 3.34 0 3 C0 2.01 0 1.02 0 0 Z " fill="#141312" transform="translate(332,161)"/>
<path d="M0 0 C0.66 0 1.32 0 2 0 C4.37564257 5.31025986 4.43294755 10.41246628 3 16 C1.44921875 17.80078125 1.44921875 17.80078125 0 19 C-0.99 18.67 -1.98 18.34 -3 18 C-2.69272975 15.18683642 -2.37944848 12.37457481 -2.0625 9.5625 C-1.97548828 8.76005859 -1.88847656 7.95761719 -1.79882812 7.13085938 C-1.11328125 1.11328125 -1.11328125 1.11328125 0 0 Z " fill="#100E0E" transform="translate(424,988)"/>
<path d="M0 0 C0.66 0.33 1.32 0.66 2 1 C2.66796875 4.01953125 2.66796875 4.01953125 3.1875 7.8125 C3.36667969 9.05644531 3.54585937 10.30039062 3.73046875 11.58203125 C3.95947791 14.48613287 3.95870192 16.30067617 3 19 C1.0625 18.625 1.0625 18.625 -1 18 C-2.34832104 15.30335792 -2.16910682 13.13412479 -2.1875 10.125 C-2.20167969 9.07570313 -2.21585938 8.02640625 -2.23046875 6.9453125 C-2.00504937 4.06452929 -1.48964317 2.43759792 0 0 Z " fill="#161413" transform="translate(1494,988)"/>
<path d="M0 0 C0 0.99 0 1.98 0 3 C-6.6 3 -13.2 3 -20 3 C-14.69091824 -2.30908176 -6.86180226 -4.57453484 0 0 Z " fill="#1B1818" transform="translate(1587,916)"/>
<path d="M0 0 C6.27 0 12.54 0 19 0 C19 0.99 19 1.98 19 3 C15.26273303 5.49151132 11.33216405 5.5545813 7 5 C4.51027199 4.18884568 2.35327917 3.17663958 0 2 C0 1.34 0 0.68 0 0 Z " fill="#141212" transform="translate(1567,161)"/>
<path d="M0 0 C-0.28119857 2.62651431 -0.57443838 5.25069335 -0.875 7.875 C-0.99294922 8.99455078 -0.99294922 8.99455078 -1.11328125 10.13671875 C-1.7734375 15.7734375 -1.7734375 15.7734375 -4 18 C-6.16617359 14.53412226 -7.28698616 11.93207844 -6.9375 7.875 C-5.9705107 3.87811091 -4.69712927 0 0 0 Z " fill="#161414" transform="translate(1498,73)"/>
<path d="M0 0 C4.875 0.875 4.875 0.875 6 2 C6.12583966 3.934419 6.17578009 5.87402763 6.1875 7.8125 C6.20167969 8.87082031 6.21585937 9.92914063 6.23046875 11.01953125 C6.00615034 13.9204626 5.50196021 15.54818353 4 18 C1.64626599 14.46939899 1.34221585 11.41404244 0.875 7.3125 C0.78863281 6.61060547 0.70226562 5.90871094 0.61328125 5.18554688 C0.40173125 3.45788855 0.199914 1.7290434 0 0 Z " fill="#100E0E" transform="translate(421,74)"/>
<path d="M0 0 C3.11511978 0.24593051 4.60407611 0.61727357 6.875 2.8125 C8 5 8 5 7.6875 7.25 C7.460625 7.8275 7.23375 8.405 7 9 C3.625 9.125 3.625 9.125 0 9 C-0.66 8.34 -1.32 7.68 -2 7 C-1.43181818 1.43181818 -1.43181818 1.43181818 0 0 Z " fill="#191716" transform="translate(1612,475)"/>
<path d="M0 0 C1.134375 0.020625 2.26875 0.04125 3.4375 0.0625 C4.25 1.75 4.25 1.75 4.4375 4.0625 C2 6.8125 2 6.8125 -0.5625 9.0625 C-1.8825 8.4025 -3.2025 7.7425 -4.5625 7.0625 C-4.60504356 5.06295254 -4.60330783 3.06208364 -4.5625 1.0625 C-3.5625 0.0625 -3.5625 0.0625 0 0 Z " fill="#100E0E" transform="translate(1615.5625,595.9375)"/>
<path d="M0 0 C2.33294775 -0.04241723 4.66702567 -0.04092937 7 0 C8 1 8 1 8.0625 4.5625 C8.041875 5.696875 8.02125 6.83125 8 8 C6.25 8.6875 6.25 8.6875 4 9 C1.75 7.9375 1.75 7.9375 0 6 C-0.25 2.8125 -0.25 2.8125 0 0 Z " fill="#121010" transform="translate(300,596)"/>
<path d="M0 0 C2.125 0.9375 2.125 0.9375 4 2 C4.04254356 3.99954746 4.04080783 6.00041636 4 8 C3 9 3 9 -0.5625 9.0625 C-1.696875 9.041875 -2.83125 9.02125 -4 9 C-4.33 8.01 -4.66 7.02 -5 6 C-2.66666667 1.33333333 -2.66666667 1.33333333 0 0 Z " fill="#0F0D0D" transform="translate(304,475)"/>
<path d="M0 0 C2.93453261 0.36681658 3.86437246 0.86437246 6 3 C5.9375 5.5 5.9375 5.5 5 8 C2.4375 9.3125 2.4375 9.3125 0 10 C-2 8 -2 8 -2.25 5 C-2 2 -2 2 0 0 Z " fill="#141212" transform="translate(1614,623)"/>
<path d="M0 0 C2.5 0.125 2.5 0.125 3.5 1.125 C3.6875 4.0625 3.6875 4.0625 3.5 7.125 C2.84 7.785 2.18 8.445 1.5 9.125 C-1.125 8.75 -1.125 8.75 -3.5 8.125 C-3.54241723 5.79205225 -3.54092937 3.45797433 -3.5 1.125 C-2.5 0.125 -2.5 0.125 0 0 Z " fill="#0E0D0D" transform="translate(1615.5,447.875)"/>
<path d="M0 0 C2.5 0.125 2.5 0.125 3.5 1.125 C3.54092937 3.45797433 3.54241723 5.79205225 3.5 8.125 C1.125 8.75 1.125 8.75 -1.5 9.125 C-3.5 7.125 -3.5 7.125 -3.6875 4.0625 C-3.43916756 0.17195838 -3.43916756 0.17195838 0 0 Z " fill="#0D0B0B" transform="translate(303.5,447.875)"/>
<path d="M0 0 C2.625 0.375 2.625 0.375 5 1 C5.04241723 3.33294775 5.04092937 5.66702567 5 8 C4 9 4 9 1.5 9.125 C-1 9 -1 9 -2 8 C-2.1875 5.0625 -2.1875 5.0625 -2 2 C-1.34 1.34 -0.68 0.68 0 0 Z " fill="#0A0909" transform="translate(302,623)"/>
<path d="M0 0 C2.475 0.99 2.475 0.99 5 2 C4.125 6.875 4.125 6.875 3 8 C1.33382885 8.04063832 -0.33388095 8.042721 -2 8 C-2.6875 5.6875 -2.6875 5.6875 -3 3 C-1.5625 1.1875 -1.5625 1.1875 0 0 Z " fill="#0E0D0D" transform="translate(989,55)"/>
<path d="M0 0 C2.4375 0.1875 2.4375 0.1875 3.4375 1.1875 C3.5625 3.6875 3.5625 3.6875 3.4375 6.1875 C2.4375 7.1875 2.4375 7.1875 -0.625 7.25 C-1.594375 7.229375 -2.56375 7.20875 -3.5625 7.1875 C-4.1875 4.8125 -4.1875 4.8125 -4.5625 2.1875 C-2.5625 0.1875 -2.5625 0.1875 0 0 Z " fill="#090808" transform="translate(929.5625,1016.8125)"/>
<path d="M0 0 C1.99954746 -0.04254356 4.00041636 -0.04080783 6 0 C7 1 7 1 7.125 3.5 C7 6 7 6 6 7 C3.5625 7.1875 3.5625 7.1875 1 7 C0.34 6.34 -0.32 5.68 -1 5 C-0.625 2.375 -0.625 2.375 0 0 Z " fill="#0A0909" transform="translate(926,56)"/>
<path d="M0 0 C2.375 -0.125 2.375 -0.125 5 0 C5.66 0.66 6.32 1.32 7 2 C6.625 4.625 6.625 4.625 6 7 C3.625 7.125 3.625 7.125 1 7 C0.34 6.34 -0.32 5.68 -1 5 C-0.625 2.375 -0.625 2.375 0 0 Z " fill="#070606" transform="translate(987,1017)"/>
<path d="M0 0 C2.5625 0.1875 2.5625 0.1875 4.5625 2.1875 C4.02678571 5.72321429 4.02678571 5.72321429 2.5625 7.1875 C0.89632885 7.22813832 -0.77138095 7.230221 -2.4375 7.1875 C-2.81883299 5.1960944 -3.15075582 3.19470923 -3.4375 1.1875 C-2.4375 0.1875 -2.4375 0.1875 0 0 Z " fill="#131211" transform="translate(948.4375,55.8125)"/>
<path d="M0 0 C0.625 1.875 0.625 1.875 1 4 C-1 6 -1 6 -3.5625 6.1875 C-6 6 -6 6 -7 5 C-7.04063832 3.33382885 -7.042721 1.66611905 -7 0 C-4.3333581 -1.33332095 -2.83319697 -0.67102033 0 0 Z " fill="#100F0E" transform="translate(974,1018)"/>
<path d="M0 0 C1.32 0.66 2.64 1.32 4 2 C4.042721 3.66611905 4.04063832 5.33382885 4 7 C3 8 3 8 -0.0625 8.0625 C-1.031875 8.041875 -2.00125 8.02125 -3 8 C-3.36923077 3.44615385 -3.36923077 3.44615385 -1.5 1.1875 C-1.005 0.795625 -0.51 0.40375 0 0 Z " fill="#0E0C0C" transform="translate(304,502)"/>
<path d="M0 0 C2.5 0.125 2.5 0.125 3.5 1.125 C3.625 3.625 3.625 3.625 3.5 6.125 C2.5 7.125 2.5 7.125 0 7.25 C-2.5 7.125 -2.5 7.125 -3.5 6.125 C-3.625 3.625 -3.625 3.625 -3.5 1.125 C-2.5 0.125 -2.5 0.125 0 0 Z " fill="#0C0B0B" transform="translate(948.5,1016.875)"/>
<path d="M0 0 C2.5 0.125 2.5 0.125 3.5 1.125 C3.625 3.625 3.625 3.625 3.5 6.125 C2.5 7.125 2.5 7.125 0 7.25 C-2.5 7.125 -2.5 7.125 -3.5 6.125 C-3.625 3.625 -3.625 3.625 -3.5 1.125 C-2.5 0.125 -2.5 0.125 0 0 Z " fill="#0D0B0B" transform="translate(1614.5,569.875)"/>
<path d="M0 0 C2.5 0.125 2.5 0.125 3.5 1.125 C3.625 3.625 3.625 3.625 3.5 6.125 C2.5 7.125 2.5 7.125 0 7.25 C-2.5 7.125 -2.5 7.125 -3.5 6.125 C-3.625 3.625 -3.625 3.625 -3.5 1.125 C-2.5 0.125 -2.5 0.125 0 0 Z " fill="#0D0B0B" transform="translate(304.5,569.875)"/>
<path d="M0 0 C1.9375 0.6875 1.9375 0.6875 4 2 C4.8125 4.5625 4.8125 4.5625 5 7 C4 8 4 8 1.5 8.125 C-1 8 -1 8 -2 7 C-2.1875 4.5625 -2.1875 4.5625 -2 2 C-1.34 1.34 -0.68 0.68 0 0 Z " fill="#0F0E0D" transform="translate(1613,502)"/>
<path d="M0 0 C1.2065625 0.0309375 1.2065625 0.0309375 2.4375 0.0625 C3.0625 2.4375 3.0625 2.4375 3.4375 5.0625 C2.7775 5.7225 2.1175 6.3825 1.4375 7.0625 C-1.1875 6.6875 -1.1875 6.6875 -3.5625 6.0625 C-3.605221 4.39638095 -3.60313832 2.72867115 -3.5625 1.0625 C-2.5625 0.0625 -2.5625 0.0625 0 0 Z " fill="#0C0A0A" transform="translate(970.5625,55.9375)"/>
<path d="M0 0 C0.598125 0.20625 1.19625 0.4125 1.8125 0.625 C1.855221 2.29111905 1.85313832 3.95882885 1.8125 5.625 C0.8125 6.625 0.8125 6.625 -1.75 6.6875 C-2.9565625 6.6565625 -2.9565625 6.6565625 -4.1875 6.625 C-4.5175 4.975 -4.8475 3.325 -5.1875 1.625 C-2.1875 -0.375 -2.1875 -0.375 0 0 Z " fill="#1A1817" transform="translate(908.1875,55.375)"/>
<path d="M0 0 C2.125 0.375 2.125 0.375 4 1 C4.125 3.375 4.125 3.375 4 6 C3.34 6.66 2.68 7.32 2 8 C-0.125 7.625 -0.125 7.625 -2 7 C-2.125 4.625 -2.125 4.625 -2 2 C-1.34 1.34 -0.68 0.68 0 0 Z " fill="#161414" transform="translate(1613,547)"/>
<path d="M0 0 C0 1.98 0 3.96 0 6 C-1.875 6.625 -1.875 6.625 -4 7 C-6 5 -6 5 -6.125 2.375 C-6.08375 1.59125 -6.0425 0.8075 -6 0 C-3.50907189 -1.24546405 -2.58919267 -0.7767578 0 0 Z " fill="#151312" transform="translate(308,548)"/>
<path d="M0 0 C2.125 0.375 2.125 0.375 4 1 C4.125 3.375 4.125 3.375 4 6 C3.34 6.66 2.68 7.32 2 8 C-0.125 7.625 -0.125 7.625 -2 7 C-2.125 4.625 -2.125 4.625 -2 2 C-1.34 1.34 -0.68 0.68 0 0 Z " fill="#141212" transform="translate(304,525)"/>
<path d="M0 0 C1.9375 0.1875 1.9375 0.1875 4 1 C5.3125 2.9375 5.3125 2.9375 6 5 C5.67 5.66 5.34 6.32 5 7 C3.33388095 7.042721 1.66617115 7.04063832 0 7 C-1 6 -1 6 -1.125 3.5 C-1 1 -1 1 0 0 Z " fill="#1A1817" transform="translate(1010,55)"/>
<path d="M0 0 C1.65 0 3.3 0 5 0 C5.33 1.32 5.66 2.64 6 4 C4.1875 5.5625 4.1875 5.5625 2 7 C1.01 6.67 0.02 6.34 -1 6 C-0.67 4.02 -0.34 2.04 0 0 Z " fill="#151313" transform="translate(1010,1018)"/>
<path d="M0 0 C3.69230769 0.69230769 3.69230769 0.69230769 5 2 C5.04063832 3.66617115 5.042721 5.33388095 5 7 C3.33388095 7.042721 1.66617115 7.04063832 0 7 C-1 6 -1 6 -1.125 3.5 C-1 1 -1 1 0 0 Z " fill="#0D0B0B" transform="translate(1612,525)"/>
<path d="M0 0 C1.66611905 -0.042721 3.33382885 -0.04063832 5 0 C6 1 6 1 6.0625 3.5625 C6.041875 4.366875 6.02125 5.17125 6 6 C4.33388095 6.042721 2.66617115 6.04063832 1 6 C0 5 0 5 -0.0625 2.4375 C-0.041875 1.633125 -0.02125 0.82875 0 0 Z " fill="#0A0909" transform="translate(904,1018)"/>
</svg>
