<?xml version="1.0" encoding="UTF-8"?>
<svg version="1.1" xmlns="http://www.w3.org/2000/svg" width="1080" height="1920">
<path d="M0 0 C1.31567171 -0.01325696 1.31567171 -0.01325696 2.65792266 -0.02678174 C3.41596632 -0.03768862 4.17400999 -0.04859551 4.95502467 -0.0598329 C7.36534137 0.04626443 9.56436105 0.47257844 11.91290584 1.01374418 C18.27578232 2.42331268 24.60436414 2.32960276 31.09649959 2.41218168 C55.01690753 2.98505485 81.12265532 4.05383602 100.15899959 20.03718168 C101.32689022 20.94597074 101.32689022 20.94597074 102.51837459 21.87311918 C118.68897118 35.08839984 125.48894474 55.07000398 127.72066036 75.23213369 C128.22502761 80.39141067 128.48783364 85.55214334 128.70758358 90.7304495 C128.75032878 91.73542938 128.79307397 92.74040926 128.83711448 93.77584308 C129.24508207 104.08441732 129.28525228 114.37982466 129.25665584 124.69489652 C129.25474317 126.80377365 129.25330946 128.91265126 129.25229946 131.02152902 C129.24917366 135.62617691 129.24291581 140.23080627 129.23430172 144.83544713 C129.22129765 151.90414138 129.21493392 158.97283297 129.21027765 166.04153664 C129.20798524 169.51835309 129.20546596 172.99516937 129.20290676 176.47198564 C129.20238753 177.17856842 129.2018683 177.88515119 129.20133334 178.61314557 C129.19567623 186.0821611 129.18767358 193.5511739 129.17976114 201.02018731 C129.14376557 235.22276209 129.13249731 269.42534766 129.12812939 303.62793967 C129.12774747 306.55734492 129.12731382 309.48675016 129.12687793 312.4161554 C129.11568335 392.71210506 129.23365869 473.00773368 129.37359545 553.30353032 C129.37914221 556.48939586 129.38466726 559.67526143 129.39019229 562.86112701 C129.49648462 624.14164455 129.6082469 685.42215214 129.72722486 746.70264639 C129.87394288 822.271198 130.02000018 897.83975916 130.24772087 1145.59415271 C130.25069448 1157.10424543 130.25618782 1168.61433476 130.26314083 1180.12442571 C130.27094256 1193.10023556 130.27486836 1206.07604058 130.27387467 1219.05185287 C130.27344312 1225.62883468 130.27448664 1232.20580842 130.27993503 1238.78278881 C130.29831176 1262.69230624 130.27043525 1286.60262627 129.88775489 1310.50963143 C129.85627387 1312.55341527 129.82887724 1314.59726757 129.80626139 1316.64116874 C129.46992219 1345.44194691 126.96581828 1374.15918512 106.15899959 1396.03718168 C84.74828516 1416.7572279 55.89828525 1418.2637708 27.57764164 1418.1124838 C24.98902689 1418.09895677 22.4004607 1418.0923572 19.81181636 1418.08710843 C15.87894088 1418.07869608 11.94608188 1418.06794473 8.01321712 1418.05549222 C-3.48894712 1418.02063165 -14.99113243 1418.01049707 -26.49334416 1418.00593168 C-27.80600191 1418.00538282 -29.11865967 1418.00483396 -30.47109494 1418.00426847 C-58.22105034 1417.99627591 -85.97033475 1418.12045679 -113.71990666 1418.25593168 C-114.84242754 1418.26140893 -115.96494842 1418.26688619 -117.12148508 1418.27252942 C-140.06952242 1418.38493072 -163.01751738 1418.50541445 -185.96550217 1418.62802249 C-194.8131272 1418.67528663 -203.66075566 1418.721876 -212.50838593 1418.76814872 C-217.6719364 1418.79525041 -222.83548262 1418.82290157 -227.99902233 1418.85198575 C-229.47225133 1418.86023539 -229.47225133 1418.86023539 -230.97524253 1418.86865169 C-232.75421137 1418.87865998 -234.53317949 1418.88879831 -236.31214646 1418.89913589 C-239.28798634 1418.91584863 -242.26383071 1418.93083322 -245.23968205 1418.9453848 C-246.01505275 1418.94925107 -246.79042344 1418.95311734 -247.58929022 1418.95710076 C-260.74996534 1419.02133432 -273.91006051 1419.04342799 -287.07087085 1419.03172477 C-312.85165163 1419.01176315 -338.63137252 1419.11213437 -364.41180262 1419.23558575 C-370.61975514 1419.26503973 -376.82771377 1419.29314976 -383.03567204 1419.32136136 C-390.99736498 1419.35760768 -398.95905747 1419.39393729 -406.92074761 1419.43079382 C-425.84380979 1419.51834457 -444.76688452 1419.60260571 -463.68997184 1419.68453926 C-465.8543248 1419.69391066 -468.01867772 1419.70329059 -470.18303064 1419.71267243 C-481.92663581 1419.76356882 -493.67024165 1419.81430925 -505.41384766 1419.86501357 C-515.91528208 1419.9103607 -526.41671588 1419.95585195 -536.91814885 1420.00153714 C-537.665894 1420.00478835 -538.41363916 1420.00803955 -539.18404327 1420.01138928 C-563.54328589 1420.11734757 -587.90249615 1420.22942048 -612.261698 1420.34433881 C-637.40693882 1420.46292882 -662.55220113 1420.57482269 -687.69750812 1420.67848386 C-691.24440839 1420.69311028 -694.79130832 1420.7078162 -698.33820805 1420.72257215 C-699.03604339 1420.72547329 -699.73387874 1420.72837444 -700.4528606 1420.7313635 C-711.66617976 1420.77818384 -722.87945394 1420.83210811 -734.09272727 1420.88876043 C-745.33386362 1420.94541162 -756.57501386 1420.99457325 -767.81621638 1421.03652401 C-773.90148132 1421.05945848 -779.9866847 1421.08572957 -786.07189259 1421.1208418 C-791.63892622 1421.15289452 -797.20591632 1421.17561041 -802.77302065 1421.19084387 C-804.78788148 1421.19801629 -806.80273355 1421.20864007 -808.8175557 1421.22303839 C-811.55371132 1421.24209189 -814.28962433 1421.24862502 -817.02583775 1421.25204259 C-817.80931714 1421.26050531 -818.59279652 1421.26896803 -819.40001771 1421.27768719 C-824.53362104 1421.26634474 -828.89190184 1420.40374816 -833.84100041 1419.03718168 C-836.83109304 1418.71504732 -836.83109304 1418.71504732 -839.71990666 1418.69343168 C-840.79474308 1418.66523343 -841.86957951 1418.63703519 -842.97698674 1418.60798246 C-844.673111 1418.57293607 -844.673111 1418.57293607 -846.40350041 1418.53718168 C-899.16698553 1416.97759899 -899.16698553 1416.97759899 -918.84100041 1402.03718168 C-919.50615666 1401.53702543 -920.17131291 1401.03686918 -920.85662541 1400.52155668 C-936.23533915 1388.04905656 -944.3600469 1369.30259601 -946.84100041 1350.03718168 C-947.29561396 1344.37711222 -947.59591943 1338.70694577 -947.90350041 1333.03718168 C-947.94802342 1332.2239343 -947.99254643 1331.41068692 -948.03841862 1330.57279569 C-948.65519589 1319.07925609 -949.02778849 1307.60992298 -949.02850041 1296.09968168 C-949.02922551 1294.88345121 -949.0299506 1293.66722074 -949.03069767 1292.4141348 C-948.99554079 1286.70370943 -948.80428857 1281.04159976 -948.36517033 1275.34748441 C-946.27832055 1246.86696029 -946.68504127 1218.27335019 -946.71062931 1189.73640043 C-946.71632527 1183.3268197 -946.71303503 1176.91728089 -946.70705685 1170.50770169 C-946.7033948 1165.47451586 -946.70461532 1160.44133952 -946.70718464 1155.40815336 C-946.70783842 1153.04853416 -946.70708172 1150.68891402 -946.70470509 1148.32929593 C-946.69500446 1136.00137803 -946.85593083 1123.70503057 -947.34199223 1111.38619882 C-947.8583248 1097.30444609 -947.97693811 1083.24578279 -947.9545258 1069.15603238 C-947.9542448 1066.58730099 -947.95441068 1064.01856951 -947.95497689 1061.44983816 C-947.95550291 1055.92435743 -947.95240279 1050.39888872 -947.94674763 1044.873411 C-947.93835793 1036.65191762 -947.93591616 1028.43042948 -947.9346233 1020.20893229 C-947.9323003 1006.34312415 -947.92547351 992.47732183 -947.9161652 978.61151677 C-947.90345045 959.57576568 -947.89749308 940.54001646 -947.89323184 921.50426181 C-947.89122631 912.58380645 -947.88889826 903.66335117 -947.88648686 894.7428959 C-947.88624584 893.84988895 -947.88600483 892.956882 -947.88575651 892.03681424 C-947.87995441 870.81484916 -947.87100384 849.59288561 -947.86150822 828.37092191 C-947.86109458 827.44376096 -947.86068093 826.51660002 -947.86025475 825.56134328 C-947.85272245 808.69004521 -947.84493812 791.81874725 -947.83709634 774.94744931 C-947.83148819 762.87897146 -947.82594574 750.81049358 -947.8204926 738.74201566 C-947.82007801 737.82710913 -947.81966342 736.91220259 -947.81923626 735.96957162 C-947.80972198 714.93456115 -947.80117814 693.89955086 -947.79551396 672.86453897 C-947.79515247 671.52407291 -947.79515247 671.52407291 -947.79478367 670.15652673 C-947.7923929 661.21204406 -947.79016546 652.26756137 -947.78817743 643.32307861 C-947.78411658 625.20124469 -947.77805978 607.07941653 -947.76583561 588.95758611 C-947.75290639 569.60561919 -947.74401212 550.25365518 -947.74334416 530.90168363 C-947.74331182 530.13432658 -947.74327948 529.36696952 -947.74324616 528.57635923 C-947.74219588 480.25327752 -948.01760031 431.93882642 -948.54519483 383.61825359 C-948.56175851 382.10024619 -948.56175851 382.10024619 -948.57865681 380.55157197 C-948.6005341 378.54831299 -948.62247365 376.54505469 -948.64447801 374.54179709 C-948.94050257 347.42253823 -948.98944399 320.30477131 -948.97532591 293.18400508 C-948.97375303 289.15731639 -948.97391374 285.13063142 -948.97481617 281.10394269 C-948.97496941 280.41196613 -948.97512264 279.71998957 -948.97528052 279.00704402 C-948.97560052 277.59751519 -948.97592474 276.18798637 -948.97625311 274.77845754 C-948.97901172 261.99509592 -948.97597108 249.21174183 -948.97045274 236.42838146 C-948.96590803 225.56132431 -948.96684077 214.69427775 -948.9713715 203.82722074 C-948.97674813 190.92671858 -948.97882308 178.02622261 -948.97575924 165.12571949 C-948.9754409 163.74965563 -948.97512653 162.37359176 -948.97481617 160.9975279 C-948.9746619 160.32179734 -948.97450762 159.64606679 -948.97434867 158.94985955 C-948.97349899 154.27661735 -948.9749626 149.60337937 -948.97729573 144.93013746 C-948.98020864 138.67269712 -948.97813683 132.41527684 -948.97240147 126.15783864 C-948.97109677 123.89089918 -948.97142814 121.62395798 -948.97366413 119.35701925 C-948.98391823 107.89723889 -948.85862454 96.457343 -948.41103825 85.00535184 C-948.35607676 83.5325871 -948.35607676 83.5325871 -948.30000493 82.03006953 C-947.25558711 58.07130156 -938.72772078 37.2635282 -921.16912541 20.88874418 C-900.93321233 2.99135996 -870.48817717 2.83565969 -844.8924543 2.95140547 C-842.28191743 2.96314138 -839.67142544 2.96841612 -837.06086573 2.97243768 C-833.13876827 2.97907811 -829.21668904 2.98833944 -825.29460177 2.99946481 C-813.82510743 3.03065974 -802.35557475 3.03620539 -790.88604435 3.04230863 C-789.61483017 3.04307997 -788.343616 3.04385131 -787.03388017 3.04464602 C-751.3117662 3.06316243 -715.59017061 2.9153352 -679.8684034 2.77275993 C-676.17133069 2.75803993 -672.47425736 2.74348239 -668.77718401 2.72892429 C-647.35487872 2.6445396 -625.93258467 2.55752499 -604.51029575 2.46908975 C-589.0586982 2.40530987 -573.60709691 2.34252718 -558.15549168 2.28063565 C-556.59814799 2.27439709 -556.59814799 2.27439709 -555.00934281 2.2680325 C-549.73273053 2.24689969 -544.45611819 2.22578272 -539.17950583 2.2046721 C-502.16122788 2.05654431 -465.14295759 1.90658055 -428.12469181 1.75544339 C-392.27085415 1.60906588 -356.41701351 1.46345592 -320.56316838 1.31891996 C-319.45140247 1.31443779 -318.33963655 1.30995562 -317.19418077 1.30533763 C-301.601575 1.24247649 -286.00896903 1.17966473 -270.41636299 1.11686991 C-253.13563391 1.04727589 -235.85490488 0.97766681 -218.57417597 0.9080297 C-215.40253287 0.89524911 -212.23088976 0.88247018 -209.05924666 0.86969125 C-181.17635575 0.75733872 -153.29346718 0.64442275 -125.4105808 0.5309542 C-118.55165579 0.50304394 -111.69273065 0.47516734 -104.83380541 0.44731504 C-103.41613865 0.44155801 -103.41613865 0.44155801 -101.96983216 0.43568469 C-98.21257062 0.42042742 -94.45530907 0.40517113 -90.69804751 0.38991921 C-79.96025729 0.34633004 -69.22246758 0.30262278 -58.48467874 0.25869591 C-51.93361736 0.23190587 -45.38255542 0.20525758 -38.831493 0.17872302 C-35.09982471 0.16360289 -31.36815672 0.14841608 -27.63648945 0.13304615 C-23.61688572 0.11649058 -19.59728079 0.10024766 -15.57767567 0.08403379 C-13.84389433 0.07681423 -13.84389433 0.07681423 -12.0750871 0.06944883 C-9.96484609 0.0610353 -7.85459827 0.05413375 -5.74434656 0.04907143 C-3.82951056 0.04122981 -1.91468808 0.02505854 0 0 Z " fill="#F9ECE5" transform="translate(949.8410004079342,248.9628183245659)"/>
<path d="M0 0 C1.31567171 -0.01325696 1.31567171 -0.01325696 2.65792266 -0.02678174 C3.41596632 -0.03768862 4.17400999 -0.04859551 4.95502467 -0.0598329 C7.36534137 0.04626443 9.56436105 0.47257844 11.91290584 1.01374418 C18.27578232 2.42331268 24.60436414 2.32960276 31.09649959 2.41218168 C55.01690753 2.98505485 81.12265532 4.05383602 100.15899959 20.03718168 C101.32689022 20.94597074 101.32689022 20.94597074 102.51837459 21.87311918 C118.68897118 35.08839984 125.48894474 55.07000398 127.72066036 75.23213369 C128.22502761 80.39141067 128.48783364 85.55214334 128.70758358 90.7304495 C128.75032878 91.73542938 128.79307397 92.74040926 128.83711448 93.77584308 C129.24508207 104.08441732 129.28525228 114.37982466 129.25665584 124.69489652 C129.25474317 126.80377365 129.25330946 128.91265126 129.25229946 131.02152902 C129.24917366 135.62617691 129.24291581 140.23080627 129.23430172 144.83544713 C129.22129765 151.90414138 129.21493392 158.97283297 129.21027765 166.04153664 C129.20798524 169.51835309 129.20546596 172.99516937 129.20290676 176.47198564 C129.20238753 177.17856842 129.2018683 177.88515119 129.20133334 178.61314557 C129.19567623 186.0821611 129.18767358 193.5511739 129.17976114 201.02018731 C129.14376557 235.22276209 129.13249731 269.42534766 129.12812939 303.62793967 C129.12774747 306.55734492 129.12731382 309.48675016 129.12687793 312.4161554 C129.11568335 392.71210506 129.23365869 473.00773368 129.37359545 553.30353032 C129.37914221 556.48939586 129.38466726 559.67526143 129.39019229 562.86112701 C129.49648462 624.14164455 129.6082469 685.42215214 129.72722486 746.70264639 C129.87394288 822.271198 130.02000018 897.83975916 130.24772087 1145.59415271 C130.25069448 1157.10424543 130.25618782 1168.61433476 130.26314083 1180.12442571 C130.27094256 1193.10023556 130.27486836 1206.07604058 130.27387467 1219.05185287 C130.27344312 1225.62883468 130.27448664 1232.20580842 130.27993503 1238.78278881 C130.29831176 1262.69230624 130.27043525 1286.60262627 129.88775489 1310.50963143 C129.85627387 1312.55341527 129.82887724 1314.59726757 129.80626139 1316.64116874 C129.46992219 1345.44194691 126.96581828 1374.15918512 106.15899959 1396.03718168 C84.74828516 1416.7572279 55.89828525 1418.2637708 27.57764164 1418.1124838 C24.98902689 1418.09895677 22.4004607 1418.0923572 19.81181636 1418.08710843 C15.87894088 1418.07869608 11.94608188 1418.06794473 8.01321712 1418.05549222 C-3.48894712 1418.02063165 -14.99113243 1418.01049707 -26.49334416 1418.00593168 C-27.80600191 1418.00538282 -29.11865967 1418.00483396 -30.47109494 1418.00426847 C-58.22105034 1417.99627591 -85.97033475 1418.12045679 -113.71990666 1418.25593168 C-114.84242754 1418.26140893 -115.96494842 1418.26688619 -117.12148508 1418.27252942 C-140.06952242 1418.38493072 -163.01751738 1418.50541445 -185.96550217 1418.62802249 C-194.8131272 1418.67528663 -203.66075566 1418.721876 -212.50838593 1418.76814872 C-217.6719364 1418.79525041 -222.83548262 1418.82290157 -227.99902233 1418.85198575 C-229.47225133 1418.86023539 -229.47225133 1418.86023539 -230.97524253 1418.86865169 C-232.75421137 1418.87865998 -234.53317949 1418.88879831 -236.31214646 1418.89913589 C-239.28798634 1418.91584863 -242.26383071 1418.93083322 -245.23968205 1418.9453848 C-246.01505275 1418.94925107 -246.79042344 1418.95311734 -247.58929022 1418.95710076 C-260.74996534 1419.02133432 -273.91006051 1419.04342799 -287.07087085 1419.03172477 C-312.85165163 1419.01176315 -338.63137252 1419.11213437 -364.41180262 1419.23558575 C-370.61975514 1419.26503973 -376.82771377 1419.29314976 -383.03567204 1419.32136136 C-390.99736498 1419.35760768 -398.95905747 1419.39393729 -406.92074761 1419.43079382 C-425.84380979 1419.51834457 -444.76688452 1419.60260571 -463.68997184 1419.68453926 C-465.8543248 1419.69391066 -468.01867772 1419.70329059 -470.18303064 1419.71267243 C-481.92663581 1419.76356882 -493.67024165 1419.81430925 -505.41384766 1419.86501357 C-515.91528208 1419.9103607 -526.41671588 1419.95585195 -536.91814885 1420.00153714 C-537.665894 1420.00478835 -538.41363916 1420.00803955 -539.18404327 1420.01138928 C-563.54328589 1420.11734757 -587.90249615 1420.22942048 -612.261698 1420.34433881 C-637.40693882 1420.46292882 -662.55220113 1420.57482269 -687.69750812 1420.67848386 C-691.24440839 1420.69311028 -694.79130832 1420.7078162 -698.33820805 1420.72257215 C-699.03604339 1420.72547329 -699.73387874 1420.72837444 -700.4528606 1420.7313635 C-711.66617976 1420.77818384 -722.87945394 1420.83210811 -734.09272727 1420.88876043 C-745.33386362 1420.94541162 -756.57501386 1420.99457325 -767.81621638 1421.03652401 C-773.90148132 1421.05945848 -779.9866847 1421.08572957 -786.07189259 1421.1208418 C-791.63892622 1421.15289452 -797.20591632 1421.17561041 -802.77302065 1421.19084387 C-804.78788148 1421.19801629 -806.80273355 1421.20864007 -808.8175557 1421.22303839 C-811.55371132 1421.24209189 -814.28962433 1421.24862502 -817.02583775 1421.25204259 C-817.80931714 1421.26050531 -818.59279652 1421.26896803 -819.40001771 1421.27768719 C-824.53362104 1421.26634474 -828.89190184 1420.40374816 -833.84100041 1419.03718168 C-836.83109304 1418.71504732 -836.83109304 1418.71504732 -839.71990666 1418.69343168 C-840.79474308 1418.66523343 -841.86957951 1418.63703519 -842.97698674 1418.60798246 C-844.673111 1418.57293607 -844.673111 1418.57293607 -846.40350041 1418.53718168 C-899.16698553 1416.97759899 -899.16698553 1416.97759899 -918.84100041 1402.03718168 C-919.50615666 1401.53702543 -920.17131291 1401.03686918 -920.85662541 1400.52155668 C-936.23533915 1388.04905656 -944.3600469 1369.30259601 -946.84100041 1350.03718168 C-947.29561396 1344.37711222 -947.59591943 1338.70694577 -947.90350041 1333.03718168 C-947.94802342 1332.2239343 -947.99254643 1331.41068692 -948.03841862 1330.57279569 C-948.65519589 1319.07925609 -949.02778849 1307.60992298 -949.02850041 1296.09968168 C-949.02922551 1294.88345121 -949.0299506 1293.66722074 -949.03069767 1292.4141348 C-948.99554079 1286.70370943 -948.80428857 1281.04159976 -948.36517033 1275.34748441 C-946.27832055 1246.86696029 -946.68504127 1218.27335019 -946.71062931 1189.73640043 C-946.71632527 1183.3268197 -946.71303503 1176.91728089 -946.70705685 1170.50770169 C-946.7033948 1165.47451586 -946.70461532 1160.44133952 -946.70718464 1155.40815336 C-946.70783842 1153.04853416 -946.70708172 1150.68891402 -946.70470509 1148.32929593 C-946.69500446 1136.00137803 -946.85593083 1123.70503057 -947.34199223 1111.38619882 C-947.8583248 1097.30444609 -947.97693811 1083.24578279 -947.9545258 1069.15603238 C-947.9542448 1066.58730099 -947.95441068 1064.01856951 -947.95497689 1061.44983816 C-947.95550291 1055.92435743 -947.95240279 1050.39888872 -947.94674763 1044.873411 C-947.93835793 1036.65191762 -947.93591616 1028.43042948 -947.9346233 1020.20893229 C-947.9323003 1006.34312415 -947.92547351 992.47732183 -947.9161652 978.61151677 C-947.90345045 959.57576568 -947.89749308 940.54001646 -947.89323184 921.50426181 C-947.89122631 912.58380645 -947.88889826 903.66335117 -947.88648686 894.7428959 C-947.88624584 893.84988895 -947.88600483 892.956882 -947.88575651 892.03681424 C-947.87995441 870.81484916 -947.87100384 849.59288561 -947.86150822 828.37092191 C-947.86109458 827.44376096 -947.86068093 826.51660002 -947.86025475 825.56134328 C-947.85272245 808.69004521 -947.84493812 791.81874725 -947.83709634 774.94744931 C-947.83148819 762.87897146 -947.82594574 750.81049358 -947.8204926 738.74201566 C-947.82007801 737.82710913 -947.81966342 736.91220259 -947.81923626 735.96957162 C-947.80972198 714.93456115 -947.80117814 693.89955086 -947.79551396 672.86453897 C-947.79515247 671.52407291 -947.79515247 671.52407291 -947.79478367 670.15652673 C-947.7923929 661.21204406 -947.79016546 652.26756137 -947.78817743 643.32307861 C-947.78411658 625.20124469 -947.77805978 607.07941653 -947.76583561 588.95758611 C-947.75290639 569.60561919 -947.74401212 550.25365518 -947.74334416 530.90168363 C-947.74331182 530.13432658 -947.74327948 529.36696952 -947.74324616 528.57635923 C-947.74219588 480.25327752 -948.01760031 431.93882642 -948.54519483 383.61825359 C-948.56175851 382.10024619 -948.56175851 382.10024619 -948.57865681 380.55157197 C-948.6005341 378.54831299 -948.62247365 376.54505469 -948.64447801 374.54179709 C-948.94050257 347.42253823 -948.98944399 320.30477131 -948.97532591 293.18400508 C-948.97375303 289.15731639 -948.97391374 285.13063142 -948.97481617 281.10394269 C-948.97496941 280.41196613 -948.97512264 279.71998957 -948.97528052 279.00704402 C-948.97560052 277.59751519 -948.97592474 276.18798637 -948.97625311 274.77845754 C-948.97901172 261.99509592 -948.97597108 249.21174183 -948.97045274 236.42838146 C-948.96590803 225.56132431 -948.96684077 214.69427775 -948.9713715 203.82722074 C-948.97674813 190.92671858 -948.97882308 178.02622261 -948.97575924 165.12571949 C-948.9754409 163.74965563 -948.97512653 162.37359176 -948.97481617 160.9975279 C-948.9746619 160.32179734 -948.97450762 159.64606679 -948.97434867 158.94985955 C-948.97349899 154.27661735 -948.9749626 149.60337937 -948.97729573 144.93013746 C-948.98020864 138.67269712 -948.97813683 132.41527684 -948.97240147 126.15783864 C-948.97109677 123.89089918 -948.97142814 121.62395798 -948.97366413 119.35701925 C-948.98391823 107.89723889 -948.85862454 96.457343 -948.41103825 85.00535184 C-948.35607676 83.5325871 -948.35607676 83.5325871 -948.30000493 82.03006953 C-947.25558711 58.07130156 -938.72772078 37.2635282 -921.16912541 20.88874418 C-900.93321233 2.99135996 -870.48817717 2.83565969 -844.8924543 2.95140547 C-842.28191743 2.96314138 -839.67142544 2.96841612 -837.06086573 2.97243768 C-833.13876827 2.97907811 -829.21668904 2.98833944 -825.29460177 2.99946481 C-813.82510743 3.03065974 -802.35557475 3.03620539 -790.88604435 3.04230863 C-789.61483017 3.04307997 -788.343616 3.04385131 -787.03388017 3.04464602 C-751.3117662 3.06316243 -715.59017061 2.9153352 -679.8684034 2.77275993 C-676.17133069 2.75803993 -672.47425736 2.74348239 -668.77718401 2.72892429 C-647.35487872 2.6445396 -625.93258467 2.55752499 -604.51029575 2.46908975 C-589.0586982 2.40530987 -573.60709691 2.34252718 -558.15549168 2.28063565 C-556.59814799 2.27439709 -556.59814799 2.27439709 -555.00934281 2.2680325 C-549.73273053 2.24689969 -544.45611819 2.22578272 -539.17950583 2.2046721 C-502.16122788 2.05654431 -465.14295759 1.90658055 -428.12469181 1.75544339 C-392.27085415 1.60906588 -356.41701351 1.46345592 -320.56316838 1.31891996 C-319.45140247 1.31443779 -318.33963655 1.30995562 -317.19418077 1.30533763 C-301.601575 1.24247649 -286.00896903 1.17966473 -270.41636299 1.11686991 C-253.13563391 1.04727589 -235.85490488 0.97766681 -218.57417597 0.9080297 C-215.40253287 0.89524911 -212.23088976 0.88247018 -209.05924666 0.86969125 C-181.17635575 0.75733872 -153.29346718 0.64442275 -125.4105808 0.5309542 C-118.55165579 0.50304394 -111.69273065 0.47516734 -104.83380541 0.44731504 C-103.41613865 0.44155801 -103.41613865 0.44155801 -101.96983216 0.43568469 C-98.21257062 0.42042742 -94.45530907 0.40517113 -90.69804751 0.38991921 C-79.96025729 0.34633004 -69.22246758 0.30262278 -58.48467874 0.25869591 C-51.93361736 0.23190587 -45.38255542 0.20525758 -38.831493 0.17872302 C-35.09982471 0.16360289 -31.36815672 0.14841608 -27.63648945 0.13304615 C-23.61688572 0.11649058 -19.59728079 0.10024766 -15.57767567 0.08403379 C-13.84389433 0.07681423 -13.84389433 0.07681423 -12.0750871 0.06944883 C-9.96484609 0.0610353 -7.85459827 0.05413375 -5.74434656 0.04907143 C-3.82951056 0.04122981 -1.91468808 0.02505854 0 0 Z M-818.57267192 33.33497307 C-821.38297172 33.3575739 -824.19325718 33.37506296 -827.00360236 33.39092785 C-831.21953442 33.41544185 -835.43507122 33.45418046 -839.65075985 33.5055429 C-841.13003407 33.52154087 -842.6093683 33.53289237 -844.08871701 33.53885409 C-854.8134638 33.58746137 -864.39029325 34.31105197 -873.05584416 41.15046293 C-875.13945363 43.35261473 -876.2862858 45.58780924 -877.65350041 48.28718168 C-880.10504781 52.76275867 -880.10504781 52.76275867 -883.37615666 53.98249418 C-885.27705914 54.27011353 -887.18586678 54.50943115 -889.09881291 54.70124418 C-896.05776226 55.55376504 -902.19010236 59.94957958 -906.84100041 65.03718168 C-916.27378602 77.83565606 -916.27485617 90.45203486 -916.21852383 105.72182542 C-916.22165453 107.85792266 -916.22609923 109.99401831 -916.23173693 112.13011041 C-916.24343896 118.01457563 -916.23641877 123.89889355 -916.22640307 129.78335641 C-916.21880527 136.17974754 -916.22856785 142.57611576 -916.23613307 148.97250366 C-916.24750916 160.18794592 -916.24673267 171.40334901 -916.23899159 182.61879331 C-916.23073644 194.65235216 -916.22899792 206.68588563 -916.23520359 218.719446 C-916.23559111 219.47963285 -916.23597863 220.23981969 -916.23637789 221.0230425 C-916.23797771 224.11919512 -916.23962384 227.21534771 -916.24132872 230.31150027 C-916.25719631 259.14822021 -916.25827296 287.98492314 -916.24988636 316.82164556 C-916.24963798 317.67611296 -916.24938959 318.53058036 -916.24913368 319.41094071 C-916.24888489 320.26677564 -916.2486361 321.12261057 -916.24837977 322.0043799 C-916.24081236 348.0705546 -916.23885505 374.13672227 -916.2424477 400.20289785 C-916.24268014 401.94793498 -916.24291161 403.69297212 -916.24314211 405.43800925 C-916.24407351 412.45050023 -916.2450295 419.4629912 -916.24602141 426.47548217 C-916.24877255 446.07898617 -916.25048427 465.68249018 -916.25137982 485.28599435 C-916.25142076 486.17872636 -916.25146169 487.07145837 -916.25150387 487.99124287 C-916.25273187 516.44146956 -916.24935022 544.8916938 -916.24283108 573.34191972 C-916.24262033 574.26479342 -916.24240959 575.18766713 -916.24219245 576.1385067 C-916.23875755 591.12564896 -916.23509919 606.11279117 -916.23142193 621.09993338 C-916.21685464 680.53418244 -916.21752728 739.96841122 -916.23211369 799.40266019 C-916.23577724 814.37864443 -916.23941039 829.35462867 -916.24283108 844.33061296 C-916.24304243 845.25273166 -916.24325377 846.17485037 -916.24347152 847.12491207 C-916.24994008 875.5426049 -916.25268289 903.96029605 -916.25137982 932.37798959 C-916.25133906 933.27010764 -916.25129831 934.16222569 -916.25125632 935.08137761 C-916.25031888 954.66489531 -916.24841796 974.24841284 -916.24564831 993.83193036 C-916.24466088 1000.83912307 -916.24372164 1007.84631577 -916.24279618 1014.85350849 C-916.24256401 1016.59673004 -916.24232782 1018.3399516 -916.24208759 1020.08317315 C-916.23850655 1046.1405482 -916.24155667 1072.19791532 -916.24913368 1098.25528937 C-916.24938206 1099.10950839 -916.24963045 1099.9637274 -916.24988636 1100.84383184 C-916.25013441 1101.69647636 -916.25038246 1102.54912087 -916.25063802 1103.42760311 C-916.25891218 1132.18397491 -916.25586996 1160.9403263 -916.24004413 1189.69669519 C-916.23838707 1192.78470149 -916.23677695 1195.87270781 -916.23520359 1198.96071416 C-916.23481297 1199.71856539 -916.23442235 1200.47641662 -916.2340199 1201.25723303 C-916.22810279 1213.25711555 -916.23222238 1225.25697269 -916.24051061 1237.25685291 C-916.24844668 1249.05638861 -916.24540756 1260.85587823 -916.23146835 1272.65540868 C-916.22431617 1278.96726104 -916.22192484 1285.27901719 -916.2326863 1291.5908666 C-916.24237718 1297.33324419 -916.23825999 1303.07544022 -916.22314432 1308.81780457 C-916.22012357 1310.8819016 -916.22211924 1312.94601366 -916.22976213 1315.01009875 C-916.28279639 1330.42725346 -916.08642616 1344.52871008 -905.84100041 1357.03718168 C-900.26913815 1362.58592417 -893.16058176 1365.60353564 -885.63787541 1367.63093168 C-880.05820293 1369.24946262 -878.39668689 1371.84471857 -875.47381291 1376.74811918 C-871.7864443 1381.91749239 -865.76317828 1385.03350972 -859.84100041 1387.03718168 C-856.55167206 1387.35975531 -856.55167206 1387.35975531 -852.90968022 1387.34710294 C-852.21681552 1387.35625618 -851.52395082 1387.36540941 -850.81009021 1387.37484002 C-848.46598082 1387.40320605 -846.1220036 1387.41735038 -843.77776799 1387.43146878 C-842.06143589 1387.44876324 -840.34511135 1387.46682206 -838.62879452 1387.48557073 C-833.83652741 1387.53494192 -829.04423666 1387.57099629 -824.25183544 1387.60448939 C-821.14148444 1387.62725634 -818.03118564 1387.65367667 -814.92087445 1387.68132955 C-752.43599827 1388.23659846 -689.94707309 1388.36744505 -627.46023832 1388.54722618 C-614.65852143 1388.58407283 -601.85681464 1388.62345067 -589.05511174 1388.66486722 C-587.35307071 1388.67036655 -585.65102968 1388.67586534 -583.94898865 1388.68136358 C-582.68681211 1388.68544119 -582.68681211 1388.68544119 -581.39913706 1388.68960117 C-580.55851136 1388.69231638 -579.71788567 1388.69503158 -578.85178646 1388.69782907 C-578.01204025 1388.70054173 -577.17229404 1388.70325438 -576.30710097 1388.70604924 C-489.7292234 1388.98534898 -403.15316692 1389.16692659 -233.84810624 1388.69782907 C-233.02688855 1388.69511386 -232.20567087 1388.69239866 -231.35956781 1388.68960117 C-230.53747634 1388.68688277 -229.71538487 1388.68416436 -228.86838153 1388.68136358 C-228.04546706 1388.67864292 -227.22255259 1388.67592226 -226.37470131 1388.67311915 C-224.71060102 1388.66761668 -223.04650073 1388.66211049 -221.38240046 1388.65660057 C-207.95800862 1388.61222651 -194.53360822 1388.57159199 -181.10919997 1388.53252906 C-167.01560736 1388.49146757 -152.92202691 1388.44732939 -138.82845291 1388.40030313 C-131.03821626 1388.37437085 -123.24798063 1388.3495275 -115.45773014 1388.32810766 C-84.34407995 1388.2417048 -53.23435759 1388.06521565 -22.12364301 1387.61097561 C-20.04166609 1387.58072199 -17.95967888 1387.5512913 -15.87768826 1387.52199835 C-8.16582439 1387.41107897 -0.45515584 1387.27193734 7.25576702 1387.10846955 C10.66937551 1387.04612407 14.08188991 1387.00674634 17.49585971 1386.9777476 C20.31355885 1386.94920956 23.13069187 1386.90036988 25.94802836 1386.84747691 C27.9129334 1386.81681622 29.87816958 1386.81031546 31.84330574 1386.80467582 C40.79198034 1386.6098106 47.96270556 1385.02500598 54.59649959 1378.72077543 C55.11212459 1377.97956449 55.62774959 1377.23835355 56.15899959 1376.47468168 C56.69524959 1375.73089261 57.23149959 1374.98710355 57.78399959 1374.22077543 C59.22171773 1372.11457779 59.22171773 1372.11457779 59.93634334 1369.84577543 C61.15899959 1368.03718168 61.15899959 1368.03718168 64.10040584 1367.20124418 C65.29536678 1367.02335355 66.49032772 1366.84546293 67.72149959 1366.66218168 C77.67268537 1364.7492748 83.70585402 1360.64625866 89.65509334 1352.47468168 C94.7910443 1344.15043908 96.31181222 1336.07083278 96.28895143 1326.40969926 C96.29180029 1325.09944325 96.29180029 1325.09944325 96.2947067 1323.76271741 C96.29988308 1320.81543854 96.29791273 1317.86820717 96.29601398 1314.92092496 C96.29826953 1312.78554069 96.30096073 1310.65015684 96.30404982 1308.51477361 C96.31130257 1302.60901955 96.31227909 1296.70327819 96.31227259 1290.79752028 C96.31333991 1284.38669835 96.32012791 1277.97588211 96.3261793 1271.5650633 C96.33615519 1260.31653313 96.3420057 1249.06800511 96.34549633 1237.81947118 C96.34924952 1225.74672918 96.35512138 1213.67399108 96.36357418 1201.60125142 C96.36410527 1200.83937822 96.36463637 1200.07750501 96.36518355 1199.29254474 C96.36735024 1196.18965579 96.36952686 1193.08676685 96.37171749 1189.98387792 C96.39822875 1152.35505112 96.41378592 1114.72622224 96.42688038 1077.09738872 C96.43112974 1064.89625371 96.43569736 1052.69511886 96.44046369 1040.49398404 C96.46537081 976.58709958 96.48743487 912.68021467 96.49965407 848.7733264 C96.50055145 844.09479084 96.50146615 839.41625527 96.50238181 834.73771971 C96.50256342 833.80964126 96.50274503 832.88156281 96.50293215 831.92536076 C96.50477484 822.52252847 96.50664069 813.11969618 96.50853024 803.71686389 C96.50890829 801.83155982 96.50928458 799.94625576 96.50965912 798.06095169 C96.52168993 737.50805588 96.55137974 676.95518879 96.59307424 616.40230652 C96.62302153 572.89687665 96.65065107 529.39145267 96.6603519 485.88601285 C96.66055246 484.99141141 96.66075301 484.09680996 96.66095965 483.17509938 C96.66531013 463.53682761 96.66825594 443.89855586 96.66988616 424.26028368 C96.67056252 416.35871703 96.67141804 408.4571504 96.67232433 400.55558378 C96.67241843 399.69080171 96.67251252 398.82601964 96.67260947 397.93503205 C96.67572229 370.07248174 96.69423477 342.20996798 96.7206743 314.34743083 C96.74721645 286.28428674 96.7579682 258.22118344 96.74693831 230.15802759 C96.74541677 226.28012525 96.74407135 222.40222287 96.74283138 218.52432042 C96.74258165 217.76414433 96.74233192 217.00396823 96.74207463 216.2207565 C96.73857962 204.18384433 96.75189071 192.14701175 96.77220911 180.11011869 C96.79184055 168.27408071 96.79322411 156.43816015 96.77648283 144.60211686 C96.76804564 138.27056386 96.76757882 131.93928324 96.78909428 125.60775512 C96.808512 119.84739664 96.80489872 114.08752878 96.7829408 108.32718361 C96.77907768 106.25660009 96.78358985 104.18597957 96.79752781 102.11543935 C96.89659316 86.37899069 95.28597931 73.29882868 83.69024959 61.54890043 C79.52845953 57.79664821 74.97091192 55.56467483 69.51446834 54.54108793 C62.10688562 53.07173157 62.10688562 53.07173157 59.10821834 49.79890043 C57.93796399 48.0474111 56.80059881 46.27347591 55.69806209 44.47858793 C52.05192203 38.69473631 46.74408921 35.6805174 40.15899959 34.03718168 C35.54246037 33.56644761 30.93023287 33.54987018 26.29407039 33.53013211 C24.83249567 33.51339708 23.37093343 33.49554206 21.9093844 33.47669655 C17.78221122 33.42810337 13.65510127 33.39983194 9.52772292 33.37537852 C6.79538572 33.35767017 4.06314632 33.33448597 1.33086553 33.30959707 C-62.91944831 32.72668922 -127.17916965 32.89061295 -191.43145679 32.90187936 C-205.06070595 32.90422598 -218.68995393 32.90446762 -232.31920323 32.90336591 C-233.29978642 32.90328952 -234.28036961 32.90321314 -235.29066745 32.90313444 C-239.27467175 32.90282292 -243.25867606 32.9025045 -247.24268036 32.90217468 C-284.3571214 32.89913903 -321.47156 32.9018514 -358.58600066 32.90727157 C-391.30104746 32.91201304 -424.01609036 32.91159107 -456.73113713 32.90681058 C-493.78673337 32.90141347 -530.84232746 32.8993561 -567.89792404 32.90242285 C-571.87446087 32.90274339 -575.8509977 32.90305624 -579.82753453 32.90336591 C-580.80611892 32.90344499 -581.78470331 32.90352406 -582.79294178 32.90360554 C-596.38626478 32.90465254 -609.97958636 32.90376211 -623.57290917 32.90137689 C-721.07372413 32.83024549 -721.07372413 32.83024549 -818.57267192 33.33497307 Z " fill="#F9ECE5" transform="translate(949.8410004079342,248.9628183245659)"/>
<path d="M0 0 C13.62727028 0.00234789 27.25453937 0.00258774 40.88180979 0.00148655 C42.35314289 0.00137197 42.35314289 0.00137197 43.85419989 0.00125508 C47.83948388 0.00094356 51.82476786 0.00062514 55.81005185 0.00029531 C92.91769703 -0.00273878 130.02533977 -0.00003014 167.13298457 0.00539221 C199.84864602 0.01013651 232.56430358 0.009709 265.279965 0.00493122 C302.34141155 -0.0004636 339.40285596 -0.00252477 376.46430285 0.00054348 C380.43958226 0.00086403 384.41486167 0.00117688 388.39014108 0.00148655 C389.36840917 0.00156562 390.34667725 0.0016447 391.35458983 0.00172618 C404.95088006 0.00277373 418.54716887 0.00188109 432.14345892 -0.00050354 C479.04634194 -0.00853981 525.9490561 0.00584613 572.85180072 0.13002282 C574.83534913 0.13521593 576.81889814 0.14017426 578.80244716 0.14512862 C593.17871841 0.18152314 607.5544728 0.23781943 621.93034656 0.35278607 C625.52380422 0.38125797 629.11713836 0.40153245 632.71068771 0.41360904 C636.69613714 0.42758863 640.68095924 0.46002247 644.66613151 0.5087863 C646.70449137 0.5295415 648.74301478 0.53179433 650.78147991 0.53305627 C659.29275218 0.66962714 666.78220232 1.73119926 673.48943765 7.31889606 C674.08885172 8.06268513 674.68826578 8.80647419 675.3058439 9.57280231 C675.92330484 10.31401325 676.54076578 11.05522419 677.17693765 11.81889606 C678.8683439 14.13530231 678.8683439 14.13530231 680.1027189 16.76030231 C682.62191051 20.14894943 685.75909685 20.71292114 689.6808439 21.69780231 C698.86926041 24.09441233 705.39962924 28.21905101 710.8683439 36.13530231 C714.73609695 43.98017932 717.01906636 50.77932441 716.9959944 59.51668907 C716.99764518 60.38788537 716.99929596 61.25908167 717.00099676 62.15667786 C717.0053484 65.1081512 717.00251213 68.0595753 716.99977167 71.01104999 C717.00142005 73.1447084 717.00350574 75.2783665 717.00599177 77.41202409 C717.01158449 83.32229828 717.01088127 89.23255805 717.00921418 95.14283404 C717.00848595 101.55504724 717.01349925 107.96725628 717.0177892 114.37946773 C717.02468033 125.63348503 717.02746757 136.88749908 717.02792414 148.14151836 C717.02842602 160.22154838 717.03106777 172.30157505 717.03633173 184.38160396 C717.03682693 185.52462914 717.03682693 185.52462914 717.03733213 186.69074573 C717.03868209 189.79416238 717.04004475 192.89757902 717.04142424 196.00099566 C717.05774034 232.77235904 717.06411461 269.54372178 717.06887211 306.31508816 C717.07125399 324.62119212 717.0749572 342.92729572 717.07890921 361.2333994 C717.09157497 419.93471281 717.10235868 478.6360262 717.10574966 537.33734096 C717.1059119 540.14389245 717.10607746 542.95044395 717.10624405 545.75699545 C717.10657785 551.38571462 717.10690833 557.01443379 717.10723861 562.64315296 C717.10762551 569.23321801 717.10801511 575.82328305 717.10840967 582.4133481 C717.10852209 584.29948883 717.10863351 586.18562957 717.10874392 588.0717703 C717.11229359 648.65200215 717.12737223 709.23222214 717.15068167 769.81244947 C717.1674207 813.33411398 717.1828973 856.85577626 717.18741663 900.37744404 C717.18751011 901.27228679 717.1876036 902.16712954 717.18769992 903.08908875 C717.18971887 922.73220547 717.19087499 942.37532215 717.1912285 962.01843897 C717.19136468 969.04703201 717.19157368 976.07562505 717.19182176 983.10421808 C717.19188332 984.8528036 717.19194164 986.60138911 717.19199671 988.34997463 C717.19291694 1016.22568532 717.20289024 1044.10138363 717.21745419 1071.97709025 C717.23206357 1100.05208645 717.23711614 1128.12706747 717.22903465 1156.20206681 C717.22791925 1160.08064191 717.2269086 1163.95921702 717.22596033 1167.83779217 C717.22577036 1168.59810915 717.22558039 1169.35842614 717.22538467 1170.14178304 C717.22264973 1182.18655495 717.22999712 1194.23129881 717.2415337 1206.27606462 C717.25266525 1218.11651794 717.25286389 1229.95692839 717.24216351 1241.79738243 C717.23674856 1248.13266937 717.23613482 1254.46785864 717.24867223 1260.80313767 C717.25997914 1266.56451892 717.25752197 1272.32572268 717.24400516 1278.08709767 C717.24156601 1280.16033595 717.24417324 1282.23358776 717.25240164 1284.30681114 C717.30929059 1299.64687547 716.67396284 1313.0551859 706.0870939 1325.17436481 C700.2965732 1330.75130073 693.11938915 1333.99592378 685.0558439 1334.26030231 C681.78044044 1334.79912349 681.78044044 1334.79912349 680.3917814 1337.20170856 C679.40228101 1338.97698868 678.42873359 1340.76123843 677.4699064 1342.55327106 C674.09251923 1347.99827819 668.82324227 1351.07979316 662.8683439 1353.13530231 C659.94925077 1353.4455374 659.94925077 1353.4455374 656.69373758 1353.53028465 C654.86142855 1353.58416042 654.86142855 1353.58416042 652.99210317 1353.63912458 C651.01718877 1353.68231701 651.01718877 1353.68231701 649.00237711 1353.72638202 C647.60920655 1353.76300255 646.21605275 1353.80026583 644.82291563 1353.83813698 C640.5050077 1353.95166835 636.18679672 1354.04526677 631.8683439 1354.13530231 C630.57302618 1354.1631779 629.27770845 1354.19105348 627.94313867 1354.21977378 C619.56197686 1354.39432364 611.18050851 1354.53079262 602.79837115 1354.64872666 C600.667874 1354.67881698 598.53739113 1354.70980161 596.40690859 1354.74090827 C565.27630393 1355.19186012 534.1461342 1355.34678076 503.01268651 1355.43238438 C495.15718782 1355.4541134 487.30170537 1355.48033604 479.44622059 1355.50654757 C465.32359096 1355.55353413 451.20095275 1355.59689316 437.07830484 1355.63798786 C423.66227998 1355.67703061 410.24626612 1355.71856679 396.83025797 1355.76298786 C395.16715957 1355.76848701 393.50406118 1355.7739858 391.84096278 1355.77948422 C391.01887131 1355.78220262 390.19677984 1355.78492103 389.3497765 1355.78772181 C388.52855882 1355.79043701 387.70734114 1355.79315222 386.86123808 1355.7959497 C386.04097865 1355.79866236 385.22071922 1355.80137502 384.37560344 1355.80416988 C298.30200587 1356.08843677 212.23030529 1356.2609919 41.85755785 1355.7959497 C41.01693215 1355.7932345 40.17630646 1355.79051929 39.31020726 1355.78772181 C38.04803072 1355.7836442 38.04803072 1355.7836442 36.76035567 1355.77948422 C35.91814499 1355.77676356 35.07593431 1355.77404289 34.20820209 1355.77123979 C32.50514864 1355.76573719 30.80209519 1355.76023099 29.09904176 1355.75472121 C17.14907154 1355.71611731 5.19909656 1355.67974403 -6.7508865 1355.6453511 C-42.75687241 1355.54169803 -78.76268954 1355.42464793 -114.76843769 1355.25601454 C-130.77116532 1355.18123455 -146.77357304 1355.12272371 -162.77648626 1355.10489995 C-172.06469175 1355.09363001 -181.35267942 1355.06325244 -190.64076804 1355.01521105 C-195.77483487 1354.98937459 -200.90844865 1354.97297958 -206.04258101 1354.98320461 C-210.65334349 1354.99234516 -215.26316187 1354.97449681 -219.87375371 1354.93459702 C-221.50863925 1354.92523295 -223.14362129 1354.92577423 -224.77848975 1354.93775321 C-235.42408676 1355.00929933 -244.96007657 1353.85434471 -253.15803568 1346.257509 C-255.36843075 1343.83330623 -256.95625379 1341.49256346 -258.4050936 1338.54155231 C-260.68757121 1335.36054278 -262.42987228 1335.09961524 -266.1941561 1334.19780231 C-276.72163041 1331.24683065 -284.4925782 1326.73373277 -290.1316561 1317.13530231 C-294.0053887 1308.63198683 -295.28383439 1300.65776358 -295.26045726 1291.40170682 C-295.26223227 1290.52888378 -295.26400728 1289.65606073 -295.26583608 1288.7567885 C-295.27058531 1285.81786233 -295.26820082 1282.87898505 -295.26587717 1279.94005657 C-295.26782986 1277.80832052 -295.27021861 1275.67658483 -295.27300514 1273.5448497 C-295.27941865 1267.6538932 -295.27956569 1261.76295031 -295.27872773 1255.87199098 C-295.27889697 1249.47548749 -295.28480008 1243.07898891 -295.28996859 1236.68248785 C-295.29839735 1225.46067673 -295.30272035 1214.23886832 -295.30469458 1203.01705433 C-295.30682263 1190.97375954 -295.31108146 1178.93046838 -295.3179373 1166.88717533 C-295.31836791 1166.12700277 -295.31879853 1165.36683022 -295.31924219 1164.58362213 C-295.32100053 1161.48763504 -295.32277017 1158.39164796 -295.32455521 1155.29566089 C-295.3461565 1117.7571265 -295.35703387 1080.21859139 -295.36603145 1042.6800522 C-295.36896513 1030.50852575 -295.37233498 1018.33699948 -295.37599866 1006.16547323 C-295.37625695 1005.30688668 -295.37651524 1004.44830012 -295.37678136 1003.5636958 C-295.37782758 1000.09019864 -295.378876 996.61670149 -295.37992718 993.14320434 C-295.39789144 933.73014048 -295.41327109 874.31707635 -295.42068621 814.90401016 C-295.42127019 810.23706965 -295.42186745 805.57012914 -295.42246383 800.90318863 C-295.42258195 799.97741175 -295.42270007 799.05163487 -295.42282177 798.09780415 C-295.42401916 788.71831266 -295.42522792 779.33882117 -295.4264543 769.95932968 C-295.42669954 768.07870774 -295.42694339 766.1980858 -295.42718587 764.31746387 C-295.43497674 703.90992669 -295.45736296 643.50240893 -295.4898623 583.09488024 C-295.51320529 539.69191025 -295.53475834 496.28894413 -295.54186861 452.88596798 C-295.54201563 451.99352792 -295.54216265 451.10108786 -295.54231413 450.18160416 C-295.54549882 430.59109592 -295.54754981 411.00058771 -295.54854168 391.41007924 C-295.54895642 383.5278337 -295.54951132 375.64558816 -295.55010359 367.76334263 C-295.55016426 366.90067591 -295.55022493 366.03800919 -295.55028743 365.14920105 C-295.55230401 337.35267484 -295.56654673 309.55617154 -295.58704859 281.75965332 C-295.60762343 253.76496244 -295.61552679 225.77029805 -295.60597083 197.77560036 C-295.60465236 193.90767883 -295.60347432 190.03975727 -295.6023802 186.17183567 C-295.60216035 185.41361302 -295.6019405 184.65539036 -295.60171399 183.87419127 C-295.59859897 171.86552739 -295.6089289 159.85691417 -295.62485575 147.84826204 C-295.64023604 136.0416637 -295.64102917 124.23514111 -295.62730752 112.42854017 C-295.62038096 106.11211328 -295.61984332 99.79586094 -295.63686761 93.47944932 C-295.65222719 87.73402613 -295.64919719 81.9889184 -295.63145733 76.24350475 C-295.62830567 74.17718801 -295.63186806 72.1108474 -295.64294907 70.04455797 C-295.71488136 55.69746162 -294.99565409 42.53029778 -285.1316561 31.13530231 C-278.99796538 25.29748536 -272.60435561 21.15437441 -264.0066561 21.07280231 C-260.11124588 20.56516397 -260.11124588 20.56516397 -258.5769686 18.06498981 C-257.59625495 16.28910294 -256.63054997 14.50486068 -255.6785311 12.71342731 C-251.90162315 6.41858073 -245.96212946 3.6890776 -239.11931603 1.74618197 C-233.2071655 0.53733874 -227.22664388 0.6524791 -221.21509115 0.62825275 C-219.66797728 0.61152112 -218.12087523 0.59366637 -216.57378571 0.57481719 C-212.22917219 0.52640872 -207.88461841 0.49802635 -203.53981231 0.47349916 C-200.67399251 0.45579145 -197.80826597 0.43261533 -194.94250004 0.40771771 C-129.96496793 -0.15520803 -64.9793468 -0.01140189 0 0 Z M-95.50548231 5.14176341 C-116.17490152 5.19814872 -136.84416451 5.27054605 -157.51336758 5.38182621 C-159.12026175 5.39046492 -160.72715597 5.39909545 -162.33405022 5.40771771 C-163.12425811 5.41196419 -163.91446599 5.41621068 -164.72861957 5.42058584 C-170.23556396 5.44946674 -175.74250595 5.47091943 -181.24949531 5.48904849 C-187.89469523 5.51105354 -194.53974375 5.54344626 -201.18482292 5.58941089 C-204.57184218 5.61259065 -207.95858197 5.62957668 -211.34569377 5.63697473 C-215.03002471 5.64593089 -218.71378614 5.67317864 -222.39798014 5.70503689 C-223.46352723 5.70339316 -224.52907432 5.70174943 -225.62691071 5.7000559 C-233.76412228 5.80100417 -241.44613301 6.83052367 -247.5691561 12.63530231 C-248.526285 13.51702106 -248.526285 13.51702106 -249.50274985 14.41655231 C-251.32609974 16.24308453 -251.32609974 16.24308453 -253.1316561 19.13530231 C-253.16923923 21.25076821 -253.16923923 21.25076821 -252.1316561 23.13530231 C-250.12294574 24.24766719 -250.12294574 24.24766719 -247.6316561 24.94780231 C-242.63432177 26.74024648 -239.0720664 29.23117961 -235.04181235 32.64702106 C-233.09877906 34.33160605 -233.09877906 34.33160605 -230.1316561 35.13530231 C-229.1004061 36.95561481 -229.1004061 36.95561481 -228.1316561 39.13530231 C-227.3108258 40.43495028 -226.47716486 41.72657253 -225.6316561 43.01030231 C-222.01021156 48.80034048 -220.15937724 54.23212247 -221.1316561 61.13530231 C-222.50351367 66.31094681 -224.01403296 70.11486379 -228.0066561 73.76030231 C-232.12686089 75.57319242 -234.72713349 75.92205817 -239.04181235 74.51030231 C-248.47770155 70.4377798 -252.90735476 62.54338701 -256.84649985 53.43608356 C-260.10115254 45.07686919 -261.62989703 37.08045525 -262.1316561 28.13530231 C-268.8059077 27.40984018 -273.57921512 29.45447065 -279.1316561 33.13530231 C-284.91281619 38.20327257 -288.62678638 44.11727965 -289.40733521 51.87534393 C-289.51215031 55.15563146 -289.52177433 58.42380533 -289.49914877 61.70572162 C-289.50241885 62.96608299 -289.50568893 64.22644436 -289.5090581 65.52499849 C-289.51769322 69.01924692 -289.50765019 72.51322839 -289.49451753 76.00745357 C-289.48355239 79.80374203 -289.49000893 83.60000749 -289.49423639 87.3963039 C-289.49985313 94.9023354 -289.48938686 102.4082654 -289.47389891 109.91427964 C-289.45620154 118.84027708 -289.45544565 127.76625457 -289.45522713 136.69226666 C-289.45421157 154.05925213 -289.43585379 171.42618672 -289.41041439 188.79315163 C-289.38821083 204.02398169 -289.37332323 219.25480028 -289.36484091 234.48564411 C-289.36368002 236.53155888 -289.36251827 238.57747365 -289.36135565 240.62338842 C-289.3596122 243.70040464 -289.35786894 246.77742086 -289.35613648 249.85443708 C-289.31134586 328.13717966 -289.17133346 406.41954978 -288.86212485 484.70170856 C-288.85913721 485.45958512 -288.85614958 486.21746168 -288.85307141 486.9983042 C-288.75340978 512.26091744 -288.64849725 537.52350978 -288.5408497 562.7860902 C-288.24217044 632.88780388 -288.05918055 702.98525968 -288.54101778 820.21407655 C-288.65106072 844.05238218 -288.75649255 867.89070979 -288.8582186 891.72905231 C-288.86118155 892.4221898 -288.86414451 893.11532729 -288.86719726 893.82946894 C-289.18350536 967.91444608 -289.34751358 1041.99975012 -289.40968363 1116.08536506 C-289.41301934 1120.01807733 -289.41638558 1123.95078956 -289.41977255 1127.88350178 C-289.42059757 1128.85376263 -289.42142258 1129.82402348 -289.4222726 1130.82368618 C-289.43498187 1145.42110469 -289.45930382 1160.01847223 -289.49026816 1174.61586262 C-289.525424 1191.18925516 -289.54677514 1207.76259609 -289.54938261 1224.33602727 C-289.55125996 1233.69520664 -289.56420973 1243.05422078 -289.59255036 1252.41335817 C-289.61047968 1258.71101521 -289.6137208 1265.0085708 -289.60513091 1271.30624717 C-289.60062942 1274.90540891 -289.60244994 1278.50425984 -289.62194376 1282.10337842 C-289.6428251 1285.98879837 -289.63259362 1289.87378797 -289.61940329 1293.75924946 C-289.6303724 1294.87729387 -289.6413415 1295.99533828 -289.65264301 1297.14726282 C-289.5806355 1305.91983486 -287.90774579 1313.3894645 -281.8816561 1320.01030231 C-276.44385649 1324.9368558 -270.55427848 1327.83839742 -263.1316561 1328.13530231 C-260.3808342 1325.38448041 -260.86791081 1323.66964797 -260.7566561 1319.82280231 C-259.98158833 1307.18919771 -256.21793671 1295.37873834 -247.1941561 1286.15483356 C-241.8978307 1281.50951483 -238.71887848 1280.71442323 -231.83087485 1280.79545856 C-229.1316561 1281.13530231 -229.1316561 1281.13530231 -226.1316561 1283.19780231 C-222.25906829 1288.88566566 -219.99678351 1294.18888442 -221.1316561 1301.13530231 C-224.40930115 1311.97674365 -230.83884004 1321.41105322 -240.84674399 1327.11235309 C-242.69967422 1328.06604907 -244.56538058 1328.98364486 -246.4441561 1329.88530231 C-247.08933188 1330.20112263 -247.73450766 1330.51694294 -248.39923422 1330.84233356 C-249.97400069 1331.61221939 -251.55245649 1332.37455122 -253.1316561 1333.13530231 C-252.31299258 1339.02765825 -249.63984272 1341.51242822 -245.1316561 1345.13530231 C-236.10209898 1350.85678096 -225.07788025 1349.80011768 -214.82452719 1349.86332966 C-212.64084858 1349.89061136 -210.45718555 1349.91916351 -208.27353804 1349.94883037 C-201.27139943 1350.0349971 -194.26919821 1350.08204136 -187.26667909 1350.12255634 C-185.08904476 1350.1355567 -182.91142271 1350.14986814 -180.73379938 1350.16459251 C-156.88104836 1350.32574825 -133.02822447 1350.40530316 -109.17502743 1350.46399235 C-101.96510747 1350.48175384 -94.75519418 1350.50132375 -87.54528181 1350.52192951 C-59.46805912 1350.60197191 -31.39082011 1350.67154247 -3.31355735 1350.73588436 C4.90022649 1350.75475353 13.1140085 1350.77431111 21.32778986 1350.79423023 C132.04654208 1351.06231426 242.76451111 1351.23901878 413.68673888 1350.78568214 C419.77719757 1350.76595414 425.86765776 1350.7467632 431.95811899 1350.72783924 C474.39105099 1350.59560412 516.82360784 1350.4271366 559.25603159 1350.17920185 C564.26766738 1350.14998747 569.27930742 1350.12217134 574.29095896 1350.09579731 C587.53986359 1350.02583217 600.78849776 1349.94235142 614.03711565 1349.83010746 C617.8305393 1349.79833365 621.62391561 1349.77280848 625.41742189 1349.75333286 C629.68278406 1349.73107246 633.94779317 1349.69507657 638.21294625 1349.6475041 C639.72475327 1349.63286302 641.23661663 1349.62301698 642.74848826 1349.61866022 C656.83129441 1349.63363694 656.83129441 1349.63363694 669.3058439 1343.76030231 C672.60666571 1340.37897266 674.8683439 1337.96245571 674.8683439 1333.13530231 C673.97373453 1332.73440388 673.07912515 1332.33350544 672.1574064 1331.92045856 C659.90438226 1326.24102548 651.13877294 1319.40076991 644.8683439 1307.13530231 C644.49322672 1306.45467731 644.11810953 1305.77405231 643.73162515 1305.07280231 C641.31307302 1299.6447396 642.91986159 1293.5070291 644.89568765 1288.18608356 C646.39565055 1285.02351119 648.04375626 1283.18954787 650.8683439 1281.13530231 C655.03903056 1279.8995433 657.27681673 1279.94850426 661.4308439 1281.26030231 C671.53988179 1286.77432298 677.13425854 1296.34601371 680.8058439 1307.07280231 C682.50807775 1313.58712028 682.60937046 1320.43771323 682.8683439 1327.13530231 C688.24080077 1329.07290971 692.92285671 1326.33095833 697.8683439 1324.13530231 C704.0652431 1320.98492339 707.13467369 1316.44985458 709.8683439 1310.13530231 C710.98219053 1306.63203733 710.99259589 1303.36282352 710.99139173 1299.69945247 C710.99312252 1298.72687518 710.99312252 1298.72687518 710.99488826 1297.73464986 C710.99754682 1295.54843644 710.9930365 1293.36229591 710.98859842 1291.17608619 C710.98903448 1289.59118825 710.98991015 1288.00629038 710.99118705 1286.4213929 C710.99343379 1282.03829218 710.98940172 1277.65521569 710.98440874 1273.27211806 C710.98008493 1268.51119929 710.9815594 1263.75028188 710.98232038 1258.98936171 C710.98285468 1250.63122002 710.97966934 1242.27308608 710.97409113 1233.91494633 C710.96581417 1221.47713381 710.96327076 1209.03932481 710.9619668 1196.60150984 C710.95962585 1175.63591774 710.95275705 1154.67032943 710.9435087 1133.70473934 C710.93086158 1104.88971257 710.9248512 1076.07468704 710.92057534 1047.25965795 C710.91856818 1033.79081847 710.91624227 1020.32197905 710.91383035 1006.85313965 C710.91371007 1006.17884162 710.91358979 1005.5045436 710.91346587 1004.8098123 C710.90771639 972.66877523 710.89895265 940.52773914 710.8894799 908.38670297 C710.88885152 906.25402757 710.88822471 904.12135217 710.88759825 901.98867677 C710.87987186 875.70088448 710.87187258 849.41309228 710.86379007 823.1253001 C710.85861859 806.30450667 710.85349805 789.48371323 710.84846291 772.66291976 C710.84783627 770.57069528 710.84720809 768.47847079 710.84657976 766.38624631 C710.83705029 734.61839036 710.82850441 702.85053451 710.82285745 671.08267761 C710.82267647 670.06849723 710.82267647 670.06849723 710.82249183 669.03382836 C710.82007893 655.48728289 710.81780478 641.9407374 710.81581668 628.39419186 C710.81169159 600.31111115 710.80571767 572.2280338 710.79317911 544.1449554 C710.78020612 514.79904607 710.77123289 485.45313857 710.77068765 456.10722614 C710.77066308 454.94088207 710.7706385 453.774538 710.77061318 452.57285018 C710.770105 369.71609046 711.09451389 286.86408585 711.66021295 204.00936468 C711.89637191 169.3641036 712.02240136 134.71870739 712.1183439 100.07280231 C712.12206972 98.7353549 712.12579629 97.39790749 712.12952359 96.06046008 C712.16354003 83.8210086 712.19624499 71.58155499 712.22478922 59.34208942 C712.22884635 58.47754467 712.23290349 57.61299991 712.23708357 56.72225683 C712.23182356 47.34802918 708.66719018 41.08451174 702.2667814 34.34233356 C696.67373043 29.19563356 691.33326631 27.66851106 683.8683439 27.13530231 C683.78197672 28.04409138 683.69560953 28.95288044 683.60662515 29.88920856 C681.93572058 44.83537335 678.45021934 60.9582965 666.5558439 71.19780231 C662.17843305 74.32030618 658.25709491 75.66052171 652.8683439 75.13530231 C647.76490801 73.32074733 646.15380292 69.78784387 643.8683439 65.13530231 C641.45268129 58.69353535 642.97779809 52.69521573 645.6105314 46.61967731 C652.00544437 33.9887312 662.49360398 27.85340545 674.8683439 22.13530231 C674.08453177 16.36088883 671.3726898 13.62811564 666.8683439 10.13530231 C661.19908364 7.17742739 655.10911092 6.02366879 648.74916007 5.97797764 C647.22760994 5.96358234 647.22760994 5.96358234 645.67532143 5.94889623 C644.01428969 5.94057599 644.01428969 5.94057599 642.31970175 5.93208767 C641.13772109 5.92240125 639.95574044 5.91271483 638.73794219 5.90273489 C635.46292573 5.87700488 632.18791569 5.85566435 628.91285614 5.83635231 C625.38989531 5.81464594 621.86697384 5.78766929 618.34404345 5.76155425 C611.4403913 5.71142957 604.53671273 5.6672288 597.63300563 5.62542384 C591.95602477 5.59104391 586.27905848 5.55479761 580.60209556 5.51758099 C514.64493489 5.08748911 448.68902401 4.98546215 382.73065997 5.00000191 C371.69730703 5.00238519 360.66395555 5.00257217 349.63060243 5.00148655 C348.82499642 5.00141016 348.01939041 5.00133378 347.18937209 5.00125508 C343.91305711 5.00094336 340.63674213 5.00062492 337.36042714 5.00029531 C307.09656867 4.99728774 276.83271324 4.99992574 246.56885524 5.00539221 C220.12075023 5.01013331 193.67265005 5.00970587 167.22454508 5.00493122 C136.9847511 4.99948929 106.74495976 4.99750035 76.50516535 5.00054348 C73.23832293 5.00086384 69.9714805 5.00117671 66.70463808 5.00148655 C65.90120104 5.00156562 65.09776399 5.0016447 64.26998038 5.00172618 C53.28675467 5.00275728 42.30353075 5.00191821 31.32030528 4.99949753 C-10.95511987 4.99037115 -53.23020344 5.02669823 -95.50548231 5.14176341 Z " fill="#121010" transform="translate(329.13165609538555,281.86469768732786)"/>
<path d="M0 0 C0.66 0 1.32 0 2 0 C2.0501123 1.01795654 2.10022461 2.03591309 2.15185547 3.0847168 C2.34856629 7.07564601 2.54646727 11.06651564 2.74462891 15.05737305 C2.82825866 16.74453286 2.91161623 18.4317062 2.99462891 20.11889648 C3.11798629 22.62487889 3.24258629 25.1307979 3.3671875 27.63671875 C3.41216873 28.55663101 3.45714996 29.47654327 3.50349426 30.42433167 C3.75836669 35.54244405 4.03571165 40.65815699 4.35199261 45.77287865 C5.98840837 72.27411419 6.56673826 98.76330843 7.00616455 125.30841064 C7.1558958 134.28952763 7.31642327 143.27045346 7.47863579 152.25135231 C7.53283949 155.31813881 7.58327142 158.38496732 7.6330719 161.451828 C7.78278095 170.22491617 7.98312481 178.98699047 8.37342834 187.75298691 C9.19969212 206.53684518 9.22376164 225.32273754 9.30332303 244.12133098 C9.32565766 249.18894001 9.35284334 254.25652348 9.37937927 259.32411194 C9.42336763 267.85253706 9.46415852 276.38097236 9.50268555 284.90942383 C9.54172955 293.55006329 9.58322775 302.19068549 9.62768555 310.83129883 C9.63312952 311.88939493 9.6385735 312.94749103 9.64418244 314.03765064 C9.65514343 316.16676784 9.66610504 318.29588503 9.67706728 320.42500222 C10.2754801 437.17261137 10.2754801 437.17261137 9.68261719 474.88500977 C9.63310808 478.1524009 9.59250257 481.4197668 9.55516434 484.68731499 C9.13663969 519.72672062 9.13663969 519.72672062 6 526 C3.30872871 524.90355614 1.80235306 523.79686287 -0.25 521.6875 C-9.06942543 513.06851605 -18.51784054 511.58554274 -30.43481445 511.63647461 C-40.3839129 511.8417141 -48.22523555 514.36632659 -55.9296875 520.828125 C-65.51284882 530.88140367 -68.48093279 543.28221043 -68.35400391 556.72338867 C-68.05863173 566.0883624 -65.85539131 575.45268259 -60 583 C-57.93738999 584.25408498 -57.93738999 584.25408498 -56 585 C-56 585.99 -56 586.98 -56 588 C-93.28402332 588.83643552 -130.55234929 589.16370967 -167.84511042 589.16725707 C-172.07505421 589.16776193 -176.30499591 589.17007731 -180.53493881 589.17275429 C-194.58339506 589.18146078 -208.6318439 589.18618583 -222.68030287 589.18542381 C-223.42533906 589.18538386 -224.17037524 589.1853439 -224.93798828 589.18530273 C-226.05694856 589.18524141 -226.05694856 589.18524141 -227.19851409 589.18517885 C-239.4270598 589.18476782 -251.65557542 589.19447662 -263.88411237 589.2084411 C-276.54650233 589.22278471 -289.20887749 589.22971345 -301.87127578 589.22884732 C-308.93975172 589.22851626 -316.00819545 589.23122809 -323.07666397 589.24202538 C-329.67480467 589.25204523 -336.27288839 589.25181744 -342.87103653 589.24450874 C-345.29146423 589.24345935 -347.71189615 589.24584668 -350.13231659 589.2518692 C-353.4255429 589.25953731 -356.71852849 589.25498002 -360.01174927 589.24723816 C-360.97490999 589.25238172 -361.93807072 589.25752529 -362.93041813 589.26282471 C-363.81076344 589.25822592 -364.69110874 589.25362712 -365.59813118 589.24888897 C-366.35715866 589.24910634 -367.11618614 589.24932371 -367.89821446 589.24954766 C-370.28868399 588.96572418 -371.92167299 588.1861658 -374 587 C-368.90526213 585.35772246 -364.16194902 584.62252601 -358.80438232 584.40963745 C-358.02423161 584.37279622 -357.2440809 584.33595499 -356.44028926 584.29799736 C-347.34079595 583.88780443 -338.23609489 583.64471246 -329.12988281 583.44580078 C-328.19699259 583.42483849 -327.26410237 583.40387619 -326.30294275 583.38227868 C-303.01625374 582.87033164 -279.73052704 582.85245037 -256.43924236 582.8656745 C-250.41312814 582.86826664 -244.38701518 582.86584287 -238.36090088 582.86428833 C-228.28665893 582.86249002 -218.21242441 582.86481459 -208.13818359 582.86962891 C-196.5382576 582.87510871 -184.93834909 582.87327272 -173.33842349 582.8678025 C-163.28301557 582.86325349 -153.22761288 582.86262833 -143.17220426 582.86524117 C-137.20650269 582.86678881 -131.24080935 582.86703883 -125.27510834 582.86370468 C-119.68990829 582.8607983 -114.10473079 582.86285205 -108.51953316 582.86859894 C-106.48471934 582.86990998 -104.44990359 582.86956095 -102.41509056 582.86733627 C-90.89851352 582.85591281 -79.48537999 583.10456572 -68 584 C-68.5642997 582.4874765 -68.5642997 582.4874765 -69.13999939 580.94439697 C-75.28097161 564.43887914 -77.45920877 549.7530067 -70.78125 532.9296875 C-65.18346077 520.77004534 -56.91895939 512.10816743 -44.51953125 506.97265625 C-32.52629416 503.03539082 -18.36776734 503.47133292 -7 509 C-5.2636725 510.01846178 -3.53499473 511.05002652 -1.81225586 512.09130859 C-0.4607267 512.90684708 -0.4607267 512.90684708 0.91810608 513.73886108 C1.60513107 514.15503693 2.29215607 514.57121277 3 515 C3.2506977 375.86686964 3.2506977 375.86686964 2.59428024 236.7362442 C2.56271999 233.14999743 2.53274246 229.56373995 2.50296021 225.97747803 C2.45630229 220.46327654 2.40428352 214.94915347 2.34712219 209.43505096 C2.32731471 207.50708823 2.30850203 205.57911489 2.29090881 203.65113068 C2.19268403 193.23153039 1.89439788 182.84544927 1.36348915 172.4386301 C0.99608783 165.20069875 0.78927531 157.96935556 0.68359375 150.72265625 C0.66276733 149.43025024 0.64194092 148.13784424 0.6204834 146.80627441 C0.5650573 143.29155639 0.51530334 139.77678164 0.46757126 136.26195145 C0.43714795 134.03675095 0.40532008 131.81157362 0.37332153 129.58639526 C-0.23823414 86.39396757 -0.09404192 43.19552063 0 0 Z " fill="#0F0D0D" transform="translate(1022,1028)"/>
<path d="M0 0 C1.66942878 0.00139823 3.33885761 0.00274136 5.00828648 0.00403595 C28.47405788 0.02862639 51.93972136 0.13913996 75.40526271 0.23903847 C81.47767113 0.26473265 87.55008264 0.28966479 93.62249417 0.31461257 C105.61356647 0.3639002 117.60463572 0.41389178 129.59570312 0.46435547 C141.21223801 0.51324138 152.82877427 0.56177746 164.4453125 0.60986328 C165.1668802 0.61285028 165.8884479 0.61583727 166.63188129 0.61891478 C170.25342398 0.6339044 173.8749667 0.64888735 177.49650943 0.663867 C207.32376779 0.78724887 237.15102117 0.91179769 266.97827148 1.03710938 C267.30827148 2.35710937 267.63827148 3.67710937 267.97827148 5.03710938 C267.37112305 5.29621094 266.76397461 5.5553125 266.13842773 5.82226562 C261.09928873 8.65621179 258.87570559 14.68349252 257.16577148 19.97460938 C253.91164743 33.36300549 254.99008719 48.44634825 261.85327148 60.47460938 C267.30273318 68.82867413 275.16097247 75.55417944 284.97827148 78.03710938 C299.88658652 79.47291503 312.23212453 78.34145776 324.20092773 68.81835938 C326.02052001 66.99476799 326.9799734 65.39578256 327.97827148 63.03710938 C328.63827148 63.03710938 329.29827148 63.03710938 329.97827148 63.03710938 C336.12908126 79.34204213 334.24269745 99.15906061 334.14051878 116.25564051 C334.12131557 119.85770638 334.11427129 123.45980111 334.10559082 127.06190491 C334.08678736 134.09179541 334.05709238 141.12159803 334.02355012 148.15143199 C333.98476298 156.36964033 333.95708081 164.58787561 333.92976306 172.80612873 C333.88057598 187.49221084 333.82154168 202.17823658 333.75683594 216.86425781 C333.69433466 231.05206284 333.63869069 245.23987231 333.59082031 259.42773438 C333.58639975 260.73746946 333.58639975 260.73746946 333.58188989 262.07366385 C333.57894856 262.94544145 333.57600723 263.81721906 333.57297677 264.71541417 C333.51816277 280.95100916 333.45733396 297.18657665 333.39347028 313.42213843 C333.37115841 319.12337218 333.35049211 324.82461051 333.33032799 330.5258522 C333.30553324 337.49762166 333.27715499 344.46936729 333.24462947 351.44110508 C333.22815312 354.98462756 333.21295075 358.5281404 333.20176888 362.07168388 C333.14633307 378.52866976 332.80177534 394.93869334 332.08874571 411.38029766 C331.86052142 416.86889871 331.72914524 422.35946678 331.60522461 427.85131836 C331.57742416 429.01143433 331.54962372 430.17155029 331.52098083 431.36682129 C331.46232301 433.82450345 331.4045068 436.28220584 331.34751892 438.73992729 C331.25657433 442.66024525 331.16321339 446.58050213 331.06921387 450.50074768 C330.87000658 458.82531604 330.6740011 467.14995864 330.47827148 475.47460938 C330.26668793 484.47080933 330.05439534 493.46699069 329.83878851 502.46309525 C329.73162831 506.93925437 329.62718168 511.4154718 329.52331543 515.89170837 C329.35743942 522.94063395 329.1718828 529.98889696 328.97827148 537.03710938 C328.94641754 538.25810963 328.9145636 539.47910988 328.88174438 540.73711014 C328.78333745 544.39222334 328.67255525 548.04676584 328.55834961 551.70141602 C328.53020927 552.79516509 328.50206894 553.88891417 328.47307587 555.01580715 C328.27879122 560.77958212 327.73132578 566.20006574 326.4358139 571.82475948 C325.66063848 575.57295681 325.51564823 579.34625585 325.35327148 583.16210938 C325.31459961 583.9278125 325.27592773 584.69351563 325.23608398 585.48242188 C325.14352183 587.33366502 325.05990348 589.18535206 324.97827148 591.03710938 C324.64827148 591.03710938 324.31827148 591.03710938 323.97827148 591.03710938 C323.95471036 578.81994543 323.93714031 566.60278721 323.92645931 554.38560486 C323.92132333 548.70774512 323.91440353 543.02990134 323.90283203 537.35205078 C323.85063647 511.02691494 324.0156553 484.73577671 324.79426098 458.42148876 C327.22305029 376.1248684 327.07260774 293.70103292 327.10038489 211.37436175 C327.10199816 206.71274939 327.10490746 202.05114069 327.10909456 197.38952994 C327.14511491 156.92704984 326.8248847 116.49176269 325.97827148 76.03710938 C325.37015625 76.34197266 324.76204102 76.64683594 324.13549805 76.9609375 C310.90647026 83.56047966 298.22959693 87.7071259 283.43920898 84.19726562 C271.15162807 79.84235926 260.99939181 72.28986569 254.73608398 60.74804688 C250.80488689 52.39783991 249.58901484 44.49762363 249.60327148 35.34960938 C249.60343262 34.38297363 249.60359375 33.41633789 249.60375977 32.42041016 C249.75232647 23.07321873 251.75069763 15.40155561 255.97827148 7.03710938 C254.11639065 7.03849206 254.11639065 7.03849206 252.21689606 7.03990269 C222.55782598 7.06169774 192.89875777 7.07811774 163.23968163 7.0881747 C159.56595636 7.08942498 155.89223111 7.09071934 152.21850586 7.09204102 C151.48732581 7.09230333 150.75614577 7.09256564 150.00280875 7.0928359 C138.26075055 7.09715278 126.51869738 7.1050177 114.77664214 7.11426217 C102.67175646 7.12371073 90.56687337 7.1291883 78.46198416 7.13119787 C71.68667179 7.13243079 64.91137141 7.13545117 58.13606262 7.14283943 C9.52723225 7.19328705 9.52723225 7.19328705 -11.95805836 6.76703537 C-13.58153818 6.73565795 -15.20509992 6.70817214 -16.82872295 6.68537915 C-28.44076878 6.51187523 -39.59303139 5.07892175 -51.02172852 3.03710938 C-39.95874526 -4.33821279 -13.33890907 -0.02170656 0 0 Z " fill="#0D0C0C" transform="translate(698.021728515625,300.962890625)"/>
<path d="M0 0 C2.80566788 -0.00323038 5.61131714 -0.00857517 8.41697693 -0.01602173 C32.14308822 -0.07141936 32.14308822 -0.07141936 43.49642181 0.46897888 C44.59593611 0.51470913 44.59593611 0.51470913 45.71766281 0.56136322 C50.59469748 0.84557486 50.59469748 0.84557486 52.83724213 3.08811951 C47.43488372 4.57734485 42.34950484 5.46065392 36.73958588 5.67796326 C35.89290848 5.71477707 35.04623108 5.75159088 34.17389679 5.78952026 C19.23273831 6.37122646 4.27211042 6.46743983 -10.67818832 6.62054825 C-13.62698579 6.65089457 -16.57576367 6.68281254 -19.52454376 6.71479797 C-97.39775244 7.53950782 -175.28648038 7.17323311 -253.16275787 7.08811951 C-252.81673019 7.91081833 -252.47070251 8.73351715 -252.11418915 9.58114624 C-251.66172318 10.6610231 -251.2092572 11.74089996 -250.74308014 12.85350037 C-250.06935112 14.4587986 -250.06935112 14.4587986 -249.38201141 16.0965271 C-244.10959596 29.03306371 -244.84998007 42.47419537 -249.61978912 55.42405701 C-254.3007304 66.53981122 -261.67071557 76.27951317 -272.95963287 81.27952576 C-286.53783232 86.26301385 -299.23342694 86.83028466 -312.84635162 81.67015076 C-315.51413582 80.39753286 -317.8832315 79.06360337 -320.37003326 77.48924255 C-321.08260788 77.03945541 -321.7951825 76.58966827 -322.52935028 76.12625122 C-323.06837479 75.78366776 -323.60739929 75.44108429 -324.16275787 75.08811951 C-324.42216656 209.57460599 -324.42216656 209.57460599 -323.75703812 344.05838394 C-323.72563602 347.42260704 -323.69561365 350.78684049 -323.66571808 354.15107727 C-323.48776565 373.73619923 -323.23008748 393.30633403 -322.53058624 412.88041687 C-322.00475556 427.8372406 -321.81276466 442.79780967 -321.63032913 457.76208115 C-321.59978226 460.251886 -321.56801263 462.74167315 -321.53607941 465.23146057 C-321.01725882 506.18267245 -321.06051341 547.13446011 -321.16275787 588.08811951 C-321.49275787 588.08811951 -321.82275787 588.08811951 -322.16275787 588.08811951 C-322.89307237 584.03177903 -323.36944303 580.05273621 -323.62760162 575.94017029 C-323.70440659 574.72891479 -323.78121155 573.5176593 -323.86034393 572.2696991 C-323.93951553 570.95423096 -324.01868713 569.63876282 -324.10025787 568.28343201 C-324.14211905 567.59521614 -324.18398022 566.90700027 -324.22710991 566.19792938 C-324.55037884 560.87030109 -324.85842218 555.54185853 -325.16275787 550.21311951 C-325.20816837 549.42586739 -325.25357887 548.63861526 -325.30036545 547.82750702 C-326.96037371 518.97699585 -327.70795067 490.16730869 -327.9225235 461.27220154 C-327.92832082 460.53864189 -327.93411814 459.80508224 -327.94009113 459.04929352 C-327.96678579 455.63707096 -327.98838703 452.22511827 -327.99910736 448.81278992 C-328.04101245 441.76252996 -328.36619314 434.8002838 -328.91310883 427.77229309 C-329.39157547 420.71136428 -329.52439356 413.63870579 -329.69010162 406.56468201 C-329.71051954 405.7287212 -329.73093746 404.89276039 -329.75197411 404.03146744 C-330.27452508 382.51121454 -330.52985709 360.98849903 -330.72525787 339.46311951 C-330.7353035 338.37322094 -330.74534912 337.28332237 -330.75569916 336.16039658 C-331.20036587 287.38915019 -331.33406968 238.61591483 -331.39795488 189.84288216 C-331.40796176 182.72683082 -331.4255987 175.61082372 -331.4464798 168.49479675 C-331.47207151 159.696337 -331.48611989 150.89794119 -331.48659652 142.09944302 C-331.48707872 137.55337138 -331.49208548 133.00743893 -331.51035881 128.46140099 C-331.57482819 111.51438925 -331.44436405 94.6770817 -329.82975006 77.79490662 C-329.71331776 76.52907273 -329.59688545 75.26323885 -329.4769249 73.95904636 C-329.3526852 72.81283786 -329.22844551 71.66662935 -329.10044098 70.48568726 C-328.99255627 69.48558593 -328.88467155 68.4854846 -328.77351761 67.45507717 C-328.16275787 65.08811951 -328.16275787 65.08811951 -325.16275787 63.08811951 C-324.65228912 63.86735779 -324.65228912 63.86735779 -324.13150787 64.66233826 C-318.33679561 72.99994288 -312.11388661 76.41550655 -302.23697662 78.58421326 C-291.51552249 80.34160536 -280.50391214 79.18346421 -271.22525787 73.21311951 C-262.02241906 66.42685348 -256.06481527 57.8868017 -253.63541412 46.62718201 C-251.83953127 33.1803236 -252.02540254 20.5829012 -259.72525787 8.96311951 C-261.90762467 5.88476671 -261.90762467 5.88476671 -265.16275787 5.08811951 C-264.83275787 3.76811951 -264.50275787 2.44811951 -264.16275787 1.08811951 C-263.20774258 1.08926506 -262.25272728 1.09041061 -261.26877213 1.09159088 C-236.75005284 1.11812153 -212.23301905 1.04599505 -187.71473694 0.90292358 C-181.71993992 0.867952 -175.72513301 0.83491305 -169.73032379 0.80210876 C-153.77067569 0.71451024 -137.81103979 0.62477565 -121.8514123 0.53350067 C-35.66651494 0.04084537 -35.66651494 0.04084537 0 0 Z " fill="#0E0C0C" transform="translate(379.16275787353516,300.91188049316406)"/>
<path d="M0 0 C0.33 0 0.66 0 1 0 C1.1962327 79.07777378 1.1962327 79.07777378 0.5625 111.1875 C0.54285187 112.20741028 0.52320374 113.22732056 0.50296021 114.27813721 C0.32289695 123.34832633 0.10491818 132.41631711 -0.23852539 141.48193359 C-0.9450355 160.28680167 -1.2058947 179.07293819 -1.30331039 197.88957477 C-1.32133515 201.25130053 -1.34230864 204.61300573 -1.36322176 207.97471458 C-1.41977566 217.07472633 -1.47025483 226.1747622 -1.51765215 235.27482587 C-1.55241225 241.94431469 -1.58908969 248.61379073 -1.62667847 255.28326416 C-2.0837346 336.85546468 -2.11233673 418.42681536 -2 500 C-0.87634033 499.38185425 -0.87634033 499.38185425 0.27001953 498.7512207 C1.74897705 497.94044067 1.74897705 497.94044067 3.2578125 497.11328125 C4.23379395 496.57743408 5.20977539 496.04158691 6.21533203 495.48950195 C17.40006591 489.50685586 29.55256911 488.06282897 41.9375 491.25 C43.6372745 491.79653516 45.32665156 492.37723278 47 493 C47.69351563 493.25523437 48.38703125 493.51046875 49.1015625 493.7734375 C59.03401113 498.08673193 66.40215281 506.38762571 71 516 C71.4125 516.81082031 71.825 517.62164063 72.25 518.45703125 C77.54532301 531.01503685 77.23366385 549.0953442 72.16796875 561.73046875 C70.88453812 564.22435903 69.45174442 566.6009582 68 569 C69.24231133 568.98120789 69.24231133 568.98120789 70.50971985 568.96203613 C127.03468936 568.12245389 183.55879189 567.86433364 240.08921009 567.82062757 C246.45162522 567.81530202 252.81401799 567.8047663 259.17642212 567.79199219 C267.07501751 567.77634539 274.97357783 567.76871921 282.87218916 567.77035016 C286.95205025 567.77108025 291.03184623 567.76898489 295.11169434 567.75811195 C315.57806139 567.7069967 335.90693624 568.2907496 356.32568932 569.74150658 C358.80013363 569.91558755 361.27570944 570.0741967 363.75208473 570.21822548 C365.50165757 570.32825433 365.50165757 570.32825433 367.28657532 570.44050598 C368.83326385 570.5307339 368.83326385 570.5307339 370.41119862 570.62278461 C373 571 373 571 376 573 C371.07569141 574.28546447 366.20956977 574.13906002 361.15965271 574.12698364 C359.660912 574.12932363 359.660912 574.12932363 358.13189369 574.13171089 C354.77728595 574.1357047 351.42272333 574.1325369 348.06811523 574.12939453 C345.6622973 574.13074976 343.25647957 574.13253038 340.85066223 574.13470459 C334.97643384 574.1388015 329.10221715 574.1381847 323.22798907 574.13529195 C318.42122345 574.13302482 313.61446139 574.1327311 308.80769539 574.13381577 C308.12075446 574.133969 307.43381353 574.13412223 306.72605621 574.13428011 C305.32940975 574.13459992 303.9327633 574.13492413 302.53611685 574.1352527 C289.40827095 574.13810951 276.280432 574.13482342 263.15258724 574.12945233 C252.02579352 574.12503879 240.8990103 574.12571391 229.7722168 574.13037109 C216.77358566 574.13580944 203.77496075 574.13777777 190.77632862 574.13475883 C189.36827632 574.13444042 187.96022401 574.13412605 186.55217171 574.13381577 C185.5139222 574.13358435 185.5139222 574.13358435 184.45469795 574.13334826 C179.7133772 574.13250616 174.97206177 574.13394766 170.2307415 574.13629532 C132.47567673 574.15249489 94.74653477 573.74999753 57 573 C58 570 58 570 60.3125 567.8125 C68.36503616 559.38542728 69.40393475 548.32123524 69.3684082 537.10668945 C69.02428102 525.16617861 64.60231761 513.7142213 56.15625 505.125 C54.18374221 503.50819034 52.22692434 502.24117109 50 501 C49.28070313 500.58878906 48.56140625 500.17757813 47.8203125 499.75390625 C37.84223719 495.14741461 23.04354476 494.6100305 12.67578125 498.328125 C6.06677154 501.2103005 1.10325327 505.08648794 -3 511 C-3.99 510.67 -4.98 510.34 -6 510 C-7.55070421 497.90564843 -8.32647432 486.01610789 -8.4140625 473.828125 C-8.43293592 472.0966517 -8.45251858 470.36518602 -8.4727478 468.63372803 C-8.51337148 464.99982722 -8.54815928 461.36593769 -8.578125 457.73193359 C-8.61482702 453.28764348 -8.66154684 448.8435463 -8.71246147 444.3993988 C-9.3141191 391.48688205 -9.04787894 338.56512115 -8.71246147 285.65143204 C-8.6627545 277.80344639 -8.61597356 269.95547465 -8.578125 262.10742188 C-8.37745493 220.86767739 -7.66363743 179.67728285 -6.355196 138.45769787 C-5.99493826 127.05492834 -5.69812997 115.65152542 -5.4375 104.24609375 C-5.39984293 102.62497796 -5.36211443 101.00386383 -5.3243103 99.38275146 C-5.26996223 97.04822457 -5.21570751 94.7136958 -5.16182899 92.37915802 C-4.6011039 68.12275251 -4.01051919 43.86748825 -3 19.625 C-2.96406738 18.69267548 -2.92813477 17.76035095 -2.89111328 16.79977417 C-2.79189568 14.2747833 -2.67988877 11.75076489 -2.5625 9.2265625 C-2.52189453 8.1470356 -2.52189453 8.1470356 -2.48046875 7.04570007 C-2.23062144 2.23062144 -2.23062144 2.23062144 0 0 Z " fill="#0D0B0B" transform="translate(57,1043)"/>
<path d="M0 0 C1.8871875 0.0309375 1.8871875 0.0309375 3.8125 0.0625 C3.8125 1.0525 3.8125 2.0425 3.8125 3.0625 C2.23828125 4.38671875 2.23828125 4.38671875 0.125 5.75 C-5.84704809 10.00970864 -9.60431788 15.86621763 -11.1875 23.0625 C-12.20591606 32.05589719 -10.02346123 39.77953328 -4.4375 46.9375 C0.30962628 52.04608259 6.5969912 54.68545302 13.4765625 55.30078125 C22.09738218 55.5168704 28.99587296 54.69142407 35.43359375 48.5703125 C37.6509499 46.12810745 39.76796787 43.65026531 41.8125 41.0625 C43.2975 41.5575 43.2975 41.5575 44.8125 42.0625 C44.47470483 52.19635509 40.20272621 62.00072828 32.8125 69.0625 C22.07544001 77.11529499 11.27282713 80.66493269 -2.15478516 79.40283203 C-12.2045145 77.72023262 -21.10074206 70.98823587 -27.1875 63.0625 C-33.80090278 52.5722749 -35.70566487 41.62693867 -33.7578125 29.35546875 C-31.35723463 19.94579623 -25.2660624 11.45891544 -17.1875 6.0625 C-6.21554831 -0.10189423 -6.21554831 -0.10189423 0 0 Z " fill="#030303" transform="translate(535.1875,1504.9375)"/>
<path d="M0 0 C0.66 0 1.32 0 2 0 C2.38671875 1.01320313 2.7734375 2.02640625 3.171875 3.0703125 C3.69753968 4.42202167 4.22360263 5.773576 4.75 7.125 C5.00265625 7.79015625 5.2553125 8.4553125 5.515625 9.140625 C6.81603892 12.45668051 8.17693225 15.42795728 10.203125 18.3671875 C12 21 12 21 12 23 C15.53967721 24.80488492 19.14059439 26.46467342 22.75 28.125 C24.50570312 28.93324219 24.50570312 28.93324219 26.296875 29.7578125 C27.18890625 30.16773438 28.0809375 30.57765625 29 31 C26.35715002 32.76189998 24.25386797 33.72737995 21.3125 34.8125 C19.53922482 35.53570802 17.76831225 36.26474051 16 37 C15.28972656 37.26683594 14.57945312 37.53367187 13.84765625 37.80859375 C6.95180487 41.0994852 4.66097484 47.86967807 1.6640625 54.48046875 C0 58 0 58 -2 60 C-2.38671875 58.98679687 -2.7734375 57.97359375 -3.171875 56.9296875 C-3.69753968 55.57797833 -4.22360263 54.226424 -4.75 52.875 C-5.00265625 52.20984375 -5.2553125 51.5446875 -5.515625 50.859375 C-9.59375025 40.46015562 -15.05913241 36.14914923 -25 31.6875 C-26.3307026 31.11880446 -27.66309197 30.55395032 -29 30 C-29 29.34 -29 28.68 -29 28 C-28.154375 27.72027344 -27.30875 27.44054687 -26.4375 27.15234375 C-15.55845189 23.30758925 -8.22448423 18.46875818 -3 8 C-1.87889576 5.35545977 -0.9240598 2.72354469 0 0 Z " fill="#050505" transform="translate(521,342)"/>
<path d="M0 0 C4.76244042 0.12964901 7.24209794 2.27052147 10.55859375 5.515625 C18.12152806 14.03815742 22.56118713 25.43328438 22.4375 36.8125 C22.42847656 37.89015625 22.41945313 38.9678125 22.41015625 40.078125 C22.39855469 40.89796875 22.38695312 41.7178125 22.375 42.5625 C19.74371564 43.57829815 18.61853593 43.65197806 15.9296875 42.6640625 C5.35626183 36.83788917 -4.66321725 29.59434481 -8.23046875 17.51171875 C-9.40386747 11.71443201 -8.66873918 7.59637634 -5.625 2.5625 C-3.625 0.5625 -3.625 0.5625 0 0 Z " fill="#F6E9E3" transform="translate(984.625,1565.4375)"/>
<path d="M0 0 C0.95373429 11.49779675 -2.21068405 23.59940869 -9 33 C-12.22709303 36.77947833 -15.33363645 40.09649328 -20 42 C-23.75063803 41.92186171 -25.45977667 41.46722017 -28.3125 39 C-30.94573973 34.31868492 -31.52913571 29.99673973 -30.59375 24.69921875 C-27.53597041 14.16079982 -19.97082014 6.88757277 -10.5625 1.640625 C-4.1762028 -1.42647826 -4.1762028 -1.42647826 0 0 Z " fill="#F6E9E2" transform="translate(1007,312)"/>
<path d="M0 0 C3.22691312 2.94631198 4.79808096 4.85579212 5.5625 9.1875 C3.98297035 19.89320097 -0.5133697 28.4281529 -8.78515625 35.390625 C-14.12392847 39.26994449 -19.51550712 41.05240935 -26 42 C-25.80521741 28.20585102 -23.85314363 15.49843767 -14 5 C-9.34235916 0.58575132 -6.50546032 -1.91337068 0 0 Z " fill="#F6E9E2" transform="translate(99,1566)"/>
<path d="M0 0 C10.42882723 1.53867943 18.93340873 6.65597311 25.5625 14.89453125 C29.44662946 20.58351434 31.90784054 25.99665865 31 33 C29.80726543 36.57820371 28.72368477 39.20145129 26.1875 42 C22.88805683 43.50831688 21.4446916 43.19239325 18 42 C9.79138379 36.59873053 4.38548361 28.02491137 1.5234375 18.71484375 C0.33696758 12.56113784 0.2224046 6.25033622 0 0 Z " fill="#F7EAE3" transform="translate(73,311)"/>
<path d="M0 0 C2.26123363 2.26123363 2.72554401 3.81551691 3.75 6.8125 C6.10532375 12.88030431 8.88389352 15.57742965 14.875 18.3125 C15.57625 18.539375 16.2775 18.76625 17 19 C16 21 16 21 12.25 22.3125 C6.40799057 24.41979626 3.45823807 27.84825698 0.6875 33.3125 C0.11486899 34.53697975 -0.45128243 35.7646191 -1 37 C-2.70830869 34.43753697 -3.66199437 32.39226903 -4.75 29.5625 C-7.14867714 24.06961851 -10.45681504 22.10573259 -15.875 19.75 C-16.57625 19.5025 -17.2775 19.255 -18 19 C-16.67212466 16.34424932 -15.48954754 16.28413384 -12.75 15.25 C-6.69820138 12.64676599 -3.840288 9.1762906 -1.1875 3.125 C-0.795625 2.09375 -0.40375 1.0625 0 0 Z " fill="#080807" transform="translate(561,385)"/>
<path d="M0 0 C3.39474823 2.0869023 5.62494089 4.09682784 8.28515625 7.01953125 C3.15505961 7.27635711 -0.13004056 6.63461235 -4.77734375 4.51953125 C-17.25168163 -0.18171814 -33.31995975 0.03785539 -45.71484375 5.01953125 C-45.39838509 2.16519824 -44.92486546 1.19664821 -42.6953125 -0.68359375 C-28.9606257 -8.29049721 -13.74330937 -6.85512745 0 0 Z " fill="#141211" transform="translate(108.71484375,1521.98046875)"/>
<path d="M0 0 C-7.75510712 7.75510712 -18.98222238 12.99380861 -30.0625 13.25 C-37.18000164 13.14288041 -45.06284479 11.98184624 -50.75 7.4375 C-53 5 -53 5 -53 3 C-50.53961515 3.48422468 -48.08619271 3.98044967 -45.640625 4.53515625 C-32.32493021 7.47244186 -20.68615688 5.25363553 -8.03857422 0.58911133 C-3.31294046 -1.10431349 -3.31294046 -1.10431349 0 0 Z " fill="#100E0E" transform="translate(117,390)"/>
<path d="M0 0 C6.09509853 0.46885373 11.32347848 1.98937155 17.0703125 4.0625 C29.78206527 8.13026089 41.46180213 5.05942955 54 2 C52.23956996 5.7904755 50.55521972 7.68137845 47 10 C35.40814713 13.47755586 22.66944821 13.89338476 11.63671875 8.5078125 C7.61871561 6.21010996 3.62472385 3.8924564 0 1 C0 0.67 0 0.34 0 0 Z " fill="#0C0B0B" transform="translate(963,390)"/>
<path d="M0 0 C2.13024567 1.54661672 3.36993882 2.88092047 5 5 C5 5.66 5 6.32 5 7 C4.40646729 6.78923828 3.81293457 6.57847656 3.20141602 6.36132812 C-3.32232667 4.20387991 -9.2095098 3.45855164 -16.0625 3.5 C-17.05531982 3.49991943 -18.04813965 3.49983887 -19.07104492 3.49975586 C-27.20176206 3.65720888 -34.27235955 5.28190688 -41.89453125 8.00390625 C-45 9 -45 9 -47 8 C-34.86793615 -3.17426933 -15.33702513 -7.76016809 0 0 Z " fill="#121010" transform="translate(1012,1520)"/>
<path d="M0 0 C6.91289905 5.72783064 10.00664964 14.43037321 12 23 C12.29494416 26.27574775 12.33356447 29.5248935 12.3125 32.8125 C12.30831055 33.69526611 12.30412109 34.57803223 12.29980469 35.48754883 C12.07661496 48.35063785 12.07661496 48.35063785 9 53 C6.890625 53.73828125 6.890625 53.73828125 5 54 C5.0721875 53.35417969 5.144375 52.70835938 5.21875 52.04296875 C6.59481858 38.0720503 7.6440187 25.1983162 2.1796875 12.046875 C0.60139506 7.97049054 0.22466448 4.34351328 0 0 Z " fill="#0F0D0D" transform="translate(133,1548)"/>
<path d="M0 0 C3 1 3 1 4.125 3.1875 C8.00108985 15.64636024 7.65608909 31.23947329 2 43 C-2.98909091 52.49454545 -2.98909091 52.49454545 -6 54 C-5.66871961 48.589087 -4.39242067 44.31401766 -2.4375 39.25 C2.031196 27.03901017 0.45551648 13.68378644 -1 1 C-0.67 0.67 -0.34 0.34 0 0 Z " fill="#0F0D0D" transform="translate(139,317)"/>
<path d="M0 0 C0.99 0 1.98 0 3 0 C2.9278125 0.76441406 2.855625 1.52882813 2.78125 2.31640625 C2.47286726 5.87565705 2.22579966 9.43455056 2 13 C1.92007813 14.18980469 1.84015625 15.37960937 1.7578125 16.60546875 C1.45935155 24.79558837 2.57330621 31.38297666 5.22119141 39.10253906 C6.74907298 43.61322009 7.24838716 47.23096649 7 52 C3.85818704 49.1456295 2.07620778 46.5673513 0.375 42.6875 C-0.02976562 41.78386719 -0.43453125 40.88023437 -0.8515625 39.94921875 C-3.49016543 33.17321463 -4.33964171 27.32298158 -4.3125 20.125 C-4.32861328 19.27808594 -4.34472656 18.43117188 -4.36132812 17.55859375 C-4.36589636 11.59247289 -3.38438135 6.48964041 -1 1 C-0.67 0.67 -0.34 0.34 0 0 Z " fill="#0F0D0D" transform="translate(939,318)"/>
<path d="M0 0 C0.33 0 0.66 0 1 0 C1.55641922 5.56419218 0.65125193 9.14343549 -1.5 14.3125 C-4.416561 22.24699515 -4.58176915 29.43237646 -4.3125 37.875 C-4.28732628 39.25646898 -4.26452947 40.63798337 -4.24414062 42.01953125 C-4.1859583 45.34756023 -4.10426479 48.67315122 -4 52 C-7 51 -7 51 -7.94921875 49.3828125 C-12.03231954 36.89586935 -11.7165385 21.86746443 -6 10 C-4.16703434 6.54890505 -2.28330761 3.17555397 0 0 Z " fill="#0E0C0C" transform="translate(945,1549)"/>
<path d="M0 0 C1.4158619 0.26404221 2.82065123 0.58761249 4.21875 0.93359375 C10.66520869 2.30071132 16.93761558 2.18416218 23.5 2.0625 C25.82285635 2.02819085 28.14577878 1.99802203 30.46875 1.97265625 C31.48388672 1.95468994 32.49902344 1.93672363 33.54492188 1.91821289 C36 2 36 2 38 3 C38 3.66 38 4.32 38 5 C36.60550891 5.483059 35.20933293 5.96125517 33.8125 6.4375 C33.03519531 6.70433594 32.25789063 6.97117187 31.45703125 7.24609375 C21.8597113 10.19089939 12.2199575 10.09890227 2.92578125 6.265625 C0.66361985 4.77893069 -0.02215769 3.48905315 -1 1 C-0.67 0.67 -0.34 0.34 0 0 Z " fill="#141212" transform="translate(68,406)"/>
<path d="M0 0 C1.97108894 1.0573391 3.27510853 2.29748838 4.76953125 3.94921875 C3.76953125 4.94921875 3.76953125 4.94921875 1.3203125 5.03100586 C-0.28263672 5.0040564 -0.28263672 5.0040564 -1.91796875 4.9765625 C-3.09230469 4.96431641 -4.26664063 4.95207031 -5.4765625 4.93945312 C-7.94798151 4.90473496 -10.41934527 4.86578336 -12.890625 4.82226562 C-19.6925464 4.7593534 -25.66318688 5.1446316 -32.23046875 6.94921875 C-32.23046875 5.62921875 -32.23046875 4.30921875 -32.23046875 2.94921875 C-30.96091575 2.30087221 -29.68977169 1.6556406 -28.41796875 1.01171875 C-27.71027344 0.65207031 -27.00257812 0.29242187 -26.2734375 -0.078125 C-18.29262758 -3.87778402 -8.14894802 -2.94483973 0 0 Z " fill="#151413" transform="translate(100.23046875,1506.05078125)"/>
<path d="M0 0 C0.66 0 1.32 0 2 0 C2.25523437 0.81404297 2.25523437 0.81404297 2.515625 1.64453125 C4.4086373 7.33442907 4.4086373 7.33442907 9 11 C9.99 11.33 10.98 11.66 12 12 C12 12.66 12 13.32 12 14 C10.9275 14.37125 9.855 14.7425 8.75 15.125 C4.73183532 16.80532341 3.23011846 19.2831359 1 23 C0.34 23 -0.32 23 -1 23 C-1.4125 22.071875 -1.825 21.14375 -2.25 20.1875 C-4.56104487 15.97809685 -6.49701732 14.50099423 -11 13 C-11 12.34 -11 11.68 -11 11 C-10.45730469 10.79246094 -9.91460938 10.58492188 -9.35546875 10.37109375 C-5.32645329 8.63607628 -2.73668287 7.42651051 -1 3.25 C-0.67 2.1775 -0.34 1.105 0 0 Z " fill="#0F0E0D" transform="translate(576,350)"/>
<path d="M0 0 C-0.5625 1.8125 -0.5625 1.8125 -2 4 C-10.59118712 8.37664249 -20.64406599 9.7260001 -30.03515625 7.17578125 C-36.70238626 4.59522748 -36.70238626 4.59522748 -38 2 C-37.35562988 2.01047363 -36.71125977 2.02094727 -36.04736328 2.03173828 C-33.07328331 2.07380674 -30.09926628 2.09948546 -27.125 2.125 C-25.60519531 2.15013672 -25.60519531 2.15013672 -24.0546875 2.17578125 C-18.22974066 2.21312065 -12.91775417 1.80784336 -7.24951172 0.43310547 C-4.78740264 -0.04093203 -2.50138477 -0.07001893 0 0 Z " fill="#0F0E0E" transform="translate(1013,407)"/>
<path d="M0 0 C1.36219564 0.96031288 2.70459188 1.95133629 4 3 C3.67 3.99 3.34 4.98 3 6 C2.07703125 5.7834375 1.1540625 5.566875 0.203125 5.34375 C-10.94236099 2.90639905 -21.62321148 2.68527327 -33 3 C-25.09551332 -6.12056155 -10.18839767 -4.55944868 0 0 Z " fill="#0E0D0C" transform="translate(1009,1507)"/>
<path d="M0 0 C0.33 0 0.66 0 1 0 C1.1482857 7.77676134 0.77025288 15.45144569 0.21875 23.203125 C0.01080428 26.81246851 -0.03745381 30.38570758 0 34 C-1.98 34.495 -1.98 34.495 -4 35 C-7.03904555 23.60357919 -7.08376133 13.81690823 -2 3 C-1.34 2.01 -0.68 1.02 0 0 Z " fill="#191716" transform="translate(930,1559)"/>
<path d="M0 0 C0.99 0 1.98 0 3 0 C6.96381198 8.2908418 5.90468829 19.33491103 2.93359375 27.8359375 C1.5349307 31.07802676 -0.11695795 34.01310571 -2 37 C-2.33 37 -2.66 37 -3 37 C-3.17909437 32.34354639 -2.91612396 28.14677684 -2.0625 23.5625 C-0.64985958 15.75791216 -0.35609183 7.90898704 0 0 Z " fill="#0D0C0B" transform="translate(151,325)"/>
<path d="M0 0 C5.05180922 4.4438551 6.69495958 11.01259331 7.359375 17.51953125 C7.51420362 24.66487218 6.73130161 30.39935445 4 37 C3.34 36.67 2.68 36.34 2 36 C1.95101562 34.8140625 1.90203125 33.628125 1.8515625 32.40625 C1.42006488 22.8277983 0.6767052 13.42104285 -0.6953125 3.9296875 C-0.79585937 2.96289062 -0.89640625 1.99609375 -1 1 C-0.67 0.67 -0.34 0.34 0 0 Z " fill="#0D0C0C" transform="translate(149,1558)"/>
<path d="M0 0 C0.33 0 0.66 0 1 0 C1.3384865 4.16626463 1.66985752 8.33306653 2 12.5 C2.09539063 13.67304688 2.19078125 14.84609375 2.2890625 16.0546875 C2.7611905 22.05745776 3.11923326 27.97872017 3 34 C-1.74970322 30.39677687 -2.88536871 25.61354164 -4 20 C-4.77088985 13.17658308 -3.76272816 7.28413297 -1 1 C-0.67 0.67 -0.34 0.34 0 0 Z " fill="#161413" transform="translate(928,325)"/>
<path d="M0 0 C2.62748631 0.05985162 5.24916995 0.14676224 7.875 0.25 C8.62136719 0.26417969 9.36773437 0.27835937 10.13671875 0.29296875 C12.3046875 0.390625 12.3046875 0.390625 16 1 C17.5078125 3.046875 17.5078125 3.046875 18 5 C12.68974014 7.37564257 7.58753372 7.43294755 2 6 C0.19921875 4.44921875 0.19921875 4.44921875 -1 3 C-0.67 2.01 -0.34 1.02 0 0 Z " fill="#1C1A19" transform="translate(74,421)"/>
<path d="M0 0 C0.99 0 1.98 0 3 0 C3.05790353 3.29159316 3.09356261 6.58305603 3.125 9.875 C3.14175781 10.81214844 3.15851562 11.74929688 3.17578125 12.71484375 C3.18222656 13.61074219 3.18867187 14.50664062 3.1953125 15.4296875 C3.20578613 16.25710449 3.21625977 17.08452148 3.22705078 17.93701172 C3 20 3 20 1 22 C-1.66556329 15.1456944 -3.41317667 9.23953002 -1 2 C-0.67 1.34 -0.34 0.68 0 0 Z " fill="#141312" transform="translate(916,332)"/>
<path d="M0 0 C1.32 0.33 2.64 0.66 4 1 C6.0430177 8.2988455 5.42514321 14.29242787 2 21 C1.34 21 0.68 21 0 21 C0 14.07 0 7.14 0 0 Z " fill="#100E0E" transform="translate(161,332)"/>
<path d="M0 0 C1.15113281 -0.01417969 2.30226563 -0.02835938 3.48828125 -0.04296875 C6.51162237 0.17482994 8.15315871 0.6043189 10.6875 2.1875 C10.3575 2.8475 10.0275 3.5075 9.6875 4.1875 C6.66796875 4.85546875 6.66796875 4.85546875 2.875 5.375 C1.00908203 5.64376953 1.00908203 5.64376953 -0.89453125 5.91796875 C-3.79863287 6.14697791 -5.61317617 6.14620192 -8.3125 5.1875 C-7.04391549 -0.43051713 -5.7123868 0.03177078 0 0 Z " fill="#171515" transform="translate(81.3125,1491.8125)"/>
<path d="M0 0 C4.55628618 4.55628618 4.99825824 5.98879103 5.1875 12 C5.15811937 15.14960406 4.78768134 17.31847799 3 20 C2.01 20 1.02 20 0 20 C0 13.4 0 6.8 0 0 Z " fill="#1B1818" transform="translate(161,1567)"/>
<path d="M0 0 C0.66 0 1.32 0 2 0 C2 6.27 2 12.54 2 19 C1.01 19 0.02 19 -1 19 C-3.49151132 15.26273303 -3.5545813 11.33216405 -3 7 C-2.18884568 4.51027199 -1.17663958 2.35327917 0 0 Z " fill="#141212" transform="translate(917,1567)"/>
<path d="M0 0 C2.5 1.9375 2.5 1.9375 4 4 C4 4.66 4 5.32 4 6 C1.93690624 5.88521587 -0.12548354 5.75773802 -2.1875 5.625 C-3.33605469 5.55539062 -4.48460937 5.48578125 -5.66796875 5.4140625 C-8.79959117 5.02490426 -11.15285809 4.3190149 -14 3 C-9.91651175 -1.4723919 -5.6886521 -1.51086937 0 0 Z " fill="#1A1817" transform="translate(1003,1492)"/>
<path d="M0 0 C-0.875 4.875 -0.875 4.875 -2 6 C-3.934419 6.12583966 -5.87402763 6.17578009 -7.8125 6.1875 C-8.87082031 6.20167969 -9.92914062 6.21585937 -11.01953125 6.23046875 C-13.9204626 6.00615034 -15.54818353 5.50196021 -18 4 C-15.31088092 1.31088092 -13.29746602 1.39964406 -9.5625 0.875 C-7.83193359 0.62363281 -7.83193359 0.62363281 -6.06640625 0.3671875 C-3 0 -3 0 0 0 Z " fill="#131111" transform="translate(1006,421)"/>
<path d="M0 0 C3.125 0.375 3.125 0.375 6 1 C6.33 2.65 6.66 4.3 7 6 C4.75 8.0625 4.75 8.0625 2 10 C-0.3125 9.75 -0.3125 9.75 -2 9 C-2.125 5.625 -2.125 5.625 -2 2 C-1.34 1.34 -0.68 0.68 0 0 Z " fill="#191716" transform="translate(598,1610)"/>
<path d="M0 0 C2.33294775 -0.04241723 4.66702567 -0.04092937 7 0 C8 1 8 1 8.0625 4.5625 C8.041875 5.696875 8.02125 6.83125 8 8 C6.3125 8.8125 6.3125 8.8125 4 9 C1.1875 6.8125 1.1875 6.8125 -1 4 C-0.8125 1.6875 -0.8125 1.6875 0 0 Z " fill="#121010" transform="translate(476,1611)"/>
<path d="M0 0 C2.875 0.6875 2.875 0.6875 6 2 C7.4375 4.5 7.4375 4.5 8 7 C7.67 7.66 7.34 8.32 7 9 C4.66705225 9.04241723 2.33297433 9.04092937 0 9 C-1 8 -1 8 -1.125 4.5 C-1 1 -1 1 0 0 Z " fill="#100F0E" transform="translate(597,299)"/>
<path d="M0 0 C0.928125 0.0825 1.85625 0.165 2.8125 0.25 C2.85491723 2.58294775 2.85342937 4.91702567 2.8125 7.25 C1.8125 8.25 1.8125 8.25 -1.75 8.3125 C-2.884375 8.291875 -4.01875 8.27125 -5.1875 8.25 C-5.875 6.5 -5.875 6.5 -6.1875 4.25 C-4.57120184 0.82725095 -3.82796192 0.30023231 0 0 Z " fill="#121010" transform="translate(481.1875,299.75)"/>
<path d="M0 0 C3 0.25 3 0.25 5 2.25 C4.63318342 5.18453261 4.13562754 6.11437246 2 8.25 C-0.5 8.1875 -0.5 8.1875 -3 7.25 C-4.3125 4.6875 -4.3125 4.6875 -5 2.25 C-3 0.25 -3 0.25 0 0 Z " fill="#141212" transform="translate(452,1611.75)"/>
<path d="M0 0 C2.33294775 -0.04241723 4.66702567 -0.04092937 7 0 C8 1 8 1 8.125 3.5 C8 6 8 6 7 7 C4.0625 7.1875 4.0625 7.1875 1 7 C0.34 6.34 -0.32 5.68 -1 5 C-0.625 2.375 -0.625 2.375 0 0 Z " fill="#0E0D0D" transform="translate(624,1612)"/>
<path d="M0 0 C2.9375 0.1875 2.9375 0.1875 3.9375 1.1875 C4.0625 3.6875 4.0625 3.6875 3.9375 6.1875 C2.9375 7.1875 2.9375 7.1875 -0.625 7.25 C-1.759375 7.229375 -2.89375 7.20875 -4.0625 7.1875 C-4.6875 4.8125 -4.6875 4.8125 -5.0625 2.1875 C-3.0625 0.1875 -3.0625 0.1875 0 0 Z " fill="#0D0B0B" transform="translate(628.0625,299.8125)"/>
<path d="M0 0 C3.0625 0.1875 3.0625 0.1875 5.0625 2.1875 C4.6875 4.8125 4.6875 4.8125 4.0625 7.1875 C1.72955225 7.22991723 -0.60452567 7.22842937 -2.9375 7.1875 C-3.9375 6.1875 -3.9375 6.1875 -4.0625 3.6875 C-3.88162605 0.07002102 -3.66418153 0.23388393 0 0 Z " fill="#0A0909" transform="translate(451.9375,299.8125)"/>
<path d="M0 0 C2.00720923 0.28674418 4.0085944 0.61866701 6 1 C6.625 2.8125 6.625 2.8125 7 5 C6.01 6.485 6.01 6.485 5 8 C0.125 7.125 0.125 7.125 -1 6 C-1.125 3.5 -1.125 3.5 -1 1 C-0.67 0.67 -0.34 0.34 0 0 Z " fill="#0E0D0D" transform="translate(1018,986)"/>
<path d="M0 0 C4.70588235 0.70588235 4.70588235 0.70588235 6 2 C6.125 4.5 6.125 4.5 6 7 C5 8 5 8 2.5 8.125 C0 8 0 8 -1 7 C-1.125 4 -1.125 4 -1 1 C-0.67 0.67 -0.34 0.34 0 0 Z " fill="#090808" transform="translate(57,925)"/>
<path d="M0 0 C2.625 0.375 2.625 0.375 5 1 C5 2.98 5 4.96 5 7 C3.0085944 7.38133299 1.00720923 7.71325582 -1 8 C-2 7 -2 7 -2.1875 4.5625 C-2 2 -2 2 0 0 Z " fill="#080707" transform="translate(1019,925)"/>
<path d="M0 0 C2.625 0.375 2.625 0.375 5 1 C5.125 3.375 5.125 3.375 5 6 C4.34 6.66 3.68 7.32 3 8 C0.375 7.625 0.375 7.625 -2 7 C-2.125 4.625 -2.125 4.625 -2 2 C-1.34 1.34 -0.68 0.68 0 0 Z " fill="#070606" transform="translate(58,986)"/>
<path d="M0 0 C0.125 2.375 0.125 2.375 0 5 C-0.66 5.66 -1.32 6.32 -2 7 C-5.53571429 6.46428571 -5.53571429 6.46428571 -7 5 C-7.04063832 3.33382885 -7.042721 1.66611905 -7 0 C-4.3333581 -1.33332095 -2.83319697 -0.67102033 0 0 Z " fill="#131211" transform="translate(1024,946)"/>
<path d="M0 0 C1.2065625 0.0309375 1.2065625 0.0309375 2.4375 0.0625 C2.7675 2.0425 3.0975 4.0225 3.4375 6.0625 C1.7875 6.7225 0.1375 7.3825 -1.5625 8.0625 C-3.5625 6.0625 -3.5625 6.0625 -3.75 3.5 C-3.4919783 0.14571793 -3.38163728 0.08247896 0 0 Z " fill="#100F0E" transform="translate(59.5625,966.9375)"/>
<path d="M0 0 C4.55384615 -0.36923077 4.55384615 -0.36923077 6.8125 1.5 C7.204375 1.995 7.59625 2.49 8 3 C7.34 4.32 6.68 5.64 6 7 C4.33388095 7.042721 2.66617115 7.04063832 1 7 C0 6 0 6 -0.0625 2.9375 C-0.041875 1.968125 -0.02125 0.99875 0 0 Z " fill="#0E0C0C" transform="translate(570,301)"/>
<path d="M0 0 C1.2065625 0.0309375 1.2065625 0.0309375 2.4375 0.0625 C3.0975 1.3825 3.7575 2.7025 4.4375 4.0625 C3.25 5.625 3.25 5.625 1.4375 7.0625 C-1.25 6.75 -1.25 6.75 -3.5625 6.0625 C-3.605221 4.39638095 -3.60313832 2.72867115 -3.5625 1.0625 C-2.5625 0.0625 -2.5625 0.0625 0 0 Z " fill="#0F0E0D" transform="translate(573.5625,1610.9375)"/>
<path d="M0 0 C2.5 0.125 2.5 0.125 3.5 1.125 C3.625 3.625 3.625 3.625 3.5 6.125 C2.5 7.125 2.5 7.125 0 7.25 C-2.5 7.125 -2.5 7.125 -3.5 6.125 C-3.625 3.625 -3.625 3.625 -3.5 1.125 C-2.5 0.125 -2.5 0.125 0 0 Z " fill="#0D0B0B" transform="translate(506.5,1610.875)"/>
<path d="M0 0 C2.5 0.125 2.5 0.125 3.5 1.125 C3.625 3.625 3.625 3.625 3.5 6.125 C2.5 7.125 2.5 7.125 0 7.25 C-2.5 7.125 -2.5 7.125 -3.5 6.125 C-3.625 3.625 -3.625 3.625 -3.5 1.125 C-2.5 0.125 -2.5 0.125 0 0 Z " fill="#0C0B0B" transform="translate(59.5,944.875)"/>
<path d="M0 0 C2.5 0.125 2.5 0.125 3.5 1.125 C3.625 3.625 3.625 3.625 3.5 6.125 C2.5 7.125 2.5 7.125 0 7.25 C-2.5 7.125 -2.5 7.125 -3.5 6.125 C-3.625 3.625 -3.625 3.625 -3.5 1.125 C-2.5 0.125 -2.5 0.125 0 0 Z " fill="#0D0B0B" transform="translate(506.5,300.875)"/>
<path d="M0 0 C1.66611905 -0.042721 3.33382885 -0.04063832 5 0 C6 1 6 1 6.0625 3.5625 C6.041875 4.366875 6.02125 5.17125 6 6 C3.625 6.625 3.625 6.625 1 7 C0.34 6.34 -0.32 5.68 -1 5 C-0.625 2.375 -0.625 2.375 0 0 Z " fill="#0C0A0A" transform="translate(1018,967)"/>
<path d="M0 0 C0.38218767 1.65614657 0.71395102 3.32457024 1 5 C0 6 0 6 -2.5 6.125 C-5 6 -5 6 -6 5 C-6.04063832 3.33382885 -6.042721 1.66611905 -6 0 C-3.50907189 -1.24546405 -2.58919267 -0.7767578 0 0 Z " fill="#1A1817" transform="translate(1024,904)"/>
<path d="M0 0 C2.375 -0.125 2.375 -0.125 5 0 C5.66 0.66 6.32 1.32 7 2 C6.625 4.125 6.625 4.125 6 6 C3.625 6.125 3.625 6.125 1 6 C0.34 5.34 -0.32 4.68 -1 4 C-0.625 1.875 -0.625 1.875 0 0 Z " fill="#161414" transform="translate(526,1611)"/>
<path d="M0 0 C2.375 -0.125 2.375 -0.125 5 0 C5.66 0.66 6.32 1.32 7 2 C6.625 4.125 6.625 4.125 6 6 C3.625 6.125 3.625 6.125 1 6 C0.34 5.34 -0.32 4.68 -1 4 C-0.625 1.875 -0.625 1.875 0 0 Z " fill="#141212" transform="translate(548,302)"/>
<path d="M0 0 C0.78375 0.04125 1.5675 0.0825 2.375 0.125 C3.5 3.875 3.5 3.875 2.375 6.125 C0.395 6.125 -1.585 6.125 -3.625 6.125 C-4.25 4.25 -4.25 4.25 -4.625 2.125 C-2.625 0.125 -2.625 0.125 0 0 Z " fill="#151312" transform="translate(529.625,301.875)"/>
<path d="M0 0 C1.2065625 0.0309375 1.2065625 0.0309375 2.4375 0.0625 C3.125 1.875 3.125 1.875 3.4375 4.0625 C2.25 5.875 2.25 5.875 0.4375 7.0625 C-1.75 6.75 -1.75 6.75 -3.5625 6.0625 C-3.605221 4.39638095 -3.60313832 2.72867115 -3.5625 1.0625 C-2.5625 0.0625 -2.5625 0.0625 0 0 Z " fill="#1A1817" transform="translate(1021.5625,1008.9375)"/>
<path d="M0 0 C2.97 0.495 2.97 0.495 6 1 C6 2.65 6 4.3 6 6 C4.68 6.33 3.36 6.66 2 7 C0.4375 5.1875 0.4375 5.1875 -1 3 C-0.67 2.01 -0.34 1.02 0 0 Z " fill="#191716" transform="translate(56,1009)"/>
<path d="M0 0 C1.2065625 0.0309375 1.2065625 0.0309375 2.4375 0.0625 C3.0625 1.9375 3.0625 1.9375 3.4375 4.0625 C1.4375 6.0625 1.4375 6.0625 -1.1875 6.1875 C-1.97125 6.14625 -2.755 6.105 -3.5625 6.0625 C-3.605221 4.39638095 -3.60313832 2.72867115 -3.5625 1.0625 C-2.5625 0.0625 -2.5625 0.0625 0 0 Z " fill="#0D0B0B" transform="translate(551.5625,1610.9375)"/>
<path d="M0 0 C1.2065625 0.0309375 1.2065625 0.0309375 2.4375 0.0625 C2.480221 1.72861905 2.47813832 3.39632885 2.4375 5.0625 C1.4375 6.0625 1.4375 6.0625 -1.125 6.125 C-2.3315625 6.0940625 -2.3315625 6.0940625 -3.5625 6.0625 C-3.605221 4.39638095 -3.60313832 2.72867115 -3.5625 1.0625 C-2.5625 0.0625 -2.5625 0.0625 0 0 Z " fill="#0A0909" transform="translate(59.5625,903.9375)"/>
</svg>
